<svg width="111" height="22" viewBox="0 0 111 22" fill="none" xmlns="http://www.w3.org/2000/svg">
<path d="M106.161 2.78612C106.161 1.5272 107.172 0.49531 108.411 0.49531C109.009 0.49531 109.566 0.742964 110 1.15572C110.433 1.58912 110.66 2.16698 110.66 2.76548C110.66 3.36398 110.433 3.94184 110 4.37523C109.566 4.80863 109.009 5.05628 108.411 5.05628C107.172 5.05628 106.161 4.04503 106.161 2.78612ZM105.975 2.78612C105.975 4.14822 107.069 5.26266 108.431 5.26266C109.092 5.26266 109.69 5.01501 110.144 4.54034C110.598 4.06567 110.867 3.44653 110.867 2.78612C110.867 2.1257 110.619 1.50657 110.144 1.03189C109.67 0.557223 109.071 0.309568 108.431 0.309568C107.069 0.309568 105.975 1.42401 105.975 2.78612ZM107.503 4.25141H107.853V3.09568H108.638C108.762 3.09568 108.865 3.09568 108.947 3.13696C109.05 3.19887 109.112 3.3227 109.133 3.4878L109.174 3.94184V4.14822C109.195 4.18949 109.195 4.21013 109.216 4.23077H109.649V4.16886C109.587 4.14822 109.566 4.0863 109.546 4.00375C109.525 3.96248 109.525 3.87992 109.525 3.77673L109.505 3.42589C109.505 3.26079 109.463 3.1576 109.422 3.09568C109.36 3.03377 109.278 2.97186 109.174 2.93058C109.298 2.86867 109.381 2.78612 109.443 2.68293C109.505 2.57974 109.525 2.45591 109.525 2.29081C109.525 1.98124 109.401 1.77486 109.174 1.65103C109.05 1.58912 108.885 1.56848 108.7 1.56848H107.523L107.503 4.25141ZM107.833 2.78612V1.85741H108.658C108.782 1.85741 108.885 1.87805 108.947 1.91932C109.071 1.98124 109.133 2.1257 109.133 2.31144C109.133 2.49719 109.092 2.62101 108.989 2.68293C108.906 2.74484 108.782 2.78612 108.617 2.78612H107.833ZM10.0505 6.19137L0.0204773 21.9587H6.87226L16.5308 6.89306L10.0505 6.19137ZM51.3469 5.84052V0H31.8441C29.1818 0.165103 28.0261 1.44465 27.1593 2.35272C26.2306 3.3227 25.7147 5.36585 25.7147 5.36585V0.0412758H15.3338C14.5496 0.0412758 13.8066 0.371482 13.2494 1.15572C12.6715 1.91932 10.2982 5.84052 10.2982 5.84052H51.3469ZM104.386 5.84052V0H83.5214C80.8798 0.165103 79.7034 1.44465 78.8366 2.35272C77.9079 3.3227 77.392 5.36585 77.392 5.36585V5.84052H104.386ZM58.1987 0.0206379H52.3582V5.84052H58.1987V0.0206379ZM77.33 0.0206379H71.5102V5.84052H77.33V0.0206379ZM77.33 7.94559L71.5927 7.59475V14.3433C71.5927 14.3433 71.5721 16.2833 69.694 16.2833H59.8704C59.8704 16.2833 58.1987 16.1388 58.1987 14.364V6.68668L52.4201 6.27392V16.6135C53.3488 21.5666 57.8272 21.9587 57.8272 21.9587C57.8272 21.9587 58.2813 21.9794 58.3638 22H71.6753C71.6753 22 77.3713 21.546 77.3713 16.0563L77.33 7.94559ZM19.7709 21.9587H47.0542C51.801 21.0094 52.2963 16.6754 52.2963 16.6754C52.5233 15.3959 52.3995 14.3433 52.3995 14.3433C52.255 13.4765 50.604 9.6379 47.0542 9.30769C44.9285 9.10131 26.0036 7.59475 26.0036 7.59475C26.3751 9.49343 27.2212 10.4634 27.7991 11C29.1199 12.2589 31.2043 12.6304 31.2043 12.6304L45.7953 13.848C46.2494 13.8687 47.0955 13.9925 47.0749 15.1069C47.0749 15.2514 46.9511 16.2214 45.8779 16.2214H25.467V7.55347L19.7916 7.14071C19.7709 7.14071 19.7709 21.9587 19.7709 21.9587ZM77.3713 22H98.2569C103.499 21.6904 104.242 16.7167 104.242 16.7167C104.428 15.4165 104.283 14.3433 104.283 14.3433C104.139 13.167 102.467 9.61726 98.8967 9.26642C96.7916 9.06004 77.7428 7.94559 77.7428 7.94559C78.3 9.90619 79.0636 10.5047 79.6415 11.0413C80.9623 12.3208 82.9229 12.6098 82.9229 12.6098C83.4182 12.651 97.6584 13.848 97.6584 13.848C98.1124 13.8687 99.0411 13.9099 99.0411 15.0244C99.0411 15.3546 98.876 15.7054 98.6696 15.8912C98.6696 15.8912 98.1743 16.1595 97.6996 16.1595H77.4332L77.3713 22Z" fill="#00539B"/>
</svg>
