<svg width="106" height="22" viewBox="0 0 106 22" fill="none" xmlns="http://www.w3.org/2000/svg">
<path d="M8.36662 15.6559C10.0629 18.4371 13.174 20.3031 16.6363 20.3031C21.7522 20.3031 24.5684 15.8882 24.5684 15.8882L24.9309 17.0642C22.5624 20.1446 18.3313 22.0002 13.5974 22.0002C8.14725 22.0002 3.44686 19.4002 1.28406 15.6508C0.469741 14.2386 0.0151672 12.6612 0.0151672 10.9999C0.0151672 4.92465 6.09551 0 13.5972 0C18.8977 0 23.1652 2.27033 25.4054 5.56046L16.5118 10.8861L21.5874 3.09247C20.1353 2.17922 18.3537 1.32403 16.5118 1.32403C11.3048 1.32403 7.01619 5.66917 7.01619 10.8759C7.01619 12.6205 7.51163 14.2597 8.36662 15.6559ZM32.18 15.6528C32.1534 15.8304 32.14 16.0098 32.1401 16.1895C32.1401 18.1659 33.7426 19.7686 35.7192 19.7686C37.6959 19.7686 39.2982 18.1661 39.2982 16.1895C39.2982 16.0092 39.2848 15.8291 39.2581 15.6508C38.9992 13.9309 37.5135 12.6106 35.7191 12.6106C33.9248 12.6106 32.4389 13.9309 32.18 15.6528ZM45.4604 15.6508L47.2392 21.6426H40.9995L39.7727 17.5397C38.9511 19.9039 36.1785 21.6426 32.8849 21.6426C28.944 21.6426 25.7497 19.1537 25.7497 16.0829C25.7497 15.9392 25.7568 15.7965 25.7704 15.6508C26.0508 12.7848 29.1288 10.5232 32.8849 10.5232C35.0168 10.5232 36.9303 11.2517 38.2377 12.4066L36.5381 6.72417H29.3767C29.3767 6.72417 30.5682 6.00956 35.852 4.08706C41.1358 2.16475 42.8102 6.72417 42.8102 6.72417L45.4604 15.6508ZM65.4102 15.6508V21.6426H58.9899V8.47814C58.9899 8.01296 58.8051 7.56683 58.4762 7.2379C58.1472 6.90896 57.7011 6.72417 57.2359 6.72417C56.8826 6.72409 56.5376 6.8307 56.2459 7.03004C55.9542 7.22938 55.7295 7.51216 55.6012 7.84135V21.6426H49.3V6.72417H45.625C45.625 6.72417 50.7374 3.62701 52.5101 3.62701C54.1902 3.62701 55.4337 4.9178 55.5891 6.56209C58.0616 5.22848 60.5134 3.62701 62.2003 3.62701C63.9431 3.62701 65.3618 5.01595 65.4102 6.74763V15.6508ZM75.3008 15.6508L76.1943 18.6041C76.2115 19.8699 77.2517 20.8824 78.5284 20.8824C79.8336 20.8824 80.8914 19.8247 80.8914 18.5196C80.8914 18.4271 80.8861 18.3362 80.8757 18.2467L80.1161 15.6508L77.4487 6.53452C77.3173 5.35322 76.3161 4.43488 75.0998 4.43488C73.8958 4.43488 72.7479 5.55988 72.6013 6.72398L75.3008 15.6508ZM85.5184 15.652C84.3025 19.3388 80.83 22.0002 76.7355 22.0002C72.6408 22.0002 69.1681 19.339 67.9518 15.6508C67.6439 14.7161 67.4875 13.738 67.4886 12.7539C67.4886 7.6472 71.6284 3.50774 76.7355 3.50774C81.8422 3.50774 85.982 7.6472 85.982 12.7539C85.982 13.7661 85.8193 14.7405 85.5184 15.652ZM96.1488 15.6508V21.6426H89.8474V6.72417H86.3236C86.3236 6.72417 91.2848 3.62701 93.0577 3.62701C94.738 3.62701 95.9813 4.9178 96.1371 6.56209C98.6096 5.22848 101.061 3.62701 102.748 3.62701C104.491 3.62701 105.91 5.01595 105.958 6.74763V21.6426H99.5375V8.47814C99.5375 8.01296 99.3527 7.56683 99.0238 7.2379C98.6948 6.90896 98.2487 6.72417 97.7835 6.72417C97.4302 6.72409 97.0852 6.8307 96.7935 7.03004C96.5018 7.22938 96.2771 7.51216 96.1488 7.84135V15.6508Z" fill="#CC2229"/>
</svg>
