<svg width="18" height="26" viewBox="0 0 18 26" fill="none" xmlns="http://www.w3.org/2000/svg">
    <g clip-path="url(#clip0_28_830)">
        <path fill-rule="evenodd" clip-rule="evenodd"
              d="M11.7473 6.83009C10.4177 6.23767 8.93223 6.09091 7.51243 6.41169C6.09263 6.73248 4.81456 7.50362 3.86884 8.61012C2.92312 9.71661 2.36041 11.0992 2.26463 12.5516C2.16886 14.004 2.54516 15.4485 3.3374 16.6696C4.12964 17.8907 5.29539 18.823 6.66077 19.3274C8.02615 19.8319 9.51802 19.8814 10.9139 19.4687C12.3097 19.056 13.5348 18.2031 14.4063 17.0373C15.2778 15.8715 15.7492 14.4552 15.75 12.9996V12.31C15.75 11.8958 16.0858 11.56 16.5 11.56C16.9142 11.56 17.25 11.8958 17.25 12.31V13C17.249 14.7791 16.6729 16.5106 15.6077 17.9355C14.5425 19.3604 13.0452 20.4027 11.3392 20.9072C9.63313 21.4116 7.80974 21.351 6.14094 20.7345C4.47214 20.1179 3.04734 18.9785 2.07904 17.486C1.11074 15.9936 0.650828 14.2281 0.767883 12.4529C0.884939 10.6777 1.5727 8.98792 2.72858 7.63553C3.88447 6.28315 5.44655 5.34064 7.18186 4.94857C8.91716 4.5565 10.7327 4.73588 12.3578 5.45995C12.7361 5.62853 12.9062 6.07192 12.7376 6.45027C12.569 6.82863 12.1256 6.99868 11.7473 6.83009Z"
              fill="#27AE60"/>
        <path fill-rule="evenodd" clip-rule="evenodd"
              d="M17.0301 6.46943C17.3231 6.76217 17.3233 7.23705 17.0306 7.53009L9.5306 15.0376C9.38997 15.1784 9.19917 15.2575 9.00019 15.2575C8.80122 15.2576 8.61037 15.1785 8.46967 15.0379L6.21967 12.7879C5.92678 12.495 5.92678 12.0201 6.21967 11.7272C6.51257 11.4343 6.98744 11.4343 7.28033 11.7272L8.99974 13.4466L15.9694 6.46996C16.2622 6.17692 16.737 6.17668 17.0301 6.46943Z"
              fill="#27AE60"/>
    </g>
    <defs>
        <clipPath id="clip0_28_830">
            <rect width="18" height="18" fill="white" transform="translate(0 4)"/>
        </clipPath>
    </defs>
</svg>
