<svg width="30" height="30" viewBox="0 0 30 30" fill="none" xmlns="http://www.w3.org/2000/svg">
<path d="M22.6235 7.38944C22.5042 7.2699 22.3625 7.17507 22.2065 7.11036C22.0505 7.04565 21.8833 7.01235 21.7144 7.01235C21.5455 7.01235 21.3783 7.04565 21.2223 7.11036C21.0663 7.17507 20.9246 7.2699 20.8053 7.38944L14.5 13.6819L8.19465 7.37654C8.07527 7.25716 7.93355 7.16247 7.77757 7.09786C7.6216 7.03325 7.45442 7 7.2856 7C7.11677 7 6.9496 7.03325 6.79362 7.09786C6.63764 7.16247 6.49592 7.25716 6.37654 7.37654C6.25716 7.49592 6.16247 7.63764 6.09786 7.79362C6.03325 7.9496 6 8.11677 6 8.2856C6 8.45442 6.03325 8.6216 6.09786 8.77757C6.16247 8.93355 6.25716 9.07527 6.37654 9.19465L12.6819 15.5L6.37654 21.8053C6.25716 21.9247 6.16247 22.0665 6.09786 22.2224C6.03325 22.3784 6 22.5456 6 22.7144C6 22.8832 6.03325 23.0504 6.09786 23.2064C6.16247 23.3624 6.25716 23.5041 6.37654 23.6235C6.49592 23.7428 6.63764 23.8375 6.79362 23.9021C6.9496 23.9667 7.11677 24 7.2856 24C7.45442 24 7.6216 23.9667 7.77757 23.9021C7.93355 23.8375 8.07527 23.7428 8.19465 23.6235L14.5 17.3181L20.8053 23.6235C20.9247 23.7428 21.0665 23.8375 21.2224 23.9021C21.3784 23.9667 21.5456 24 21.7144 24C21.8832 24 22.0504 23.9667 22.2064 23.9021C22.3624 23.8375 22.5041 23.7428 22.6235 23.6235C22.7428 23.5041 22.8375 23.3624 22.9021 23.2064C22.9667 23.0504 23 22.8832 23 22.7144C23 22.5456 22.9667 22.3784 22.9021 22.2224C22.8375 22.0665 22.7428 21.9247 22.6235 21.8053L16.3181 15.5L22.6235 9.19465C23.1134 8.70466 23.1134 7.87942 22.6235 7.38944Z" fill="white"/>
</svg>
