<svg width="90" height="28" viewBox="0 0 90 28" fill="none" xmlns="http://www.w3.org/2000/svg">
<path fill-rule="evenodd" clip-rule="evenodd" d="M0 1.49448H10.9113L12.1074 1.54436L13.2532 1.64412L14.3496 1.89305L15.3962 2.14244L16.3424 2.54101L17.2393 2.93957L18.0863 3.43789L18.8835 3.98609L19.5813 4.58417L20.2787 5.23165L20.8767 5.9295L21.4245 6.67674L21.8729 7.47386L22.3213 8.27146L22.67 9.11846L22.9693 9.96547L38.4633 0L44.0931 3.78657L32.036 11.5588L33.9789 12.8542L46.1357 5.13189L51.3664 8.61918L39.3597 16.541L41.4024 17.7866L53.6082 10.0144V1.49448H62.5765V18.4839H70.5482V26.4552H53.6082V18.2844L38.5127 28L23.1175 17.5871L22.8182 18.4839L22.5194 19.3309L22.071 20.1779L21.6225 21.0254L21.0743 21.7727L20.4763 22.5204L19.8288 23.2177L19.0815 23.8153L18.3343 24.4134L17.4374 24.9117L16.5405 25.3602L15.5439 25.7588L14.4974 26.0576L13.4014 26.2566L12.2556 26.4062L11.0101 26.4561H0V1.49448ZM8.56979 9.31655H10.9113L11.9578 9.41631L12.8048 9.71511L13.552 10.1635L14.1995 10.7616L14.6484 11.459L14.9971 12.2067L15.1962 13.0537L15.246 13.9007L15.1962 14.7477L14.9971 15.5952L14.6484 16.3424L14.1501 17.0403L13.552 17.6379L12.8048 18.0868L11.9079 18.3856L10.9113 18.4854H8.56979V9.31655ZM72.7904 1.49448H81.8086V18.4839H89.731V26.4552H72.7909L72.7904 1.49448Z" fill="#0382C7"/>
</svg>
