<svg width="108" height="36" viewBox="0 0 108 36" fill="none" xmlns="http://www.w3.org/2000/svg">
<g clip-path="url(#clip0_72_1519)">
<path fill-rule="evenodd" clip-rule="evenodd" d="M0 -36H108V72H0V-36Z" fill="white"/>
<path fill-rule="evenodd" clip-rule="evenodd" d="M11.9533 20.7757H22.0548V17.2128H11.9533V12.7456H22.9597V8.89298H7.36954V29.7382H23.1934V25.8839H11.9533V20.7757ZM33.7885 8.95462H24.3873V29.8003H28.9705V22.3266H33.7885C38.9847 22.3266 40.9995 19.027 40.9995 15.64C40.9995 12.2531 38.9852 8.95462 33.7885 8.95462ZM32.5323 18.7642H28.9705V12.5164H32.5323C34.6637 12.5164 36.5614 12.9842 36.5614 15.64C36.5614 18.2981 34.6637 18.7642 32.5323 18.7642ZM52.7713 17.6963C47.5454 16.3533 46.5526 16.1482 46.5526 14.5435C46.5526 12.7915 48.2458 12.178 49.7059 12.178C51.895 12.178 53.6756 12.8201 53.8218 15.3308H58.2605C58.2605 10.5139 54.2605 8.61676 49.9093 8.61676C46.1441 8.61676 42.1145 10.6602 42.1145 14.9212C42.1145 18.8337 45.2387 20.0311 48.3332 20.8485C51.3985 21.666 54.5222 22.0459 54.5222 24.2943C54.5222 26.424 52.0698 26.8924 50.4645 26.8924C48.0121 26.8924 45.8511 25.8122 45.8511 23.0382H41.4141C41.3558 28.1772 45.6768 30.4542 50.2892 30.4542C55.9537 30.4542 58.9608 27.5939 58.9608 23.7688C58.9608 19.0399 54.2891 18.0762 52.7713 17.6963ZM69.8541 8.52431C63.4017 8.52431 59.6057 13.3423 59.6057 19.5324C59.6057 25.5455 63.4017 30.364 69.8541 30.364C76.3053 30.364 80.1013 25.5455 80.1013 19.5324C80.1013 13.3423 76.3053 8.52431 69.8541 8.52431ZM69.8541 26.5097C65.737 26.5097 64.1901 23.0045 64.1901 19.5324C64.1901 15.8826 65.7376 12.3786 69.8541 12.3786C73.97 12.3786 75.5181 15.8821 75.5181 19.5324C75.5181 23.0051 73.97 26.5097 69.8541 26.5097ZM98.9126 8.97535H94.6207V22.9608H94.5636L85.8617 8.97535H81.3082V29.8216H85.5989V15.8658H85.6583L94.3294 29.8216H98.9126V8.97535ZM104.118 8.58818C103.51 8.58759 102.927 8.34581 102.497 7.91588C102.067 7.48595 101.825 6.90299 101.824 6.2949C101.824 5.03704 102.859 4.00162 104.118 4.00162C105.378 4.00162 106.412 5.03704 106.412 6.2949C106.411 6.90294 106.169 7.48582 105.739 7.91571C105.309 8.34561 104.726 8.58744 104.118 8.58818ZM106.07 6.29434C106.069 5.77718 105.863 5.28164 105.497 4.91605C105.131 4.55047 104.635 4.34458 104.118 4.3434C103.601 4.34488 103.106 4.5509 102.74 4.91645C102.375 5.282 102.169 5.77737 102.167 6.29434C102.168 6.8116 102.374 7.3074 102.74 7.67332C103.105 8.03923 103.601 8.24549 104.118 8.24697C104.636 8.24563 105.132 8.03946 105.497 7.67355C105.863 7.30763 106.069 6.81175 106.07 6.29434ZM105.076 7.44687H104.588L104.207 6.47028H103.689V7.44687H103.249V5.0264H104.06C104.518 5.0264 105.045 5.10428 105.045 5.80632C105.045 6.23663 104.782 6.32516 104.626 6.40248L105.076 7.44687L104.217 6.08087C104.421 6.08087 104.588 5.98282 104.588 5.7671C104.588 5.55363 104.44 5.4455 104.178 5.4455H103.69V6.08087H104.217L105.076 7.44687Z" fill="#2F489A"/>
</g>
<defs>
<clipPath id="clip0_72_1519">
<rect width="108" height="36" fill="white"/>
</clipPath>
</defs>
</svg>
