<svg width="81" height="32" viewBox="0 0 81 32" fill="none" xmlns="http://www.w3.org/2000/svg">
<g clip-path="url(#clip0_72_1512)">
<path d="M77.8574 1.25159V1.16261C77.8574 1.11812 77.8129 1.11812 77.7684 1.07363C77.7239 1.07363 77.6794 1.02914 77.6794 1.02914H77.4125V1.47404H77.6794C77.7239 1.47404 77.7684 1.42955 77.8129 1.42955C77.8574 1.42955 77.8574 1.38506 77.8574 1.34057V1.25159ZM78.5692 2.40833H78.0353L77.5459 1.82996H77.4125V2.40833H77.0121V0.806693H77.9019C77.9908 0.806693 78.0353 0.851183 78.1243 0.895673C78.2133 0.940163 78.2578 0.984653 78.3023 1.02914C78.3468 1.07363 78.3468 1.16261 78.3468 1.25159C78.3468 1.38506 78.3023 1.47404 78.2578 1.56302C78.2133 1.652 78.1243 1.69649 77.9908 1.74098L78.5692 2.40833ZM78.9251 1.652C78.9251 1.29608 78.7917 0.984653 78.5692 0.762203C78.3023 0.495264 78.0353 0.361794 77.6794 0.361794C77.3235 0.361794 77.0121 0.495264 76.7896 0.762203C76.5227 1.02914 76.4337 1.29608 76.4337 1.652C76.4337 2.00792 76.5672 2.31935 76.7896 2.5418C77.0566 2.80874 77.3235 2.94221 77.6794 2.94221C78.0353 2.94221 78.3468 2.80874 78.5692 2.5418C78.7917 2.27486 78.9251 2.00792 78.9251 1.652ZM79.281 1.652C79.281 2.0969 79.1031 2.49731 78.7917 2.80874C78.4802 3.12017 78.0798 3.29813 77.6349 3.29813C77.19 3.29813 76.7896 3.12017 76.4782 2.80874C76.1667 2.49731 75.9888 2.0969 75.9888 1.652C75.9888 1.2071 76.1667 0.806693 76.4782 0.495264C76.7896 0.183834 77.19 0.00587463 77.6349 0.00587463C78.0798 0.00587463 78.4802 0.183834 78.7917 0.495264C79.1476 0.806693 79.281 1.2071 79.281 1.652ZM11.167 1.652C7.16288 1.652 3.73715 3.74303 1.91307 6.67936C0.355919 9.43774 0 13.8867 0 16.8231C0 19.7594 0.355919 24.2529 1.91307 26.9668C3.69266 29.9031 7.11839 31.9941 11.167 31.9941H69.8047C73.8088 31.9941 77.2345 29.9031 79.0586 26.9668C80.6157 24.2529 80.9717 19.7594 80.9717 16.8231C80.9717 13.8867 80.6157 9.39325 79.0586 6.67936C77.279 3.74303 73.8533 1.652 69.8047 1.652H11.167Z" fill="#0094A1"/>
<path d="M50.1846 15.1769H55.123V15.0435C55.123 12.7745 54.2332 12.641 52.5871 12.641C50.585 12.5965 50.2291 13.2194 50.1846 15.1769ZM15.527 12.73C17.1286 12.73 18.0184 12.908 18.0184 15.088V15.1769H13.169C13.2135 13.3084 13.6139 12.73 15.527 12.73ZM8.67554 16.912C8.67554 22.2063 10.0102 24.1194 15.616 24.1194C17.707 24.1194 19.3976 23.9415 20.6433 23.2741C21.8001 22.6068 22.5119 21.45 22.5119 19.359H18.1074C18.0629 20.8716 17.0396 21.0496 15.616 21.0496C13.5694 21.0496 13.169 20.2043 13.169 17.6684V17.5794H22.5119V16.912C22.5119 11.1284 20.9548 9.66019 15.616 9.66019C9.92125 9.66019 8.67554 11.4398 8.67554 16.912ZM25.4927 14.2871C25.4927 17.1345 26.4715 18.4247 32.4332 18.4247C32.967 18.4247 33.8123 18.3802 34.3017 18.6027C34.7466 18.8251 34.9691 19.2255 34.9691 19.9374C34.9691 21.1831 34.5242 21.3165 32.3887 21.3165C31.2319 21.3165 30.0307 21.2721 29.9417 19.7149H25.4927C25.5372 22.8292 27.0054 23.8525 29.7638 24.0749C30.6091 24.1194 31.4989 24.1194 32.4332 24.1194C36.2148 24.1194 39.3736 23.4965 39.3736 19.4035C39.3736 15.4884 37.327 15.2214 32.4332 15.088C29.9862 15.0435 29.8527 14.5096 29.8527 13.7088C29.8527 12.7745 29.9417 12.4631 32.4332 12.4631C33.323 12.4631 34.2572 12.552 34.4352 13.6643H38.6617V13.0859C38.6617 9.70468 35.1026 9.66019 32.4332 9.66019C28.3846 9.66019 25.4927 9.74917 25.4927 14.2871ZM62.3304 9.66019H73.3639V12.908H70.0716V23.9859H65.5781V12.908H62.2859V9.66019H62.3304ZM45.7801 16.8231C45.7801 11.3508 46.9814 9.6157 52.6761 9.6157C57.9704 9.6157 59.5275 11.0394 59.5275 16.8231V17.4459H50.1846V17.5794C50.1846 20.1153 50.585 21.0051 52.6761 21.0051C54.0553 21.0051 55.123 20.8716 55.212 19.3145H59.5275C59.483 21.3165 58.8157 22.4733 57.6589 23.1406C56.4577 23.808 54.7671 23.9859 52.6761 23.9859C47.1148 23.9859 45.7801 22.1174 45.7801 16.8231ZM5.42777 26.6553C3.15878 24.2084 2.6694 20.4267 2.6694 16.8231C2.6694 13.2194 3.15878 9.43774 5.42777 6.99079C6.85145 5.47813 9.60982 4.3214 11.9233 4.3214H42.132V29.3247H11.9233C9.56533 29.3247 6.85145 28.168 5.42777 26.6553Z" fill="white"/>
</g>
<defs>
<clipPath id="clip0_72_1512">
<rect width="80.9717" height="32" fill="white"/>
</clipPath>
</defs>
</svg>
