<svg width="99" height="24" viewBox="0 0 99 24" fill="none" xmlns="http://www.w3.org/2000/svg">
<g clip-path="url(#clip0_52_1937)">
<path d="M52.8458 7.99677H55.0491V14.1258C55.0491 17.2369 53.3346 19.0213 50.3476 19.0213C47.3917 19.0213 45.6927 17.2679 45.6927 14.2111V8.00453H47.896V14.1413C47.896 15.9568 48.7882 16.9265 50.3787 16.9265C51.9691 16.9265 52.8458 15.98 52.8458 14.2189V7.99677ZM40.4326 12.3724H35.4518V7.99677H33.2484V18.8583H35.4518V14.4439H40.4248V18.8583H42.6282V7.99677H40.4248V12.3724H40.4326ZM95.6094 7.99677V18.8428H97.7817V7.99677H95.6094ZM86.9589 14.1801H90.9699V12.2018H86.9589V9.97513H92.7776V8.00453H84.7866V18.8506H92.9871V16.8722H86.9589V14.1801ZM78.3162 15.4602L75.849 7.98901H74.0491L71.582 15.4602L69.1847 7.99677H66.8417L70.6277 18.8506H72.4509L74.9181 11.7207L77.3852 18.8506H79.2239L83.0022 7.99677H80.7135L78.3162 15.4602ZM62.9238 8.05884L67.6641 18.8506H65.3521L64.3746 16.5929H59.4015L59.3317 16.7481L58.4162 18.8506H56.1663L60.9532 7.99677H62.8772L62.9238 8.05884ZM63.4513 14.3741L61.8842 10.7354L60.3248 14.3741L60.2161 14.6223H63.5522L63.4513 14.3741Z" fill="#24272A"/>
<path d="M11.5563 17.7023C11.5873 17.6791 11.5951 17.6325 11.5796 17.5937C9.4403 12.9956 6.77149 8.66306 3.62736 4.68397C3.62736 4.68397 1.1292 7.058 1.30764 9.43978C1.34943 9.9889 1.49908 10.5244 1.74803 11.0156C1.99697 11.5068 2.34032 11.9442 2.75843 12.3026C4.9385 14.4283 10.2141 17.1127 11.4399 17.7256C11.4787 17.7411 11.5253 17.7334 11.5563 17.7023ZM10.7417 19.5178C10.7262 19.4712 10.6796 19.4402 10.6253 19.4402L1.84296 19.7428C2.79722 21.4418 4.40318 22.7607 6.07121 22.3573C7.22719 22.0702 9.83397 20.247 10.6951 19.6264C10.765 19.5721 10.7417 19.5255 10.7417 19.5178ZM10.8736 18.7342C10.9201 18.6644 10.8425 18.6023 10.8425 18.6023C6.98669 15.9955 -0.492281 11.9923 -0.492281 11.9923C-0.740174 12.7521 -0.809521 13.5588 -0.694932 14.3498C-0.580342 15.1407 -0.284903 15.8946 0.168424 16.5529C0.621751 17.2111 1.22075 17.7559 1.91888 18.145C2.61701 18.5341 3.39545 18.7569 4.19371 18.7963C4.3256 18.8195 9.41502 18.7963 10.7805 18.7885C10.8193 18.7807 10.8503 18.7652 10.8736 18.7342ZM11.4554 0.890174C11.0753 0.921207 10.0434 1.16171 10.0434 1.16171C7.71596 1.7591 7.16513 3.87711 7.16513 3.87711C6.73842 5.20377 7.17288 6.67008 7.17288 6.67008C7.94871 10.1148 11.7658 15.786 12.5882 16.9731C12.6425 17.0351 12.689 17.0119 12.689 17.0119C12.7356 16.9963 12.7744 16.9575 12.7744 16.9032C14.0467 4.24174 11.4554 0.890174 11.4554 0.890174ZM14.3648 16.9963C14.4113 17.0119 14.4657 16.9963 14.4889 16.9498C15.3346 15.7317 19.1284 10.0915 19.9042 6.66232C19.9042 6.66232 20.3231 5.00205 19.9197 3.86935C19.9197 3.86935 19.3456 1.72031 17.0181 1.15396C17.0181 1.15396 16.3509 0.983273 15.6372 0.882416C15.6372 0.882416 13.0304 4.23399 14.3027 16.8955C14.295 16.942 14.326 16.9808 14.3648 16.9963ZM16.444 19.4479C16.4233 19.4521 16.4037 19.4605 16.3864 19.4725C16.369 19.4845 16.3543 19.4999 16.3432 19.5178C16.3354 19.5643 16.3432 19.6031 16.3742 19.6341C17.2121 20.2393 19.7645 22.0237 20.9904 22.3651C20.9904 22.3651 23.2635 23.1409 25.2341 19.7505L16.444 19.4479ZM27.5771 11.9767C27.5771 11.9767 20.1137 15.9878 16.2501 18.5945C16.2113 18.6256 16.188 18.6721 16.2035 18.7187C16.2035 18.7187 16.2423 18.7885 16.2966 18.7885C17.6776 18.7885 22.9066 18.7963 23.0463 18.773C23.5661 18.7342 24.0781 18.6178 24.5592 18.4239C24.5592 18.4239 26.4211 17.8342 27.3832 15.7162C27.3832 15.7162 28.2443 13.9939 27.5771 11.9767ZM15.5441 17.7023C15.5751 17.7256 15.6216 17.7334 15.6604 17.7101C16.9173 17.0817 22.1541 14.4206 24.3186 12.3026C24.3186 12.3026 25.6919 11.2009 25.7617 9.42427C25.9169 6.9649 23.442 4.68397 23.442 4.68397C23.442 4.68397 18.8646 10.2311 15.5053 17.5627C15.4999 17.5874 15.5006 17.613 15.5073 17.6373C15.5141 17.6617 15.5267 17.684 15.5441 17.7023Z" fill="#CE0E2D"/>
</g>
<defs>
<clipPath id="clip0_52_1937">
<rect width="98.6667" height="24" fill="white"/>
</clipPath>
</defs>
</svg>
