<svg width="80" height="32" viewBox="0 0 80 32" fill="none" xmlns="http://www.w3.org/2000/svg">
<g clip-path="url(#clip0_113_3282)">
<path d="M0 0V2.18936H15.5718V0H0ZM17.7781 0V2.18936H39.9687C39.9687 2.18936 37.7021 0 34.7 0H17.7781ZM44.3218 0V2.18936H57.7468L56.95 0H44.3218ZM67.3718 0L66.575 2.18936H79.8781V0H67.3718ZM0 4.25776V6.44712H15.5718V4.25776H0ZM17.7781 4.26088V6.4472H42.5437C42.5437 6.4472 42.2545 4.76216 41.7499 4.26088H17.7781ZM44.3218 4.26088V6.4472H59.2187L58.4812 4.26088H44.3218ZM65.7781 4.26088L65.0406 6.4472H79.8781V4.26088H65.7781ZM4.47496 8.51552V10.708H11.2187V8.51552H4.47496ZM22.2531 8.51552V10.708H28.9969V8.51552H22.2531ZM35.5562 8.51552V10.708H42.3C42.3 10.708 42.7282 9.55016 42.7282 8.51552H35.5562ZM48.7969 8.51552V10.708H60.7531L59.9562 8.51552H48.7969ZM64.3094 8.51552L63.5094 10.708H75.525V8.51552H64.3094ZM4.47496 12.7765V14.9658H11.2187V12.7765H4.47496ZM22.2531 12.7765V14.9658H39.4781C39.4781 14.9658 40.919 13.8425 41.3781 12.7765H22.2531ZM48.7969 12.7765V14.9658H55.5406V13.7471L55.9688 14.9658H68.3219L68.7813 13.7471V14.9658H75.525V12.7765H62.8656L62.1938 14.6309L61.5187 12.7765H48.7969ZM4.47496 17.0342V19.2236H11.2187V17.0342H4.47496ZM22.2531 17.0342V19.2236H41.3781C40.919 18.1611 39.4781 17.0342 39.4781 17.0342H22.2531ZM48.7969 17.0342V19.2236H55.5406V17.0342H48.7969ZM56.7656 17.0342L57.5812 19.2236H66.8437L67.6187 17.0342H56.7656ZM68.7812 17.0342V19.2236H75.525V17.0342H68.7812ZM4.47496 21.292V23.4813H11.2187V21.292H4.47496ZM22.2531 21.292V23.4813H28.9969V21.292H22.2531ZM35.5562 21.292V23.4813H42.7281C42.7281 22.4481 42.2999 21.292 42.2999 21.292H35.5562ZM48.7969 21.292V23.4813H55.5406V21.292H48.7969ZM58.2969 21.292L59.0875 23.4813H65.2969L66.0938 21.292H58.2969ZM68.7812 21.292V23.4813H75.525V21.292H68.7812ZM0.12184 25.5498V27.7422H15.6937V25.5498H0.12184ZM17.7781 25.5498V27.7422H41.7499C42.2545 27.2402 42.5437 25.5498 42.5437 25.5498H17.7781ZM44.4438 25.5498V27.7422H55.5406V25.5498H44.4438ZM59.8312 25.5498L60.6437 27.7422H63.803L64.5655 25.5498H59.8312ZM68.7812 25.5498V27.7422H80V25.5498H68.7812ZM0.12184 29.8106V32H15.6937V29.8106H0.12184ZM17.7781 29.8106V31.9969H34.7C37.7021 31.9969 39.9687 29.8106 39.9687 29.8106H17.7781ZM44.4438 29.8106V32H55.5406V29.8106H44.4438ZM61.3718 29.8106L62.1531 31.9938L62.2875 31.9969L63.0813 29.8106H61.3718ZM68.7812 29.8106V32H80V29.8106H68.7812Z" fill="#1F70C1"/>
</g>
<defs>
<clipPath id="clip0_113_3282">
<rect width="80" height="32" fill="white"/>
</clipPath>
</defs>
</svg>
