<svg width="96" height="20" viewBox="0 0 96 20" fill="none" xmlns="http://www.w3.org/2000/svg">
<g clip-path="url(#clip0_72_1517)">
<path d="M39.9167 4.38769C38.197 4.38769 36.2413 5.1848 35.0463 6.78076L35.047 6.77768L35.0463 6.77845L35.047 4.63819H30.9455V19.5748H35.0463V11.0757C35.0463 9.54613 36.2322 7.91996 38.4283 7.91996C40.1253 7.91996 41.8815 9.10053 41.8815 11.0757V19.5748H45.9831V10.3157C45.9831 6.88023 43.5252 4.38769 39.9167 4.38769ZM75.1342 4.63896L71.4263 14.8133L67.7183 4.63896H63.033L69.1786 19.5708H73.6731L79.8188 4.63896H75.1342ZM18.7007 9.13862C19.3991 8.20067 20.5118 7.65002 21.8555 7.65002C23.3335 7.65002 24.4548 8.49408 25.0345 9.74007L17.8688 12.713C17.6731 11.1873 18.0635 9.99403 18.7007 9.13862ZM26.5805 14.9826C24.8543 16.2601 23.868 16.5649 22.2938 16.5649C20.8772 16.5649 19.768 16.1251 18.9861 15.3537L29.4719 11.0038C29.2429 9.38278 28.6276 7.93458 27.681 6.83348C26.3032 5.23348 24.264 4.38692 21.7811 4.38692C17.2712 4.38692 13.8705 7.7139 13.8705 12.1083C13.8705 16.6166 17.2793 19.8288 22.2332 19.8288C25.0088 19.8288 27.8467 18.5133 29.1742 16.9764L26.5805 14.9826ZM13.4796 15.8088H4.15758V0.171234H0V19.5748H13.4796V15.8088ZM87.1837 7.90168C84.8931 7.90168 83.2298 9.63752 83.2298 12.1068C83.2298 14.4645 84.9916 16.3119 87.2387 16.3119C89.53 16.3119 91.1923 14.5283 91.1923 12.1068C91.1923 9.74911 89.4313 7.90168 87.1837 7.90168ZM87.1837 19.8266C82.698 19.8266 79.1833 16.4848 79.1833 12.1068C79.1833 7.77778 82.7223 4.38692 87.2387 4.38692C91.7243 4.38692 95.2381 7.72852 95.2381 12.1068C95.2381 16.4348 91.6999 19.8266 87.1837 19.8266ZM55.6052 7.90168C53.3147 7.90168 51.6523 9.63752 51.6523 12.1068C51.6523 14.4645 53.4134 16.3119 55.661 16.3119C57.9515 16.3119 59.6139 14.5283 59.6139 12.1068C59.6139 9.74911 57.8528 7.90168 55.6052 7.90168ZM55.6052 19.8266C51.1196 19.8266 47.6058 16.4848 47.6058 12.1068C47.6058 7.77778 51.1438 4.38692 55.661 4.38692C60.1458 4.38692 63.6604 7.72852 63.6604 12.1068C63.6604 16.4348 60.1216 19.8266 55.6052 19.8266Z" fill="#E60012"/>
</g>
<defs>
<clipPath id="clip0_72_1517">
<rect width="95.2381" height="20" fill="white"/>
</clipPath>
</defs>
</svg>
