<svg width="116" height="26" viewBox="0 0 116 26" fill="none" xmlns="http://www.w3.org/2000/svg">
<g clip-path="url(#clip0_28_312)">
<path d="M41.1186 14.8518L40.4343 16.7791H40.3772C40.2632 16.3445 40.0541 15.6831 39.7119 14.8895L36.0428 5.7253H32.4498V20.3314H34.8262V11.3183C34.8262 10.7515 34.8262 10.109 34.8071 9.31542C34.7881 8.91861 34.7501 8.61629 34.7311 8.38954H34.7881C34.9022 8.9564 35.0353 9.3721 35.1303 9.63664L39.5408 20.2936H41.2137L45.5861 9.54216C45.6812 9.29652 45.7762 8.80524 45.8713 8.38954H45.9283C45.8713 9.46658 45.8332 10.4302 45.8142 11.016V20.2747H48.3426V5.68751H44.8827L41.1186 14.8518ZM50.738 9.80669H53.2093V20.2747H50.738V9.80669ZM51.9927 5.38518C51.5744 5.38518 51.2322 5.53635 50.9471 5.80088C50.6619 6.06542 50.5098 6.40553 50.5098 6.82123C50.5098 7.21803 50.6619 7.55815 50.9471 7.82268C51.2322 8.08722 51.5744 8.21949 51.9927 8.21949C52.4109 8.21949 52.7721 8.06832 53.0382 7.82268C53.3234 7.55815 53.4755 7.21803 53.4755 6.82123C53.4755 6.42443 53.3234 6.08431 53.0382 5.80088C52.7911 5.53635 52.4299 5.38518 51.9927 5.38518ZM61.9732 9.71222C61.5169 9.61774 61.0417 9.56105 60.5854 9.56105C59.4638 9.56105 58.4372 9.80669 57.5817 10.298C56.7263 10.7893 56.0419 11.4695 55.6047 12.3198C55.1484 13.189 54.9203 14.1904 54.9203 15.343C54.9203 16.3445 55.1484 17.2326 55.5856 18.0451C56.0229 18.8387 56.6312 19.4811 57.4487 19.9157C58.2281 20.3503 59.1406 20.577 60.1672 20.577C61.3458 20.577 62.3534 20.3314 63.1518 19.8779L63.1708 19.859V17.5916L63.0758 17.6672C62.7146 17.9317 62.2964 18.1584 61.8781 18.2907C61.4409 18.4419 61.0417 18.5175 60.6995 18.5175C59.7109 18.5175 58.9315 18.234 58.3802 17.6105C57.8099 17.0058 57.5247 16.1744 57.5247 15.1352C57.5247 14.0581 57.8099 13.2079 58.3992 12.5843C58.9885 11.9608 59.768 11.6395 60.7185 11.6395C61.5169 11.6395 62.3344 11.9041 63.0758 12.4331L63.1708 12.5087V10.109L63.1518 10.0901C62.8287 9.95786 62.4674 9.80669 61.9732 9.71222ZM70.1287 9.63664C69.5203 9.63664 68.95 9.82559 68.4558 10.2224C68.0375 10.5625 67.7524 11.0538 67.5052 11.6395H67.4862V9.80669H65.0149V20.2747H67.4862V14.9273C67.4862 14.0204 67.6763 13.2645 68.0946 12.7166C68.5128 12.1497 69.0451 11.8663 69.6914 11.8663C69.9196 11.8663 70.1477 11.923 70.4329 11.9608C70.699 12.0363 70.8891 12.1119 71.0222 12.2064L71.1172 12.282V9.82559L71.0602 9.80669C70.8891 9.69332 70.5469 9.63664 70.1287 9.63664ZM76.8584 9.57995C75.1285 9.57995 73.7407 10.0901 72.7712 11.0916C71.7826 12.093 71.3073 13.4724 71.3073 15.2108C71.3073 16.8358 71.8016 18.1584 72.7521 19.1221C73.7027 20.0669 74.9954 20.5581 76.6113 20.5581C78.3032 20.5581 79.653 20.048 80.6225 19.0276C81.611 18.0073 82.0863 16.6468 82.0863 14.9651C82.0863 13.3023 81.6301 11.9797 80.6985 11.016C79.805 10.0523 78.4933 9.57995 76.8584 9.57995ZM78.8355 17.6294C78.3793 18.2151 77.6569 18.4986 76.7634 18.4986C75.8699 18.4986 75.1475 18.2151 74.6342 17.5916C74.1209 17.0058 73.8738 16.1555 73.8738 15.0785C73.8738 13.9637 74.1399 13.1134 74.6342 12.5087C75.1475 11.9041 75.8509 11.6018 76.7444 11.6018C77.6188 11.6018 78.3032 11.8852 78.7975 12.4709C79.2918 13.0567 79.5579 13.907 79.5579 15.0218C79.5199 16.1555 79.3108 17.0436 78.8355 17.6294ZM87.5994 14.1526C86.8199 13.8314 86.3256 13.5858 86.0975 13.3779C85.9074 13.189 85.8124 12.9244 85.8124 12.5843C85.8124 12.3009 85.9264 12.0174 86.2116 11.8285C86.4967 11.6395 86.8199 11.5451 87.2952 11.5451C87.7134 11.5451 88.1507 11.6206 88.5689 11.734C88.9871 11.8474 89.3673 12.0175 89.6715 12.2442L89.7666 12.3198V10.0145L89.7095 9.99565C89.4244 9.88228 89.0442 9.7689 88.5879 9.67443C88.1316 9.59885 87.7134 9.56105 87.3712 9.56105C86.1926 9.56105 85.223 9.84448 84.4626 10.468C83.7022 11.0538 83.341 11.8474 83.341 12.7733C83.341 13.2645 83.417 13.6991 83.5881 14.0581C83.7592 14.4172 84.0064 14.7573 84.3486 15.0407C84.6907 15.3052 85.185 15.6076 85.8694 15.891C86.4397 16.1366 86.8769 16.3256 87.1431 16.4768C87.4092 16.6279 87.5803 16.798 87.7134 16.9302C87.8085 17.0814 87.8655 17.2704 87.8655 17.516C87.8655 18.2151 87.3332 18.5552 86.2496 18.5552C85.8314 18.5552 85.3941 18.4797 84.8808 18.3096C84.3676 18.1395 83.8923 17.8939 83.4931 17.6105L83.398 17.5349V19.9346L83.4551 19.9535C83.8163 20.1236 84.2535 20.2369 84.7858 20.3692C85.3181 20.4637 85.7934 20.5393 86.2116 20.5393C87.4853 20.5393 88.5309 20.2558 89.2723 19.6323C90.0327 19.0276 90.4319 18.2529 90.4319 17.2515C90.4319 16.5523 90.2418 15.9288 89.8236 15.4564C89.2723 15.0029 88.5879 14.5305 87.5994 14.1526ZM96.9525 9.57995C95.2226 9.57995 93.8348 10.0901 92.8653 11.0916C91.8957 12.093 91.4015 13.4724 91.4015 15.2108C91.4015 16.8358 91.8957 18.1584 92.8463 19.1221C93.7968 20.0669 95.0895 20.5581 96.7054 20.5581C98.3973 20.5581 99.7471 20.048 100.717 19.0276C101.705 18.0073 102.18 16.6468 102.18 14.9651C102.18 13.3023 101.724 11.9797 100.793 11.016C99.8992 10.0523 98.5874 9.57995 96.9525 9.57995ZM98.9106 17.6294C98.4544 18.2151 97.732 18.4986 96.8385 18.4986C95.926 18.4986 95.2226 18.2151 94.7093 17.5916C94.196 17.0058 93.9489 16.1555 93.9489 15.0785C93.9489 13.9637 94.215 13.1134 94.7093 12.5087C95.2226 11.9041 95.926 11.6018 96.8195 11.6018C97.6749 11.6018 98.3783 11.8852 98.8726 12.4709C99.3669 13.0567 99.633 13.907 99.633 15.0218C99.633 16.1555 99.3859 17.0436 98.9106 17.6294ZM115.393 11.8285V9.80669H112.902V6.70786L112.826 6.72675L110.469 7.42588L110.412 7.44478V9.80669H106.686V8.48402C106.686 7.87937 106.838 7.40699 107.104 7.10466C107.37 6.80233 107.77 6.65117 108.264 6.65117C108.606 6.65117 108.967 6.72675 109.366 6.89681L109.461 6.9535V4.81832L109.404 4.79943C109.062 4.68606 108.606 4.61047 108.017 4.61047C107.275 4.61047 106.629 4.78053 106.04 5.06396C105.45 5.38518 105.013 5.81978 104.69 6.40553C104.367 6.97239 104.196 7.61483 104.196 8.35175V9.80669H102.466V11.8096H104.196V20.2747H106.686V11.8285H110.412V17.2137C110.412 19.4244 111.458 20.5393 113.549 20.5393C113.891 20.5393 114.252 20.4826 114.594 20.4259C114.955 20.3503 115.222 20.2558 115.374 20.1802L115.393 20.1613V18.1395L115.298 18.2151C115.146 18.3096 115.013 18.3852 114.784 18.4419C114.594 18.4986 114.423 18.5175 114.29 18.5175C113.796 18.5175 113.454 18.4041 113.207 18.1206C112.978 17.8561 112.864 17.4215 112.864 16.7791V11.8285H115.393Z" fill="#737373"/>
<path d="M0.588226 0.8125H12.2417V12.3953H0.588226V0.8125Z" fill="#F25022"/>
<path d="M13.4583 0.8125H25.1117V12.3953H13.4583V0.8125Z" fill="#7FBA00"/>
<path d="M0.588226 13.6046H12.2417V25.1875H0.588226V13.6046Z" fill="#00A4EF"/>
<path d="M13.4583 13.6046H25.1117V25.1875H13.4583V13.6046Z" fill="#FFB900"/>
</g>
<defs>
<clipPath id="clip0_28_312">
<rect width="114.824" height="24.375" fill="white" transform="translate(0.588226 0.8125)"/>
</clipPath>
</defs>
</svg>
