<svg width="113" height="15" viewBox="0 0 113 15" fill="none" xmlns="http://www.w3.org/2000/svg">
<g clip-path="url(#clip0_72_1515)">
<path fill-rule="evenodd" clip-rule="evenodd" d="M48.7807 9.7598H56.2458L52.303 3.26005L45.0537 15H41.7568L50.5736 0.915079C50.7657 0.633924 51.0215 0.404024 51.3186 0.244225C51.6156 0.0851798 51.946 3.92529e-06 52.2815 -0.00225738C52.6178 -0.00451869 52.9489 0.0753808 53.2482 0.230657C53.5475 0.385934 53.8062 0.612064 54.002 0.890205L62.8432 15H59.5471L57.9943 12.3754H50.4413L48.7954 9.7598M83.0339 12.3897H96.0773L94.4175 15.0151H81.6822C81.5876 15.0151 81.493 15.006 81.3999 14.9872C81.3075 14.9683 81.2166 14.9405 81.1294 14.9028C81.0422 14.8658 80.9587 14.8199 80.8804 14.7656C80.802 14.7113 80.7296 14.6487 80.6631 14.5802C80.5973 14.5153 80.5382 14.4445 80.4865 14.3676C80.434 14.2915 80.3904 14.2093 80.3542 14.1234C80.3187 14.0382 80.2913 13.9485 80.2736 13.8573C80.2559 13.7661 80.2463 13.6734 80.247 13.5799V0.140205H83.0487V12.3754L83.0339 12.3897ZM35.4675 10.1902L41.0813 15H37.0202L28.6639 7.5799H36.5554C37.1799 7.5799 37.7792 7.32664 38.2212 6.87588C38.6631 6.42438 38.9107 5.81307 38.9107 5.17538C38.9107 4.53694 38.6631 3.92563 38.2212 3.47412C37.7792 3.02337 37.1799 2.7701 36.5554 2.7701H27.2782V15H24.4809V0.140205L36.7268 0.165079C38.0253 0.165079 39.2714 0.691964 40.19 1.62965C41.1086 2.56734 41.6245 3.83895 41.6245 5.16483C41.6245 6.49146 41.1086 7.76307 40.19 8.70076C39.2714 9.63845 38.0253 10.1653 36.7268 10.1902H35.4675ZM7.27885 15C5.31595 15.052 3.4166 14.2922 2.0102 12.894C0.604534 11.4957 -0.188461 9.57664 -0.188461 7.57237C-0.188461 5.56885 0.604534 3.64975 2.0102 2.25076C3.4166 0.852517 5.31595 0.0927175 7.27885 0.144728H15.738C17.6351 0.19523 19.4376 0.999501 20.762 2.38719C22.0864 3.77488 22.8276 5.63518 22.8276 7.57237C22.8276 9.50955 22.0864 11.3706 20.762 12.7575C19.4376 14.1452 17.6351 14.9495 15.738 15H7.27885ZM15.5465 12.3852C16.8221 12.4266 18.06 11.9389 18.9765 11.0329C19.8929 10.1269 20.4109 8.88015 20.4109 7.57764C20.4109 6.27513 19.8929 5.0284 18.9765 4.12161C18.06 3.21558 16.8221 2.72789 15.5465 2.7701H7.46509C6.24197 2.81005 5.08241 3.33468 4.23177 4.23166C3.38039 5.12865 2.90444 6.32865 2.90444 7.57764C2.90444 8.82664 3.38039 10.0259 4.23177 10.9236C5.08241 11.8206 6.24197 12.3445 7.46509 12.3852H15.5465ZM68.6869 15C66.7247 15.052 64.8246 14.2922 63.4189 12.894C62.0125 11.4957 61.2195 9.57664 61.2195 7.57237C61.2195 5.56885 62.0125 3.64975 63.4189 2.25076C64.8246 0.852517 66.7247 0.0927175 68.6869 0.144728H78.7379L77.0824 2.7701H68.8783C67.6027 2.72789 66.3655 3.21558 65.4484 4.12161C64.5319 5.0284 64.0139 6.27513 64.0139 7.57764C64.0139 8.88015 64.5319 10.1269 65.4484 11.0329C66.3655 11.9389 67.6027 12.4266 68.8783 12.3852H78.9588L77.3226 15H68.6869ZM102.905 12.3799H112.996L111.355 14.9947H102.72C100.823 14.945 99.0195 14.14 97.6951 12.753C96.3708 11.3653 95.6295 9.50503 95.6295 7.56784C95.6295 5.63066 96.3708 3.7696 97.6951 2.38191C99.0195 0.994979 100.823 0.189954 102.72 0.140205H112.761L111.12 2.76483H102.911C102.401 2.76407 101.894 2.8485 101.411 3.01357C100.927 3.17865 100.473 3.42287 100.067 3.73719C99.6602 4.05076 99.3055 4.4299 99.018 4.85955C98.7305 5.2892 98.5132 5.76407 98.375 6.26533H111.982L110.336 8.88468H98.375C98.514 9.38593 98.7313 9.86005 99.0187 10.2897C99.307 10.7194 99.661 11.0985 100.067 11.4121C100.474 11.7256 100.928 11.9699 101.411 12.1357C101.894 12.3008 102.401 12.3852 102.911 12.3852L102.905 12.3799Z" fill="#C74634"/>
</g>
<defs>
<clipPath id="clip0_72_1515">
<rect width="113" height="15" fill="white"/>
</clipPath>
</defs>
</svg>
