<svg width="97" height="32" viewBox="0 0 97 32" fill="none" xmlns="http://www.w3.org/2000/svg">
<path d="M96.3253 7.61849C95.0147 0.0931409 72.4036 -2.25529 45.8201 2.37292C34.6559 4.31763 24.5753 7.18596 16.7249 10.4129C17.9308 10.4393 18.8252 10.7158 19.3686 11.2578C19.7934 11.6831 20.008 12.2669 20.008 12.9941V13.7406H17.4013V13.0815C17.4013 12.5323 17.072 12.192 16.4887 12.192C15.9986 12.192 15.6966 12.4133 15.5992 12.8492C15.5665 13.0215 15.5701 13.1987 15.6097 13.3695C15.8887 14.5097 19.7593 15.2178 20.1804 17.3218C20.2356 17.5926 20.3104 18.172 20.1924 19.0011C19.9509 20.6981 18.4598 21.3529 16.5617 21.3529C13.9123 21.3529 12.836 20.098 12.836 18.3679L12.8379 17.5494H15.6323L15.6337 18.569C15.6337 19.1422 16.0504 19.4586 16.6179 19.4586C17.1555 19.4586 17.4695 19.2421 17.578 18.7995C17.6284 18.5959 17.6505 18.2959 17.5588 18.0664C17.0417 16.7693 13.4274 16.1635 12.9824 14.0661C12.883 13.5947 12.8749 13.1934 12.9574 12.6859C12.9998 12.4344 13.0777 12.1902 13.1888 11.9606C4.48111 16.0329 -0.612761 20.5137 0.0602768 24.3825C1.37227 31.9088 23.9829 34.2548 50.5659 29.6266C62.2514 27.5926 72.757 24.5476 80.7523 21.1354C80.6366 21.1412 80.5243 21.1536 80.4042 21.1536C78.5848 21.1536 76.9603 20.472 76.7918 18.6122C76.7621 18.2738 76.7568 18.1322 76.7558 17.9392L76.7568 13.6638C76.7568 13.4795 76.7784 13.1559 76.799 12.9889C77.0146 11.1915 78.4355 10.4503 80.4052 10.4503C81.9294 10.4503 83.7982 10.8877 84.0037 12.9903C84.0311 13.2543 84.0282 13.5361 84.0277 13.6288V14.0325H81.3951V13.43C81.3951 13.4171 81.3912 13.1919 81.3624 13.0513C81.3192 12.8367 81.1363 12.3393 80.3865 12.3393C79.6458 12.3393 79.4537 12.8376 79.4057 13.0518C79.3784 13.1694 79.3654 13.3383 79.3654 13.5256V18.172C79.363 18.3333 79.3712 18.4596 79.3875 18.5522C79.4004 18.6252 79.5334 19.2656 80.3956 19.2656C81.2515 19.2656 81.384 18.6252 81.396 18.5522C81.4186 18.4265 81.4215 18.2767 81.4205 18.172V16.7323H80.3846V15.1818H84.0479V17.9402C84.0469 18.1279 84.044 18.2666 84.0123 18.6122C83.9682 19.1 83.8146 19.5128 83.5736 19.8657C92.0528 15.8394 96.9897 11.4311 96.3253 7.61849ZM27.3951 20.9559L26.0615 11.8943H26.0135L24.6458 20.9559H21.8351L23.7256 10.7225H28.3115L30.1905 20.9559H27.3951ZM40.9144 20.9559L40.8525 12.0696H40.8074L39.1536 20.9559H36.5157L34.87 12.0696H34.823L34.763 20.9559H32.1491L32.3757 10.7225H36.58L37.8041 18.3242H37.8641L39.0916 10.7225H43.2941L43.5197 20.9559H40.9144ZM53.2235 18.9728C52.9422 20.9549 51.0004 21.3015 49.6279 21.3015C47.3491 21.3015 45.9396 20.3275 45.9396 18.3453L45.9411 17.5369H48.7019L48.7038 18.5441C48.7038 19.0908 49.0893 19.4254 49.6846 19.4254C50.2155 19.4254 50.5266 19.2123 50.6346 18.7745C50.6845 18.5705 50.7051 18.2728 50.6168 18.0482C50.108 16.7755 46.5219 16.1519 46.0861 14.0872C45.9862 13.6192 45.979 13.2217 46.0611 12.7196C46.3645 10.8478 48.1609 10.459 49.6068 10.459C50.9 10.459 51.8414 10.7412 52.406 11.3058C52.827 11.7273 53.0401 12.3057 53.0401 13.0253V13.7637H50.4584V13.1122C50.4584 12.5544 50.1123 12.2318 49.5559 12.2318C49.0624 12.2318 48.7638 12.4512 48.6659 12.8828C48.6341 13.0533 48.6383 13.2286 48.6784 13.3974C48.9549 14.5322 52.7915 15.2259 53.2115 17.3103C53.2658 17.5763 53.3402 18.1471 53.2235 18.9728ZM62.7853 18.0429C62.7891 18.2349 62.7704 18.6185 62.7598 18.7169C62.6024 20.4028 61.3965 21.2597 59.1848 21.2597C56.9646 21.2597 55.7577 20.4028 55.6012 18.7169C55.5835 18.4933 55.575 18.2691 55.5758 18.0448V10.7201H58.217V18.2757C58.2142 18.4447 58.2228 18.5695 58.2396 18.6564C58.2723 18.8244 58.4393 19.3698 59.1848 19.3698C59.928 19.3698 60.095 18.8239 60.1301 18.6583C60.145 18.569 60.1541 18.438 60.1541 18.2752V10.7201H62.7853V18.0429ZM74.165 20.8517H70.4897L68.0227 12.746H67.9814L68.1182 20.8517H65.5566V10.7225H69.386L71.6663 18.509H71.7196L71.5847 10.7225H74.165V20.8517Z" fill="#2D4F9E"/>
</svg>
