<svg width="163" height="43" viewBox="0 0 163 43" fill="none" xmlns="http://www.w3.org/2000/svg">
    <rect x="0.743896" y="0.743896" width="42" height="42" rx="11.76" fill="#3074DA"/>
    <rect x="0.743896" y="0.743896" width="42" height="42" rx="11.76" fill="url(#paint0_linear_28_166)"
          fill-opacity="0.2"/>
    <path fill-rule="evenodd" clip-rule="evenodd"
          d="M23.3317 20.5147L25.2268 17.2366L22.2049 11.961L20.3097 8.68298L18.4146 11.961L9.55363 27.2757L7.65851 30.5537H11.3463L16.3146 22.1537L20.3097 15.2391L23.3317 20.5147Z"
          fill="white"/>
    <path fill-rule="evenodd" clip-rule="evenodd"
          d="M32.3464 12.7295L27.3781 21.1295L23.383 27.9929L20.361 22.7685L18.4659 26.0466L21.4878 31.271L23.383 34.6002L25.2781 31.271L34.1391 16.0075L36.0342 12.7295H32.3464Z"
          fill="white"/>
    <path d="M71.4104 20.317H67.9685L60.1749 8.54063V20.317H56.733V3.13185H60.1749L67.9685 14.9328V3.13185H71.4104V20.317ZM85.3344 17.0472H78.4996L77.3687 20.317H73.7547L79.9256 3.13185H83.933L90.1039 20.317H86.4653L85.3344 17.0472ZM84.4001 14.2936L81.917 7.11468L79.4339 14.2936H84.4001ZM111.12 3.15644V20.317H107.678V9.15526L103.081 20.317H100.475L95.8525 9.15526V20.317H92.4105V3.15644H96.3196L101.778 15.9162L107.236 3.15644H111.12ZM125.045 17.0472H118.211L117.08 20.317H113.466L119.637 3.13185H123.644L129.815 20.317H126.176L125.045 17.0472ZM124.111 14.2936L121.628 7.11468L119.145 14.2936H124.111ZM143.8 3.15644V5.93458H139.227V20.317H135.785V5.93458H131.212V3.15644H143.8Z"
          fill="white"/>
    <path d="M64.3329 32.4182C64.0358 31.7933 63.6056 31.3119 63.0422 30.9738C62.4788 30.6255 61.8231 30.4514 61.0753 30.4514C60.3275 30.4514 59.6514 30.6255 59.047 30.9738C58.4529 31.3119 57.9817 31.8036 57.6334 32.4489C57.2953 33.084 57.1263 33.8216 57.1263 34.6616C57.1263 35.5016 57.2953 36.2392 57.6334 36.8743C57.9817 37.5094 58.4529 38.0011 59.047 38.3494C59.6514 38.6875 60.3275 38.8565 61.0753 38.8565C62.1202 38.8565 62.9807 38.544 63.6568 37.9192C64.3329 37.2943 64.7273 36.4492 64.84 35.3838H60.5683V34.2467H66.3305V35.3223C66.2485 36.2033 65.9719 37.0126 65.5007 37.7501C65.0295 38.4775 64.4097 39.0562 63.6414 39.4865C62.8731 39.9065 62.0178 40.1165 61.0753 40.1165C60.0817 40.1165 59.1751 39.886 58.3556 39.425C57.5361 38.9538 56.8856 38.3033 56.4041 37.4736C55.9329 36.6438 55.6973 35.7065 55.6973 34.6616C55.6973 33.6167 55.9329 32.6794 56.4041 31.8497C56.8856 31.0097 57.5361 30.3592 58.3556 29.8982C59.1751 29.427 60.0817 29.1914 61.0753 29.1914C62.2124 29.1914 63.2163 29.4731 64.087 30.0365C64.968 30.5999 65.6083 31.3938 66.0078 32.4182H64.3329ZM69.5776 38.8872H73.3268V40.0243H68.1793V29.3143H69.5776V38.8872ZM79.6674 40.1319C78.6738 40.1319 77.7672 39.9014 76.9477 39.4404C76.1281 38.9692 75.4777 38.3187 74.9962 37.4889C74.525 36.6489 74.2894 35.7065 74.2894 34.6616C74.2894 33.6167 74.525 32.6794 74.9962 31.8497C75.4777 31.0097 76.1281 30.3592 76.9477 29.8982C77.7672 29.427 78.6738 29.1914 79.6674 29.1914C80.6713 29.1914 81.583 29.427 82.4025 29.8982C83.222 30.3592 83.8674 31.0045 84.3386 31.8343C84.8099 32.6641 85.0455 33.6065 85.0455 34.6616C85.0455 35.7167 84.8099 36.6592 84.3386 37.4889C83.8674 38.3187 83.222 38.9692 82.4025 39.4404C81.583 39.9014 80.6713 40.1319 79.6674 40.1319ZM79.6674 38.918C80.4152 38.918 81.0862 38.7438 81.6803 38.3955C82.2847 38.0472 82.7559 37.5504 83.094 36.905C83.4423 36.2597 83.6164 35.5119 83.6164 34.6616C83.6164 33.8011 83.4423 33.0533 83.094 32.4182C82.7559 31.7728 82.2899 31.276 81.6957 30.9277C81.1016 30.5794 80.4255 30.4053 79.6674 30.4053C78.9094 30.4053 78.2333 30.5794 77.6391 30.9277C77.045 31.276 76.5738 31.7728 76.2255 32.4182C75.8874 33.0533 75.7184 33.8011 75.7184 34.6616C75.7184 35.5119 75.8874 36.2597 76.2255 36.905C76.5738 37.5504 77.045 38.0472 77.6391 38.3955C78.2435 38.7438 78.9196 38.918 79.6674 38.918ZM92.2541 34.508C92.6434 34.5694 92.9968 34.7282 93.3143 34.9843C93.6421 35.2404 93.8982 35.558 94.0826 35.937C94.2773 36.316 94.3746 36.7206 94.3746 37.1509C94.3746 37.6938 94.2363 38.1855 93.9597 38.626C93.6831 39.0562 93.2785 39.3994 92.7458 39.6555C92.2234 39.9014 91.6036 40.0243 90.8865 40.0243H86.8914V29.3143H90.7329C91.4602 29.3143 92.0799 29.4372 92.5921 29.6831C93.1043 29.9187 93.4885 30.2414 93.7446 30.6511C94.0007 31.0609 94.1287 31.5219 94.1287 32.0341C94.1287 32.6692 93.9546 33.1967 93.6063 33.6167C93.2682 34.0265 92.8175 34.3236 92.2541 34.508ZM88.2897 33.9394H90.6407C91.2963 33.9394 91.8034 33.7858 92.1619 33.4784C92.5204 33.1711 92.6997 32.746 92.6997 32.2031C92.6997 31.6601 92.5204 31.235 92.1619 30.9277C91.8034 30.6204 91.286 30.4667 90.6099 30.4667H88.2897V33.9394ZM90.7636 38.8719C91.4602 38.8719 92.0031 38.708 92.3924 38.3801C92.7816 38.0523 92.9763 37.5965 92.9763 37.0126C92.9763 36.4184 92.7714 35.9523 92.3616 35.6143C91.9519 35.266 91.4038 35.0919 90.7175 35.0919H88.2897V38.8719H90.7636ZM102.646 37.6426H97.9745L97.114 40.0243H95.6389L99.5111 29.3758H101.125L104.981 40.0243H103.506L102.646 37.6426ZM102.246 36.5055L100.31 31.0967L98.374 36.5055H102.246ZM108.067 38.8872H111.816V40.0243H106.669V29.3143H108.067V38.8872ZM123.99 29.3143V30.4514H121.07V40.0243H119.672V30.4514H116.737V29.3143H123.99ZM131.35 40.0243L128.8 35.645H127.109V40.0243H125.711V29.3143H129.168C129.978 29.3143 130.659 29.4526 131.212 29.7292C131.776 30.0058 132.196 30.3797 132.472 30.8509C132.749 31.3221 132.887 31.8599 132.887 32.4643C132.887 33.2019 132.672 33.8523 132.242 34.4158C131.822 34.9792 131.187 35.3531 130.336 35.5375L133.025 40.0243H131.35ZM127.109 34.5233H129.168C129.927 34.5233 130.495 34.3389 130.874 33.9701C131.253 33.5911 131.443 33.0892 131.443 32.4643C131.443 31.8292 131.253 31.3375 130.874 30.9892C130.505 30.6409 129.937 30.4667 129.168 30.4667H127.109V34.5233ZM141.39 37.6426H136.719L135.859 40.0243H134.384L138.256 29.3758H139.869L143.726 40.0243H142.251L141.39 37.6426ZM140.991 36.5055L139.055 31.0967L137.119 36.5055H140.991ZM148.748 29.3143C149.916 29.3143 150.925 29.5345 151.775 29.975C152.636 30.4053 153.291 31.025 153.742 31.8343C154.203 32.6436 154.433 33.5962 154.433 34.6923C154.433 35.7884 154.203 36.7411 153.742 37.5504C153.291 38.3494 152.636 38.964 151.775 39.3943C150.925 39.8143 149.916 40.0243 148.748 40.0243H145.414V29.3143H148.748ZM148.748 38.8719C150.131 38.8719 151.186 38.5082 151.913 37.7809C152.641 37.0433 153.004 36.0138 153.004 34.6923C153.004 33.3606 152.636 32.3209 151.898 31.5731C151.171 30.8253 150.121 30.4514 148.748 30.4514H146.812V38.8719H148.748ZM157.676 30.4514V34.0316H161.579V35.184H157.676V38.8719H162.04V40.0243H156.278V29.2989H162.04V30.4514H157.676Z"
          fill="white"/>
    <defs>
        <linearGradient id="paint0_linear_28_166" x1="0.743897" y1="8.3039" x2="15.2339" y2="25.9439"
                        gradientUnits="userSpaceOnUse">
            <stop stop-color="white"/>
            <stop offset="1" stop-color="white" stop-opacity="0"/>
        </linearGradient>
    </defs>
</svg>
