<svg width="1085" height="157" viewBox="0 0 1085 157" fill="none" xmlns="http://www.w3.org/2000/svg">
    <mask id="path-1-outside-1_1_2" maskUnits="userSpaceOnUse" x="-2" y="-1" width="1088" height="159" fill="black">
        <rect fill="white" x="-2" y="-1" width="1088" height="159"/>
        <path d="M107.856 132.102H57.352L49.862 155H0L55.426 3.488H110.21L165.422 155H115.346L107.856 132.102ZM96.3 96.364L82.604 54.206L68.908 96.364H96.3ZM277.652 77.318C286.782 79.458 293.844 83.8807 298.838 90.586C303.974 97.1487 306.542 104.781 306.542 113.484C306.542 126.752 302.119 137.024 293.274 144.3C284.571 151.433 272.016 155 255.61 155H176.216V3.488H253.47C268.878 3.488 281.004 6.84067 289.85 13.546C298.695 20.2513 303.118 30.024 303.118 42.864C303.118 51.7093 300.764 59.1993 296.056 65.334C291.49 71.326 285.356 75.3207 277.652 77.318ZM223.724 62.552H242.128C246.408 62.552 249.546 61.696 251.544 59.984C253.684 58.272 254.754 55.6327 254.754 52.066C254.754 48.3567 253.684 45.646 251.544 43.934C249.546 42.0793 246.408 41.152 242.128 41.152H223.724V62.552ZM245.338 116.908C249.618 116.908 252.756 116.123 254.754 114.554C256.894 112.842 257.964 110.131 257.964 106.422C257.964 99.146 253.755 95.508 245.338 95.508H223.724V116.908H245.338ZM396.335 156.498C382.068 156.498 368.943 153.145 356.959 146.44C345.117 139.735 335.701 130.461 328.711 118.62C321.72 106.779 318.225 93.4393 318.225 78.602C318.225 63.7647 321.72 50.4253 328.711 38.584C335.701 26.7427 345.117 17.5407 356.959 10.978C368.943 4.27266 382.068 0.919994 396.335 0.919994C410.601 0.919994 423.655 4.27266 435.497 10.978C447.338 17.5407 456.683 26.7427 463.531 38.584C470.521 50.4253 474.017 63.7647 474.017 78.602C474.017 93.4393 470.521 106.779 463.531 118.62C456.683 130.461 447.267 139.735 435.283 146.44C423.441 153.145 410.459 156.498 396.335 156.498ZM396.335 112.2C405.751 112.2 413.027 109.204 418.163 103.212C423.299 97.0773 425.867 88.874 425.867 78.602C425.867 68.1873 423.299 59.984 418.163 53.992C413.027 47.8573 405.751 44.79 396.335 44.79C386.776 44.79 379.429 47.8573 374.293 53.992C369.157 59.984 366.589 68.1873 366.589 78.602C366.589 88.874 369.157 97.0773 374.293 103.212C379.429 109.204 386.776 112.2 396.335 112.2ZM537.593 3.488V88.874C537.593 95.8647 539.091 101.429 542.087 105.566C545.226 109.561 550.219 111.558 557.067 111.558C563.915 111.558 568.98 109.561 572.261 105.566C575.542 101.429 577.183 95.8647 577.183 88.874V3.488H624.477V88.874C624.477 103.283 621.481 115.624 615.489 125.896C609.497 136.025 601.294 143.658 590.879 148.794C580.464 153.93 568.837 156.498 555.997 156.498C543.157 156.498 531.744 153.93 521.757 148.794C511.913 143.658 504.209 136.025 498.645 125.896C493.081 115.767 490.299 103.426 490.299 88.874V3.488H537.593ZM763.952 3.488V41.152H723.72V155H676.212V41.152H636.408V3.488H763.952ZM859.638 3.488V88.874C859.638 95.8647 861.136 101.429 864.132 105.566C867.271 109.561 872.264 111.558 879.112 111.558C885.96 111.558 891.025 109.561 894.306 105.566C897.587 101.429 899.228 95.8647 899.228 88.874V3.488H946.522V88.874C946.522 103.283 943.526 115.624 937.534 125.896C931.542 136.025 923.339 143.658 912.924 148.794C902.509 153.93 890.882 156.498 878.042 156.498C865.202 156.498 853.789 153.93 843.802 148.794C833.958 143.658 826.254 136.025 820.69 125.896C815.126 115.767 812.344 103.426 812.344 88.874V3.488H859.638ZM1026.29 156.498C1008.17 156.498 993.192 152.289 981.351 143.872C969.652 135.312 963.303 122.829 962.305 106.422H1012.81C1013.52 115.125 1017.37 119.476 1024.36 119.476C1026.93 119.476 1029.07 118.905 1030.78 117.764C1032.64 116.48 1033.57 114.554 1033.57 111.986C1033.57 108.419 1031.64 105.566 1027.79 103.426C1023.94 101.143 1017.94 98.5753 1009.81 95.722C1000.11 92.298 992.051 88.9453 985.631 85.664C979.353 82.3827 973.932 77.6033 969.367 71.326C964.801 65.0487 962.59 56.988 962.733 47.144C962.733 37.3 965.229 28.954 970.223 22.106C975.359 15.1153 982.278 9.83666 990.981 6.26999C999.826 2.70333 1009.74 0.919994 1020.73 0.919994C1039.27 0.919994 1053.97 5.19999 1064.81 13.76C1075.8 22.32 1081.57 34.3753 1082.14 49.926H1031C1030.86 45.646 1029.79 42.5787 1027.79 40.724C1025.79 38.8693 1023.37 37.942 1020.51 37.942C1018.52 37.942 1016.87 38.6553 1015.59 40.082C1014.31 41.366 1013.66 43.2207 1013.66 45.646C1013.66 49.07 1015.52 51.9233 1019.23 54.206C1023.08 56.346 1029.14 58.9853 1037.42 62.124C1046.98 65.6907 1054.82 69.1147 1060.96 72.396C1067.24 75.6773 1072.66 80.2427 1077.22 86.092C1081.79 91.9413 1084.07 99.2887 1084.07 108.134C1084.07 117.407 1081.79 125.753 1077.22 133.172C1072.66 140.448 1066.02 146.155 1057.32 150.292C1048.62 154.429 1038.27 156.498 1026.29 156.498Z"/>
    </mask>
    <path d="M107.856 132.102L108.806 131.791L108.581 131.102H107.856V132.102ZM57.352 132.102V131.102H56.627L56.4016 131.791L57.352 132.102ZM49.862 155V156H50.587L50.8124 155.311L49.862 155ZM0 155L-0.939133 154.656L-1.43063 156H0V155ZM55.426 3.488V2.488H54.727L54.4869 3.14445L55.426 3.488ZM110.21 3.488L111.15 3.14562L110.91 2.488H110.21V3.488ZM165.422 155V156H166.851L166.362 154.658L165.422 155ZM115.346 155L114.396 155.311L114.621 156H115.346V155ZM96.3 96.364V97.364H97.6763L97.2511 96.055L96.3 96.364ZM82.604 54.206L83.5551 53.897L82.604 50.9695L81.6529 53.897L82.604 54.206ZM68.908 96.364L67.9569 96.055L67.5317 97.364H68.908V96.364ZM107.856 131.102H57.352V133.102H107.856V131.102ZM56.4016 131.791L48.9116 154.689L50.8124 155.311L58.3024 132.413L56.4016 131.791ZM49.862 154H0V156H49.862V154ZM0.939133 155.344L56.3651 3.83155L54.4869 3.14445L-0.939133 154.656L0.939133 155.344ZM55.426 4.488H110.21V2.488H55.426V4.488ZM109.27 3.83038L164.482 155.342L166.362 154.658L111.15 3.14562L109.27 3.83038ZM165.422 154H115.346V156H165.422V154ZM116.296 154.689L108.806 131.791L106.906 132.413L114.396 155.311L116.296 154.689ZM97.2511 96.055L83.5551 53.897L81.6529 54.515L95.3489 96.673L97.2511 96.055ZM81.6529 53.897L67.9569 96.055L69.8591 96.673L83.5551 54.515L81.6529 53.897ZM68.908 97.364H96.3V95.364H68.908V97.364ZM277.652 77.318L277.401 76.35L277.423 78.2916L277.652 77.318ZM298.838 90.586L298.036 91.1833L298.043 91.1929L298.05 91.2023L298.838 90.586ZM293.274 144.3L293.908 145.073L293.909 145.072L293.274 144.3ZM176.216 155H175.216V156H176.216V155ZM176.216 3.488V2.488H175.216V3.488H176.216ZM296.056 65.334L295.262 64.7252L295.26 64.728L296.056 65.334ZM223.724 62.552H222.724V63.552H223.724V62.552ZM251.544 59.984L250.919 59.2031L250.906 59.2137L250.893 59.2247L251.544 59.984ZM251.544 43.934L250.863 44.6668L250.89 44.6918L250.919 44.7149L251.544 43.934ZM223.724 41.152V40.152H222.724V41.152H223.724ZM254.754 114.554L255.371 115.34L255.378 115.335L254.754 114.554ZM223.724 95.508V94.508H222.724V95.508H223.724ZM223.724 116.908H222.724V117.908H223.724V116.908ZM277.423 78.2916C286.354 80.3848 293.2 84.6903 298.036 91.1833L299.64 89.9887C294.488 83.071 287.21 78.5312 277.88 76.3444L277.423 78.2916ZM298.05 91.2023C303.042 97.5808 305.542 104.994 305.542 113.484H307.542C307.542 104.569 304.905 96.7165 299.625 89.9697L298.05 91.2023ZM305.542 113.484C305.542 126.506 301.215 136.473 292.638 143.528L293.909 145.072C303.023 137.575 307.542 126.998 307.542 113.484H305.542ZM292.64 143.527C284.182 150.459 271.888 154 255.61 154V156C272.145 156 284.96 152.407 293.908 145.073L292.64 143.527ZM255.61 154H176.216V156H255.61V154ZM177.216 155V3.488H175.216V155H177.216ZM176.216 4.488H253.47V2.488H176.216V4.488ZM253.47 4.488C268.742 4.488 280.63 7.81194 289.246 14.3429L290.454 12.7491C281.378 5.86939 269.013 2.488 253.47 2.488V4.488ZM289.246 14.3429C297.8 20.8279 302.118 30.2813 302.118 42.864H304.118C304.118 29.7667 299.59 19.6748 290.454 12.7491L289.246 14.3429ZM302.118 42.864C302.118 51.5223 299.817 58.7897 295.262 64.7252L296.849 65.9428C301.71 59.6089 304.118 51.8963 304.118 42.864H302.118ZM295.26 64.728C290.839 70.5312 284.901 74.4055 277.401 76.35L277.903 78.286C285.81 76.2358 292.142 72.1208 296.851 65.94L295.26 64.728ZM223.724 63.552H242.128V61.552H223.724V63.552ZM242.128 63.552C246.506 63.552 249.932 62.6823 252.194 60.7432L250.893 59.2247C249.16 60.7097 246.309 61.552 242.128 61.552V63.552ZM252.168 60.7649C254.613 58.8088 255.754 55.8374 255.754 52.066H253.754C253.754 55.4279 252.754 57.7352 250.919 59.2031L252.168 60.7649ZM255.754 52.066C255.754 48.1674 254.622 45.1164 252.168 43.1531L250.919 44.7149C252.745 46.1755 253.754 48.5459 253.754 52.066H255.754ZM252.224 43.2012C249.961 41.0995 246.522 40.152 242.128 40.152V42.152C246.293 42.152 249.132 43.0591 250.863 44.6668L252.224 43.2012ZM242.128 40.152H223.724V42.152H242.128V40.152ZM222.724 41.152V62.552H224.724V41.152H222.724ZM245.338 117.908C249.702 117.908 253.113 117.115 255.371 115.34L254.136 113.768C252.4 115.132 249.533 115.908 245.338 115.908V117.908ZM255.378 115.335C257.832 113.372 258.964 110.321 258.964 106.422H256.964C256.964 109.942 255.955 112.312 254.129 113.773L255.378 115.335ZM258.964 106.422C258.964 102.589 257.848 99.5434 255.461 97.48C253.102 95.4406 249.668 94.508 245.338 94.508V96.508C249.425 96.508 252.304 97.3944 254.153 98.993C255.975 100.568 256.964 102.979 256.964 106.422H258.964ZM245.338 94.508H223.724V96.508H245.338V94.508ZM222.724 95.508V116.908H224.724V95.508H222.724ZM223.724 117.908H245.338V115.908H223.724V117.908ZM356.959 146.44L356.466 147.31L356.47 147.313L356.959 146.44ZM328.711 118.62L327.85 119.128L327.85 119.128L328.711 118.62ZM356.959 10.978L357.443 11.8527L357.447 11.8507L356.959 10.978ZM435.497 10.978L435.004 11.8482L435.012 11.8526L435.497 10.978ZM463.531 38.584L462.665 39.0846L462.67 39.0924L463.531 38.584ZM463.531 118.62L462.67 118.112L462.665 118.119L463.531 118.62ZM435.283 146.44L434.794 145.567L434.79 145.57L435.283 146.44ZM418.163 103.212L418.922 103.863L418.929 103.854L418.163 103.212ZM418.163 53.992L417.396 54.634L417.403 54.6428L418.163 53.992ZM374.293 53.992L375.052 54.6428L375.059 54.6339L374.293 53.992ZM374.293 103.212L373.526 103.854L373.533 103.863L374.293 103.212ZM396.335 155.498C382.232 155.498 369.276 152.186 357.447 145.567L356.47 147.313C368.61 154.105 381.904 157.498 396.335 157.498V155.498ZM357.451 145.57C345.764 138.952 336.474 129.804 329.572 118.112L327.85 119.128C334.928 131.119 344.471 140.518 356.466 147.31L357.451 145.57ZM329.572 118.112C322.679 106.436 319.225 93.2751 319.225 78.602H317.225C317.225 93.6035 320.761 107.121 327.85 119.128L329.572 118.112ZM319.225 78.602C319.225 63.9289 322.679 50.7676 329.572 39.0924L327.85 38.0756C320.761 50.0831 317.225 63.6005 317.225 78.602H319.225ZM329.572 39.0924C336.473 27.402 345.761 18.3275 357.443 11.8526L356.474 10.1033C344.474 16.7538 334.929 26.0834 327.85 38.0756L329.572 39.0924ZM357.447 11.8507C369.276 5.23214 382.232 1.91999 396.335 1.91999V-0.0800061C381.904 -0.0800061 368.61 3.31318 356.47 10.1053L357.447 11.8507ZM396.335 1.91999C410.437 1.91999 423.32 5.23211 435.004 11.8482L435.989 10.1078C423.99 3.31321 410.765 -0.0800061 396.335 -0.0800061V1.91999ZM435.012 11.8526C446.693 18.3265 455.907 27.3985 462.665 39.0846L464.396 38.0834C457.459 26.0869 447.983 16.7548 435.981 10.1033L435.012 11.8526ZM462.67 39.0924C469.562 50.7676 473.017 63.9289 473.017 78.602H475.017C475.017 63.6005 471.481 50.0831 464.392 38.0756L462.67 39.0924ZM473.017 78.602C473.017 93.2751 469.562 106.436 462.67 118.112L464.392 119.128C471.481 107.121 475.017 93.6035 475.017 78.602H473.017ZM462.665 118.119C455.907 129.804 446.622 138.949 434.794 145.567L435.771 147.313C447.911 140.52 457.458 131.118 464.396 119.121L462.665 118.119ZM434.79 145.57C423.105 152.187 410.293 155.498 396.335 155.498V157.498C410.625 157.498 423.778 154.104 435.775 147.31L434.79 145.57ZM396.335 113.2C405.981 113.2 413.559 110.12 418.922 103.863L417.403 102.561C412.494 108.288 405.521 111.2 396.335 111.2V113.2ZM418.929 103.854C424.255 97.4933 426.867 89.0407 426.867 78.602H424.867C424.867 88.7073 422.343 96.6614 417.396 102.57L418.929 103.854ZM426.867 78.602C426.867 68.026 424.257 59.5656 418.922 53.3412L417.403 54.6428C422.34 60.4024 424.867 68.3487 424.867 78.602H426.867ZM418.929 53.3501C413.569 46.9474 405.989 43.79 396.335 43.79V45.79C405.513 45.79 412.484 48.7673 417.396 54.6339L418.929 53.3501ZM396.335 43.79C386.544 43.79 378.889 46.9438 373.526 53.3501L375.059 54.6339C379.968 48.7708 387.008 45.79 396.335 45.79V43.79ZM373.533 53.3412C368.198 59.5656 365.589 68.026 365.589 78.602H367.589C367.589 68.3487 370.115 60.4024 375.052 54.6428L373.533 53.3412ZM365.589 78.602C365.589 89.0407 368.201 97.4933 373.526 103.854L375.059 102.57C370.113 96.6614 367.589 88.7073 367.589 78.602H365.589ZM373.533 103.863C378.899 110.123 386.552 113.2 396.335 113.2V111.2C387 111.2 379.958 108.285 375.052 102.561L373.533 103.863ZM537.593 3.488H538.593V2.488H537.593V3.488ZM542.087 105.566L541.277 106.153L541.289 106.168L541.301 106.184L542.087 105.566ZM572.261 105.566L573.034 106.201L573.039 106.194L573.045 106.187L572.261 105.566ZM577.183 3.488V2.488H576.183V3.488H577.183ZM624.477 3.488H625.477V2.488H624.477V3.488ZM615.489 125.896L616.35 126.405L616.353 126.4L615.489 125.896ZM590.879 148.794L591.321 149.691L591.321 149.691L590.879 148.794ZM521.757 148.794L521.295 149.681L521.3 149.683L521.757 148.794ZM498.645 125.896L497.769 126.377L497.769 126.377L498.645 125.896ZM490.299 3.488V2.488H489.299V3.488H490.299ZM536.593 3.488V88.874H538.593V3.488H536.593ZM536.593 88.874C536.593 95.9992 538.119 101.792 541.277 106.153L542.897 104.979C540.063 101.065 538.593 95.7301 538.593 88.874H536.593ZM541.301 106.184C544.69 110.497 550.027 112.558 557.067 112.558V110.558C550.412 110.558 545.762 108.624 542.873 104.948L541.301 106.184ZM557.067 112.558C564.11 112.558 569.505 110.496 573.034 106.201L571.488 104.931C568.454 108.625 563.72 110.558 557.067 110.558V112.558ZM573.045 106.187C576.506 101.823 578.183 96.017 578.183 88.874H576.183C576.183 95.7123 574.579 101.034 571.478 104.945L573.045 106.187ZM578.183 88.874V3.488H576.183V88.874H578.183ZM577.183 4.488H624.477V2.488H577.183V4.488ZM623.477 3.488V88.874H625.477V3.488H623.477ZM623.477 88.874C623.477 103.144 620.511 115.302 614.625 125.392L616.353 126.4C622.451 115.946 625.477 103.423 625.477 88.874H623.477ZM614.628 125.387C608.734 135.351 600.675 142.848 590.437 147.897L591.321 149.691C601.913 144.468 610.26 136.699 616.35 126.405L614.628 125.387ZM590.437 147.897C580.174 152.958 568.7 155.498 555.997 155.498V157.498C568.974 157.498 580.755 154.902 591.321 149.691L590.437 147.897ZM555.997 155.498C543.293 155.498 532.041 152.958 522.214 147.905L521.3 149.683C531.447 154.902 543.021 157.498 555.997 157.498V155.498ZM522.22 147.907C512.558 142.867 504.995 135.378 499.522 125.415L497.769 126.377C503.423 136.672 511.268 144.449 521.295 149.681L522.22 147.907ZM499.522 125.415C494.057 115.466 491.299 103.3 491.299 88.874H489.299C489.299 103.551 492.105 116.067 497.769 126.377L499.522 125.415ZM491.299 88.874V3.488H489.299V88.874H491.299ZM490.299 4.488H537.593V2.488H490.299V4.488ZM763.952 3.488H764.952V2.488H763.952V3.488ZM763.952 41.152V42.152H764.952V41.152H763.952ZM723.72 41.152V40.152H722.72V41.152H723.72ZM723.72 155V156H724.72V155H723.72ZM676.212 155H675.212V156H676.212V155ZM676.212 41.152H677.212V40.152H676.212V41.152ZM636.408 41.152H635.408V42.152H636.408V41.152ZM636.408 3.488V2.488H635.408V3.488H636.408ZM762.952 3.488V41.152H764.952V3.488H762.952ZM763.952 40.152H723.72V42.152H763.952V40.152ZM722.72 41.152V155H724.72V41.152H722.72ZM723.72 154H676.212V156H723.72V154ZM677.212 155V41.152H675.212V155H677.212ZM676.212 40.152H636.408V42.152H676.212V40.152ZM637.408 41.152V3.488H635.408V41.152H637.408ZM636.408 4.488H763.952V2.488H636.408V4.488ZM859.638 3.488H860.638V2.488H859.638V3.488ZM864.132 105.566L863.322 106.153L863.334 106.168L863.346 106.184L864.132 105.566ZM894.306 105.566L895.079 106.201L895.084 106.194L895.09 106.187L894.306 105.566ZM899.228 3.488V2.488H898.228V3.488H899.228ZM946.522 3.488H947.522V2.488H946.522V3.488ZM937.534 125.896L938.395 126.405L938.398 126.4L937.534 125.896ZM912.924 148.794L913.366 149.691L913.366 149.691L912.924 148.794ZM843.802 148.794L843.339 149.681L843.345 149.683L843.802 148.794ZM820.69 125.896L819.814 126.377L819.814 126.377L820.69 125.896ZM812.344 3.488V2.488H811.344V3.488H812.344ZM858.638 3.488V88.874H860.638V3.488H858.638ZM858.638 88.874C858.638 95.9992 860.164 101.792 863.322 106.153L864.942 104.979C862.108 101.065 860.638 95.7301 860.638 88.874H858.638ZM863.346 106.184C866.735 110.497 872.072 112.558 879.112 112.558V110.558C872.456 110.558 867.806 108.624 864.918 104.948L863.346 106.184ZM879.112 112.558C886.155 112.558 891.55 110.496 895.079 106.201L893.533 104.931C890.499 108.625 885.765 110.558 879.112 110.558V112.558ZM895.09 106.187C898.551 101.823 900.228 96.017 900.228 88.874H898.228C898.228 95.7123 896.624 101.034 893.523 104.945L895.09 106.187ZM900.228 88.874V3.488H898.228V88.874H900.228ZM899.228 4.488H946.522V2.488H899.228V4.488ZM945.522 3.488V88.874H947.522V3.488H945.522ZM945.522 88.874C945.522 103.144 942.556 115.302 936.67 125.392L938.398 126.4C944.496 115.946 947.522 103.423 947.522 88.874H945.522ZM936.673 125.387C930.779 135.351 922.72 142.848 912.482 147.897L913.366 149.691C923.958 144.468 932.305 136.699 938.395 126.405L936.673 125.387ZM912.482 147.897C902.219 152.958 890.745 155.498 878.042 155.498V157.498C891.019 157.498 902.8 154.902 913.366 149.691L912.482 147.897ZM878.042 155.498C865.338 155.498 854.085 152.958 844.259 147.905L843.345 149.683C853.492 154.902 865.066 157.498 878.042 157.498V155.498ZM844.265 147.907C834.603 142.867 827.04 135.378 821.566 125.415L819.814 126.377C825.468 136.672 833.313 144.449 843.339 149.681L844.265 147.907ZM821.566 125.415C816.102 115.466 813.344 103.3 813.344 88.874H811.344C811.344 103.551 814.15 116.067 819.814 126.377L821.566 125.415ZM813.344 88.874V3.488H811.344V88.874H813.344ZM812.344 4.488H859.638V2.488H812.344V4.488ZM981.351 143.872L980.76 144.679L980.771 144.687L981.351 143.872ZM962.305 106.422V105.422H961.242L961.306 106.483L962.305 106.422ZM1012.81 106.422L1013.81 106.34L1013.73 105.422H1012.81V106.422ZM1030.78 117.764L1031.34 118.596L1031.35 118.591L1031.35 118.586L1030.78 117.764ZM1027.79 103.426L1027.28 104.286L1027.29 104.293L1027.3 104.3L1027.79 103.426ZM1009.81 95.722L1009.48 96.665L1009.48 96.6656L1009.81 95.722ZM985.631 85.664L985.167 86.5503L985.175 86.5544L985.631 85.664ZM969.367 71.326L970.175 70.7378L970.175 70.7378L969.367 71.326ZM962.733 47.144L963.732 47.1585L963.733 47.1512V47.144H962.733ZM970.223 22.106L969.417 21.5139L969.414 21.5168L970.223 22.106ZM990.981 6.26999L990.607 5.34253L990.601 5.34468L990.981 6.26999ZM1064.81 13.76L1064.19 14.5449L1064.2 14.5488L1064.81 13.76ZM1082.14 49.926V50.926H1083.18L1083.14 49.8893L1082.14 49.926ZM1031 49.926L1030 49.9593L1030.03 50.926H1031V49.926ZM1015.59 40.082L1016.3 40.7891L1016.32 40.7705L1016.33 40.751L1015.59 40.082ZM1019.23 54.206L1018.7 55.0577L1018.72 55.0693L1018.74 55.0802L1019.23 54.206ZM1037.42 62.124L1037.06 63.059L1037.07 63.0609L1037.42 62.124ZM1060.96 72.396L1060.49 73.2778L1060.5 73.2822L1060.96 72.396ZM1077.22 86.092L1076.43 86.7073L1076.43 86.7073L1077.22 86.092ZM1077.22 133.172L1078.07 133.704L1078.07 133.696L1077.22 133.172ZM1057.32 150.292L1056.89 149.389L1057.32 150.292ZM1026.29 155.498C1008.33 155.498 993.564 151.327 981.93 143.057L980.771 144.687C992.82 153.252 1008.02 157.498 1026.29 157.498V155.498ZM981.941 143.065C970.516 134.706 964.286 122.516 963.303 106.361L961.306 106.483C962.32 123.142 968.787 135.918 980.76 144.679L981.941 143.065ZM962.305 107.422H1012.81V105.422H962.305V107.422ZM1011.81 106.504C1012.18 110.968 1013.36 114.475 1015.48 116.875C1017.64 119.309 1020.65 120.476 1024.36 120.476V118.476C1021.09 118.476 1018.68 117.468 1016.98 115.55C1015.25 113.599 1014.15 110.579 1013.81 106.34L1011.81 106.504ZM1024.36 120.476C1027.08 120.476 1029.43 119.871 1031.34 118.596L1030.23 116.932C1028.72 117.939 1026.78 118.476 1024.36 118.476V120.476ZM1031.35 118.586C1033.52 117.087 1034.57 114.829 1034.57 111.986H1032.57C1032.57 114.279 1031.76 115.873 1030.22 116.942L1031.35 118.586ZM1034.57 111.986C1034.57 107.965 1032.36 104.819 1028.27 102.552L1027.3 104.3C1030.93 106.313 1032.57 108.873 1032.57 111.986H1034.57ZM1028.3 102.566C1024.36 100.231 1018.29 97.6375 1010.14 94.7784L1009.48 96.6656C1017.6 99.5132 1023.51 102.055 1027.28 104.286L1028.3 102.566ZM1010.15 94.779C1000.47 91.3641 992.453 88.0282 986.086 84.7736L985.175 86.5544C991.648 89.8625 999.753 93.2319 1009.48 96.665L1010.15 94.779ZM986.094 84.7778C979.966 81.5745 974.659 76.9026 970.175 70.7378L968.558 71.9142C973.205 78.304 978.741 83.1909 985.167 86.5502L986.094 84.7778ZM970.175 70.7378C965.768 64.6775 963.592 56.8448 963.732 47.1585L961.733 47.1295C961.588 57.1311 963.835 65.4198 968.558 71.9142L970.175 70.7378ZM963.733 47.144C963.733 37.4764 966.181 29.3455 971.031 22.6952L969.414 21.5168C964.277 28.5625 961.733 37.1236 961.733 47.144H963.733ZM971.028 22.6981C976.046 15.868 982.812 10.6983 991.36 7.19529L990.601 5.34468C981.743 8.975 974.671 14.3626 969.417 21.5139L971.028 22.6981ZM991.354 7.19743C1000.06 3.6854 1009.85 1.91999 1020.73 1.91999V-0.0800061C1009.63 -0.0800061 999.587 1.72125 990.607 5.34255L991.354 7.19743ZM1020.73 1.91999C1039.13 1.91999 1053.58 6.16531 1064.19 14.5449L1065.43 12.9751C1054.36 4.23468 1039.42 -0.0800061 1020.73 -0.0800061V1.91999ZM1064.2 14.5488C1074.92 22.9045 1080.58 34.6682 1081.15 49.9627L1083.14 49.8893C1082.56 34.0824 1076.67 21.7355 1065.43 12.9712L1064.2 14.5488ZM1082.14 48.926H1031V50.926H1082.14V48.926ZM1032 49.8927C1031.85 45.494 1030.75 42.1077 1028.47 39.9912L1027.11 41.4568C1028.82 43.0496 1029.86 45.798 1030 49.9593L1032 49.8927ZM1028.47 39.9912C1026.28 37.9561 1023.61 36.942 1020.51 36.942V38.942C1023.13 38.942 1025.31 39.7825 1027.11 41.4568L1028.47 39.9912ZM1020.51 36.942C1018.24 36.942 1016.33 37.7661 1014.85 39.413L1016.33 40.751C1017.42 39.5445 1018.79 38.942 1020.51 38.942V36.942ZM1014.88 39.3749C1013.36 40.9027 1012.66 43.0474 1012.66 45.646H1014.66C1014.66 43.394 1015.26 41.8293 1016.3 40.7891L1014.88 39.3749ZM1012.66 45.646C1012.66 49.5131 1014.79 52.6496 1018.7 55.0577L1019.75 53.3543C1016.25 51.197 1014.66 48.6269 1014.66 45.646H1012.66ZM1018.74 55.0802C1022.66 57.2567 1028.78 59.9167 1037.06 63.059L1037.77 61.189C1029.51 58.054 1023.5 55.4353 1019.71 53.3318L1018.74 55.0802ZM1037.07 63.0609C1046.6 66.6184 1054.41 70.0248 1060.49 73.2778L1061.43 71.5142C1055.24 68.2046 1047.35 64.7629 1037.77 61.1871L1037.07 63.0609ZM1060.5 73.2822C1066.64 76.4943 1071.95 80.9649 1076.43 86.7073L1078.01 85.4767C1073.36 79.5204 1067.83 74.8603 1061.42 71.5098L1060.5 73.2822ZM1076.43 86.7073C1080.84 92.3488 1083.07 99.4673 1083.07 108.134H1085.07C1085.07 99.1101 1082.74 91.5338 1078.01 85.4767L1076.43 86.7073ZM1083.07 108.134C1083.07 117.235 1080.83 125.397 1076.37 132.648L1078.07 133.696C1082.74 126.11 1085.07 117.58 1085.07 108.134H1083.07ZM1076.38 132.641C1071.92 139.736 1065.44 145.323 1056.89 149.389L1057.75 151.195C1066.6 146.986 1073.39 141.16 1078.07 133.703L1076.38 132.641ZM1056.89 149.389C1048.35 153.449 1038.16 155.498 1026.29 155.498V157.498C1038.39 157.498 1048.88 155.41 1057.75 151.195L1056.89 149.389Z"
          fill="url(#paint0_linear_1_2)" mask="url(#path-1-outside-1_1_2)"/>
    <defs>
        <linearGradient id="paint0_linear_1_2" x1="546" y1="80" x2="545.5" y2="177.185" gradientUnits="userSpaceOnUse">
            <stop stop-color="#DBDBDB"/>
            <stop offset="1" stop-color="#F2F2F2" stop-opacity="0"/>
        </linearGradient>
    </defs>
</svg>
