<svg width="448" height="104" viewBox="0 0 448 104" fill="none" xmlns="http://www.w3.org/2000/svg">
    <g opacity="0.03">
        <g clip-path="url(#clip0_28_744)">
            <path fill-rule="evenodd" clip-rule="evenodd"
                  d="M28.4257 33.2797L0 5.2846V1.28531L29.0059 29.8517L58.0117 1.28531V5.2846L29.586 33.2797H28.4257ZM16.8234 33.2797L0 16.7112V12.7119L20.8842 33.2797H16.8234ZM41.1883 33.2797L58.0117 16.7112V12.7119L37.1275 33.2797H41.1883ZM28.4257 -1L29.0059 -0.428672L29.586 -1H28.4257ZM16.8234 -1L29.0059 10.9979L41.1883 -1H37.1275L29.0059 6.99859L20.8842 -1H16.8234Z"
                  fill="#10152C"/>
        </g>
        <g clip-path="url(#clip1_28_744)">
            <path fill-rule="evenodd" clip-rule="evenodd"
                  d="M86.0068 33.2797L58.0117 5.2846V1.28531L86.5781 29.8517L115.144 1.28531V5.2846L87.1494 33.2797H86.0068ZM74.5802 33.2797L58.0117 16.7112V12.7119L78.5795 33.2797H74.5802ZM98.576 33.2797L115.144 16.7112V12.7119L94.5767 33.2797H98.576ZM86.0068 -1L86.5781 -0.428672L87.1494 -1H86.0068ZM74.5802 -1L86.5781 10.9979L98.576 -1H94.5767L86.5781 6.99859L78.5795 -1H74.5802Z"
                  fill="#10152C"/>
        </g>
        <g clip-path="url(#clip2_28_744)">
            <path fill-rule="evenodd" clip-rule="evenodd"
                  d="M143.14 33.2797L115.144 5.2846V1.28531L143.711 29.8517L172.277 1.28531V5.2846L144.282 33.2797H143.14ZM131.713 33.2797L115.144 16.7112V12.7119L135.712 33.2797H131.713ZM155.709 33.2797L172.277 16.7112V12.7119L151.709 33.2797H155.709ZM143.14 -1L143.711 -0.428672L144.282 -1H143.14ZM131.713 -1L143.711 10.9979L155.709 -1H151.709L143.711 6.99859L135.712 -1H131.713Z"
                  fill="#10152C"/>
        </g>
        <g clip-path="url(#clip3_28_744)">
            <path fill-rule="evenodd" clip-rule="evenodd"
                  d="M200.272 33.2797L172.277 5.2846V1.28531L200.844 29.8517L229.41 1.28531V5.2846L201.415 33.2797H200.272ZM188.846 33.2797L172.277 16.7112V12.7119L192.845 33.2797H188.846ZM212.841 33.2797L229.41 16.7112V12.7119L208.842 33.2797H212.841ZM200.272 -1L200.844 -0.428672L201.415 -1H200.272ZM188.846 -1L200.844 10.9979L212.841 -1H208.842L200.844 6.99859L192.845 -1H188.846Z"
                  fill="#10152C"/>
        </g>
        <g clip-path="url(#clip4_28_744)">
            <path fill-rule="evenodd" clip-rule="evenodd"
                  d="M257.836 33.2797L229.41 5.2846V1.28531L258.416 29.8517L287.422 1.28531V5.2846L258.996 33.2797H257.836ZM246.233 33.2797L229.41 16.7112V12.7119L250.294 33.2797H246.233ZM270.598 33.2797L287.422 16.7112V12.7119L266.537 33.2797H270.598ZM257.836 -1L258.416 -0.428672L258.996 -1H257.836ZM246.233 -1L258.416 10.9979L270.598 -1H266.537L258.416 6.99859L250.294 -1H246.233Z"
                  fill="#10152C"/>
        </g>
        <g clip-path="url(#clip5_28_744)">
            <path fill-rule="evenodd" clip-rule="evenodd"
                  d="M315.417 33.2797L287.422 5.2846V1.28531L315.988 29.8517L344.554 1.28531V5.2846L316.559 33.2797H315.417ZM303.99 33.2797L287.422 16.7112V12.7119L307.989 33.2797H303.99ZM327.986 33.2797L344.554 16.7112V12.7119L323.987 33.2797H327.986ZM315.417 -1L315.988 -0.428672L316.559 -1H315.417ZM303.99 -1L315.988 10.9979L327.986 -1H323.987L315.988 6.99859L307.989 -1H303.99Z"
                  fill="#10152C"/>
        </g>
        <g clip-path="url(#clip6_28_744)">
            <path fill-rule="evenodd" clip-rule="evenodd"
                  d="M372.98 34.1586L344.554 5.44575V1.34391L373.56 30.6428L402.566 1.34391V5.44575L374.14 34.1586H372.98ZM361.378 34.1586L344.554 17.1653V13.0634L365.439 34.1586H361.378ZM385.743 34.1586L402.566 17.1653V13.0634L381.682 34.1586H385.743ZM372.98 -1L373.56 -0.414023L374.14 -1H372.98ZM361.378 -1L373.56 11.3055L385.743 -1H381.682L373.56 7.20368L365.439 -1H361.378Z"
                  fill="#10152C"/>
        </g>
        <g clip-path="url(#clip7_28_744)">
            <path fill-rule="evenodd" clip-rule="evenodd"
                  d="M430.561 34.1586L402.566 5.44575V1.34391L431.133 30.6428L459.699 1.34391V5.44575L431.704 34.1586H430.561ZM419.135 34.1586L402.566 17.1653V13.0634L423.134 34.1586H419.135ZM443.13 34.1586L459.699 17.1653V13.0634L439.131 34.1586H443.13ZM430.561 -1L431.133 -0.414023L431.704 -1H430.561ZM419.135 -1L431.133 11.3055L443.13 -1H439.131L431.133 7.20368L423.134 -1H419.135Z"
                  fill="#10152C"/>
        </g>
        <g clip-path="url(#clip8_28_744)">
            <path fill-rule="evenodd" clip-rule="evenodd"
                  d="M28.4257 69.3172L0 40.6044V36.5025L29.0059 65.8014L58.0117 36.5025V40.6044L29.586 69.3172H28.4257ZM16.8234 69.3172L0 52.3239V48.2221L20.8842 69.3172H16.8234ZM41.1883 69.3172L58.0117 52.3239V48.2221L37.1275 69.3172H41.1883ZM28.4257 34.1586L29.0059 34.7446L29.586 34.1586H28.4257ZM16.8234 34.1586L29.0059 46.4641L41.1883 34.1586H37.1275L29.0059 42.3623L20.8842 34.1586H16.8234Z"
                  fill="#10152C"/>
        </g>
        <g clip-path="url(#clip9_28_744)">
            <path fill-rule="evenodd" clip-rule="evenodd"
                  d="M86.0068 69.3172L58.0117 40.6044V36.5025L86.5781 65.8014L115.144 36.5025V40.6044L87.1494 69.3172H86.0068ZM74.5802 69.3172L58.0117 52.3239V48.2221L78.5795 69.3172H74.5802ZM98.576 69.3172L115.144 52.3239V48.2221L94.5767 69.3172H98.576ZM86.0068 34.1586L86.5781 34.7446L87.1494 34.1586H86.0068ZM74.5802 34.1586L86.5781 46.4641L98.576 34.1586H94.5767L86.5781 42.3623L78.5795 34.1586H74.5802Z"
                  fill="#10152C"/>
        </g>
        <g clip-path="url(#clip10_28_744)">
            <path fill-rule="evenodd" clip-rule="evenodd"
                  d="M143.57 68.4383L115.144 40.4432V36.4439L144.15 65.0103L173.156 36.4439V40.4432L144.73 68.4383H143.57ZM131.968 68.4383L115.144 51.8698V47.8705L136.029 68.4383H131.968ZM156.333 68.4383L173.156 51.8698V47.8705L152.272 68.4383H156.333ZM143.57 34.1586L144.15 34.73L144.73 34.1586H143.57ZM131.968 34.1586L144.15 46.1565L156.333 34.1586H152.272L144.15 42.1572L136.029 34.1586H131.968Z"
                  fill="#10152C"/>
        </g>
        <g clip-path="url(#clip11_28_744)">
            <path fill-rule="evenodd" clip-rule="evenodd"
                  d="M201.151 68.4383L173.156 40.4432V36.4439L201.723 65.0103L230.289 36.4439V40.4432L202.294 68.4383H201.151ZM189.725 68.4383L173.156 51.8698V47.8705L193.724 68.4383H189.725ZM213.72 68.4383L230.289 51.8698V47.8705L209.721 68.4383H213.72ZM201.151 34.1586L201.723 34.73L202.294 34.1586H201.151ZM189.725 34.1586L201.723 46.1565L213.72 34.1586H209.721L201.723 42.1572L193.724 34.1586H189.725Z"
                  fill="#10152C"/>
        </g>
        <g clip-path="url(#clip12_28_744)">
            <path fill-rule="evenodd" clip-rule="evenodd"
                  d="M258.284 68.4383L230.289 40.4432V36.4439L258.855 65.0103L287.422 36.4439V40.4432L259.427 68.4383H258.284ZM246.857 68.4383L230.289 51.8698V47.8705L250.857 68.4383H246.857ZM270.853 68.4383L287.422 51.8698V47.8705L266.854 68.4383H270.853ZM258.284 34.1586L258.855 34.73L259.427 34.1586H258.284ZM246.857 34.1586L258.855 46.1565L270.853 34.1586H266.854L258.855 42.1572L250.857 34.1586H246.857Z"
                  fill="#10152C"/>
        </g>
        <g clip-path="url(#clip13_28_744)">
            <path fill-rule="evenodd" clip-rule="evenodd"
                  d="M315.417 68.4383L287.422 40.4432V36.4439L315.988 65.0103L344.554 36.4439V40.4432L316.559 68.4383H315.417ZM303.99 68.4383L287.422 51.8698V47.8705L307.989 68.4383H303.99ZM327.986 68.4383L344.554 51.8698V47.8705L323.987 68.4383H327.986ZM315.417 34.1586L315.988 34.73L316.559 34.1586H315.417ZM303.99 34.1586L315.988 46.1565L327.986 34.1586H323.987L315.988 42.1572L307.989 34.1586H303.99Z"
                  fill="#10152C"/>
        </g>
        <g clip-path="url(#clip14_28_744)">
            <path fill-rule="evenodd" clip-rule="evenodd"
                  d="M372.98 68.4383L344.554 40.4432V36.4439L373.56 65.0103L402.566 36.4439V40.4432L374.14 68.4383H372.98ZM361.378 68.4383L344.554 51.8698V47.8705L365.439 68.4383H361.378ZM385.743 68.4383L402.566 51.8698V47.8705L381.682 68.4383H385.743ZM372.98 34.1586L373.56 34.73L374.14 34.1586H372.98ZM361.378 34.1586L373.56 46.1565L385.743 34.1586H381.682L373.56 42.1572L365.439 34.1586H361.378Z"
                  fill="#10152C"/>
        </g>
        <g clip-path="url(#clip15_28_744)">
            <path fill-rule="evenodd" clip-rule="evenodd"
                  d="M430.561 68.4383L402.566 40.4432V36.4439L431.133 65.0103L459.699 36.4439V40.4432L431.704 68.4383H430.561ZM419.135 68.4383L402.566 51.8698V47.8705L423.134 68.4383H419.135ZM443.13 68.4383L459.699 51.8698V47.8705L439.131 68.4383H443.13ZM430.561 34.1586L431.133 34.73L431.704 34.1586H430.561ZM419.135 34.1586L431.133 46.1565L443.13 34.1586H439.131L431.133 42.1572L423.134 34.1586H419.135Z"
                  fill="#10152C"/>
        </g>
    </g>
    <defs>
        <clipPath id="clip0_28_744">
            <rect width="58.0117" height="34.2797" fill="white" transform="translate(0 -1)"/>
        </clipPath>
        <clipPath id="clip1_28_744">
            <rect width="57.1328" height="34.2797" fill="white" transform="translate(58.0117 -1)"/>
        </clipPath>
        <clipPath id="clip2_28_744">
            <rect width="57.1328" height="34.2797" fill="white" transform="translate(115.144 -1)"/>
        </clipPath>
        <clipPath id="clip3_28_744">
            <rect width="57.1328" height="34.2797" fill="white" transform="translate(172.277 -1)"/>
        </clipPath>
        <clipPath id="clip4_28_744">
            <rect width="58.0117" height="34.2797" fill="white" transform="translate(229.41 -1)"/>
        </clipPath>
        <clipPath id="clip5_28_744">
            <rect width="57.1328" height="34.2797" fill="white" transform="translate(287.422 -1)"/>
        </clipPath>
        <clipPath id="clip6_28_744">
            <rect width="58.0117" height="35.1586" fill="white" transform="translate(344.554 -1)"/>
        </clipPath>
        <clipPath id="clip7_28_744">
            <rect width="57.1328" height="35.1586" fill="white" transform="translate(402.566 -1)"/>
        </clipPath>
        <clipPath id="clip8_28_744">
            <rect width="58.0117" height="35.1586" fill="white" transform="translate(0 34.1586)"/>
        </clipPath>
        <clipPath id="clip9_28_744">
            <rect width="57.1328" height="35.1586" fill="white" transform="translate(58.0117 34.1586)"/>
        </clipPath>
        <clipPath id="clip10_28_744">
            <rect width="58.0117" height="34.2797" fill="white" transform="translate(115.144 34.1586)"/>
        </clipPath>
        <clipPath id="clip11_28_744">
            <rect width="57.1328" height="34.2797" fill="white" transform="translate(173.156 34.1586)"/>
        </clipPath>
        <clipPath id="clip12_28_744">
            <rect width="57.1328" height="34.2797" fill="white" transform="translate(230.289 34.1586)"/>
        </clipPath>
        <clipPath id="clip13_28_744">
            <rect width="57.1328" height="34.2797" fill="white" transform="translate(287.422 34.1586)"/>
        </clipPath>
        <clipPath id="clip14_28_744">
            <rect width="58.0117" height="34.2797" fill="white" transform="translate(344.554 34.1586)"/>
        </clipPath>
        <clipPath id="clip15_28_744">
            <rect width="57.1328" height="34.2797" fill="white" transform="translate(402.566 34.1586)"/>
        </clipPath>
    </defs>
</svg>
