<svg width="299" height="65" viewBox="0 0 299 65" fill="none" xmlns="http://www.w3.org/2000/svg">
    <g opacity="0.03">
        <g clip-path="url(#clip0_28_769)">
            <path fill-rule="evenodd" clip-rule="evenodd"
                  d="M270.574 34.2797L299 6.2846V2.28531L269.994 30.8517L240.988 2.28531V6.2846L269.414 34.2797H270.574ZM282.177 34.2797L299 17.7112V13.7119L278.116 34.2797H282.177ZM257.812 34.2797L240.988 17.7112V13.7119L261.873 34.2797H257.812ZM270.574 0L269.994 0.571328L269.414 0H270.574ZM282.177 0L269.994 11.9979L257.812 0H261.873L269.994 7.99859L278.116 0H282.177Z"
                  fill="#10152C"/>
        </g>
        <g clip-path="url(#clip1_28_769)">
            <path fill-rule="evenodd" clip-rule="evenodd"
                  d="M212.993 34.2797L240.988 6.2846V2.28531L212.422 30.8517L183.856 2.28531V6.2846L211.851 34.2797H212.993ZM224.42 34.2797L240.988 17.7112V13.7119L220.42 34.2797H224.42ZM200.424 34.2797L183.856 17.7112V13.7119L204.423 34.2797H200.424ZM212.993 0L212.422 0.571328L211.851 0H212.993ZM224.42 0L212.422 11.9979L200.424 0H204.423L212.422 7.99859L220.42 0H224.42Z"
                  fill="#10152C"/>
        </g>
        <g clip-path="url(#clip2_28_769)">
            <path fill-rule="evenodd" clip-rule="evenodd"
                  d="M155.86 34.2797L183.856 6.2846V2.28531L155.289 30.8517L126.723 2.28531V6.2846L154.718 34.2797H155.86ZM167.287 34.2797L183.856 17.7112V13.7119L163.288 34.2797H167.287ZM143.291 34.2797L126.723 17.7112V13.7119L147.291 34.2797H143.291ZM155.86 0L155.289 0.571328L154.718 0H155.86ZM167.287 0L155.289 11.9979L143.291 0H147.291L155.289 7.99859L163.288 0H167.287Z"
                  fill="#10152C"/>
        </g>
        <g clip-path="url(#clip3_28_769)">
            <path fill-rule="evenodd" clip-rule="evenodd"
                  d="M98.7277 34.2797L126.723 6.2846V2.28531L98.1564 30.8517L69.59 2.28531V6.2846L97.5851 34.2797H98.7277ZM110.154 34.2797L126.723 17.7112V13.7119L106.155 34.2797H110.154ZM86.1585 34.2797L69.59 17.7112V13.7119L90.1578 34.2797H86.1585ZM98.7277 0L98.1564 0.571328L97.5851 0H98.7277ZM110.154 0L98.1564 11.9979L86.1585 0H90.1578L98.1564 7.99859L106.155 0H110.154Z"
                  fill="#10152C"/>
        </g>
        <g clip-path="url(#clip4_28_769)">
            <path fill-rule="evenodd" clip-rule="evenodd"
                  d="M41.1643 34.2797L69.59 6.2846V2.28531L40.5842 30.8517L11.5783 2.28531V6.2846L40.0041 34.2797H41.1643ZM52.7666 34.2797L69.59 17.7112V13.7119L48.7058 34.2797H52.7666ZM28.4017 34.2797L11.5783 17.7112V13.7119L32.4625 34.2797H28.4017ZM41.1643 0L40.5842 0.571328L40.0041 0H41.1643ZM52.7666 0L40.5842 11.9979L28.4017 0H32.4625L40.5842 7.99859L48.7058 0H52.7666Z"
                  fill="#10152C"/>
        </g>
        <g clip-path="url(#clip5_28_769)">
            <path fill-rule="evenodd" clip-rule="evenodd"
                  d="M-16.4167 34.2797L11.5783 6.2846V2.28531L-16.9881 30.8517L-45.5544 2.28531V6.2846L-17.5594 34.2797H-16.4167ZM-4.99019 34.2797L11.5783 17.7112V13.7119L-8.98948 34.2797H-4.99019ZM-28.9859 34.2797L-45.5544 17.7112V13.7119L-24.9867 34.2797H-28.9859ZM-16.4167 0L-16.9881 0.571328L-17.5594 0H-16.4167ZM-4.99019 0L-16.9881 11.9979L-28.9859 0H-24.9867L-16.9881 7.99859L-8.98948 0H-4.99019Z"
                  fill="#10152C"/>
        </g>
        <g clip-path="url(#clip6_28_769)">
            <path fill-rule="evenodd" clip-rule="evenodd"
                  d="M270.574 70.3172L299 41.6043V37.5025L269.994 66.8013L240.988 37.5025V41.6043L269.414 70.3172H270.574ZM282.177 70.3172L299 53.3239V49.222L278.116 70.3172H282.177ZM257.812 70.3172L240.988 53.3239V49.222L261.873 70.3172H257.812ZM270.574 35.1586L269.994 35.7445L269.414 35.1586H270.574ZM282.177 35.1586L269.994 47.4641L257.812 35.1586H261.873L269.994 43.3622L278.116 35.1586H282.177Z"
                  fill="#10152C"/>
        </g>
        <g clip-path="url(#clip7_28_769)">
            <path fill-rule="evenodd" clip-rule="evenodd"
                  d="M212.993 70.3172L240.988 41.6043V37.5025L212.422 66.8013L183.856 37.5025V41.6043L211.851 70.3172H212.993ZM224.42 70.3172L240.988 53.3239V49.222L220.42 70.3172H224.42ZM200.424 70.3172L183.856 53.3239V49.222L204.423 70.3172H200.424ZM212.993 35.1586L212.422 35.7445L211.851 35.1586H212.993ZM224.42 35.1586L212.422 47.4641L200.424 35.1586H204.423L212.422 43.3622L220.42 35.1586H224.42Z"
                  fill="#10152C"/>
        </g>
        <g clip-path="url(#clip8_28_769)">
            <path fill-rule="evenodd" clip-rule="evenodd"
                  d="M155.43 69.4382L183.856 41.4432V37.4439L154.85 66.0103L125.844 37.4439V41.4432L154.27 69.4382H155.43ZM167.032 69.4382L183.856 52.8697V48.8704L162.971 69.4382H167.032ZM142.667 69.4382L125.844 52.8697V48.8704L146.728 69.4382H142.667ZM155.43 35.1586L154.85 35.7299L154.27 35.1586H155.43ZM167.032 35.1586L154.85 47.1564L142.667 35.1586H146.728L154.85 43.1572L162.971 35.1586H167.032Z"
                  fill="#10152C"/>
        </g>
        <g clip-path="url(#clip9_28_769)">
            <path fill-rule="evenodd" clip-rule="evenodd"
                  d="M97.8488 69.4382L125.844 41.4432V37.4439L97.2774 66.0103L68.7111 37.4439V41.4432L96.7061 69.4382H97.8488ZM109.275 69.4382L125.844 52.8697V48.8704L105.276 69.4382H109.275ZM85.2796 69.4382L68.7111 52.8697V48.8704L89.2788 69.4382H85.2796ZM97.8488 35.1586L97.2774 35.7299L96.7061 35.1586H97.8488ZM109.275 35.1586L97.2774 47.1564L85.2796 35.1586H89.2788L97.2774 43.1572L105.276 35.1586H109.275Z"
                  fill="#10152C"/>
        </g>
        <g clip-path="url(#clip10_28_769)">
            <path fill-rule="evenodd" clip-rule="evenodd"
                  d="M40.716 69.4382L68.7111 41.4432V37.4439L40.1447 66.0103L11.5783 37.4439V41.4432L39.5734 69.4382H40.716ZM52.1426 69.4382L68.7111 52.8697V48.8704L48.1433 69.4382H52.1426ZM28.1468 69.4382L11.5783 52.8697V48.8704L32.1461 69.4382H28.1468ZM40.716 35.1586L40.1447 35.7299L39.5734 35.1586H40.716ZM52.1426 35.1586L40.1447 47.1564L28.1468 35.1586H32.1461L40.1447 43.1572L48.1433 35.1586H52.1426Z"
                  fill="#10152C"/>
        </g>
        <g clip-path="url(#clip11_28_769)">
            <path fill-rule="evenodd" clip-rule="evenodd"
                  d="M-16.4167 69.4382L11.5783 41.4432V37.4439L-16.9881 66.0103L-45.5544 37.4439V41.4432L-17.5594 69.4382H-16.4167ZM-4.99019 69.4382L11.5783 52.8697V48.8704L-8.98948 69.4382H-4.99019ZM-28.9859 69.4382L-45.5544 52.8697V48.8704L-24.9867 69.4382H-28.9859ZM-16.4167 35.1586L-16.9881 35.7299L-17.5594 35.1586H-16.4167ZM-4.99019 35.1586L-16.9881 47.1564L-28.9859 35.1586H-24.9867L-16.9881 43.1572L-8.98948 35.1586H-4.99019Z"
                  fill="#10152C"/>
        </g>
    </g>
    <defs>
        <clipPath id="clip0_28_769">
            <rect width="58.0117" height="34.2797" fill="white" transform="matrix(-1 0 0 1 299 0)"/>
        </clipPath>
        <clipPath id="clip1_28_769">
            <rect width="57.1328" height="34.2797" fill="white" transform="matrix(-1 0 0 1 240.988 0)"/>
        </clipPath>
        <clipPath id="clip2_28_769">
            <rect width="57.1328" height="34.2797" fill="white" transform="matrix(-1 0 0 1 183.856 0)"/>
        </clipPath>
        <clipPath id="clip3_28_769">
            <rect width="57.1328" height="34.2797" fill="white" transform="matrix(-1 0 0 1 126.723 0)"/>
        </clipPath>
        <clipPath id="clip4_28_769">
            <rect width="58.0117" height="34.2797" fill="white" transform="matrix(-1 0 0 1 69.59 0)"/>
        </clipPath>
        <clipPath id="clip5_28_769">
            <rect width="57.1328" height="34.2797" fill="white" transform="matrix(-1 0 0 1 11.5783 0)"/>
        </clipPath>
        <clipPath id="clip6_28_769">
            <rect width="58.0117" height="35.1586" fill="white" transform="matrix(-1 0 0 1 299 35.1586)"/>
        </clipPath>
        <clipPath id="clip7_28_769">
            <rect width="57.1328" height="35.1586" fill="white" transform="matrix(-1 0 0 1 240.988 35.1586)"/>
        </clipPath>
        <clipPath id="clip8_28_769">
            <rect width="58.0117" height="34.2797" fill="white" transform="matrix(-1 0 0 1 183.856 35.1586)"/>
        </clipPath>
        <clipPath id="clip9_28_769">
            <rect width="57.1328" height="34.2797" fill="white" transform="matrix(-1 0 0 1 125.844 35.1586)"/>
        </clipPath>
        <clipPath id="clip10_28_769">
            <rect width="57.1328" height="34.2797" fill="white" transform="matrix(-1 0 0 1 68.7111 35.1586)"/>
        </clipPath>
        <clipPath id="clip11_28_769">
            <rect width="57.1328" height="34.2797" fill="white" transform="matrix(-1 0 0 1 11.5783 35.1586)"/>
        </clipPath>
    </defs>
</svg>
