<svg width="84" height="85" viewBox="0 0 84 85" fill="none" xmlns="http://www.w3.org/2000/svg">
<path d="M2 0C0.90566 0 0 0.90566 0 2C0 3.09434 0.90566 4 2 4C3.09434 4 4 3.09434 4 2C4 0.90566 3.13208 0 2 0Z" fill="white"/>
<path d="M18 4C19.1046 4 20 3.10457 20 2C20 0.895431 19.1046 0 18 0C16.8954 0 16 0.895431 16 2C16 3.10457 16.8954 4 18 4Z" fill="white"/>
<path d="M34 0C32.9057 0 32 0.90566 32 2C32 3.09434 32.9057 4 34 4C35.0943 4 36 3.09434 36 2C36 0.90566 35.1321 0 34 0Z" fill="white"/>
<path d="M50 4C51.1046 4 52 3.10457 52 2C52 0.895431 51.1046 0 50 0C48.8954 0 48 0.895431 48 2C48 3.10457 48.8954 4 50 4Z" fill="white"/>
<path d="M66 4C67.1046 4 68 3.10457 68 2C68 0.895431 67.1046 0 66 0C64.8954 0 64 0.895431 64 2C64 3.10457 64.8954 4 66 4Z" fill="white"/>
<path d="M82 4C83.1046 4 84 3.10457 84 2C84 0.895431 83.1046 0 82 0C80.8954 0 80 0.895431 80 2C80 3.10457 80.8954 4 82 4Z" fill="white"/>
<path d="M2 20C3.10457 20 4 19.1046 4 18C4 16.8954 3.10457 16 2 16C0.895431 16 0 16.8954 0 18C0 19.1046 0.895431 20 2 20Z" fill="white"/>
<path d="M18 20C19.1046 20 20 19.1046 20 18C20 16.8954 19.1046 16 18 16C16.8954 16 16 16.8954 16 18C16 19.1046 16.8954 20 18 20Z" fill="white"/>
<path d="M34 16C32.9057 16 32 16.9057 32 18C32 19.0943 32.9057 20 34 20C35.0943 20 36 19.0943 36 18C36 16.9057 35.1321 16 34 16Z" fill="white"/>
<path d="M50 20C51.1046 20 52 19.1046 52 18C52 16.8954 51.1046 16 50 16C48.8954 16 48 16.8954 48 18C48 19.1046 48.8954 20 50 20Z" fill="white"/>
<path d="M66 16C64.9057 16 64 16.9057 64 18C64 19.0943 64.9057 20 66 20C67.0943 20 68 19.0943 68 18C68 16.9057 67.1321 16 66 16Z" fill="white"/>
<path d="M82 20C83.1046 20 84 19.1046 84 18C84 16.8954 83.1046 16 82 16C80.8954 16 80 16.8954 80 18C80 19.1046 80.8954 20 82 20Z" fill="white"/>
<path d="M2 32C0.90566 32 0 32.9057 0 34C0 35.0943 0.90566 36 2 36C3.09434 36 4 35.0943 4 34C4 32.9057 3.13208 32 2 32Z" fill="white"/>
<path d="M18 36C19.1046 36 20 35.1046 20 34C20 32.8954 19.1046 32 18 32C16.8954 32 16 32.8954 16 34C16 35.1046 16.8954 36 18 36Z" fill="white"/>
<path d="M34 36C35.1046 36 36 35.1046 36 34C36 32.8954 35.1046 32 34 32C32.8954 32 32 32.8954 32 34C32 35.1046 32.8954 36 34 36Z" fill="white"/>
<path d="M50 36C51.1046 36 52 35.1046 52 34C52 32.8954 51.1046 32 50 32C48.8954 32 48 32.8954 48 34C48 35.1046 48.8954 36 50 36Z" fill="white"/>
<path d="M66 36C67.1046 36 68 35.1046 68 34C68 32.8954 67.1046 32 66 32C64.8954 32 64 32.8954 64 34C64 35.1046 64.8954 36 66 36Z" fill="white"/>
<path d="M82 36C83.1046 36 84 35.1046 84 34C84 32.8954 83.1046 32 82 32C80.8954 32 80 32.8954 80 34C80 35.1046 80.8954 36 82 36Z" fill="white"/>
<path d="M2 48C0.905657 48 0 48.9057 0 50C0 51.0943 0.905657 52 2 52C3.09434 52 4 51.0943 4 50C4 48.9057 3.13207 48 2 48Z" fill="white"/>
<path d="M18 52C19.1046 52 20 51.1046 20 50C20 48.8954 19.1046 48 18 48C16.8954 48 16 48.8954 16 50C16 51.1046 16.8954 52 18 52Z" fill="white"/>
<path d="M34 48C32.9057 48 32 48.9057 32 50C32 51.0943 32.9057 52 34 52C35.0943 52 36 51.0943 36 50C36 48.9057 35.1321 48 34 48Z" fill="white"/>
<path d="M50 52C51.1046 52 52 51.1046 52 50C52 48.8954 51.1046 48 50 48C48.8954 48 48 48.8954 48 50C48 51.1046 48.8954 52 50 52Z" fill="white"/>
<path d="M66 48C64.9057 48 64 48.9057 64 50C64 51.0943 64.9057 52 66 52C67.0943 52 68 51.0943 68 50C68 48.9057 67.1321 48 66 48Z" fill="white"/>
<path d="M82 52C83.1046 52 84 51.1046 84 50C84 48.8954 83.1046 48 82 48C80.8954 48 80 48.8954 80 50C80 51.1046 80.8954 52 82 52Z" fill="white"/>
<path d="M2 68C3.10457 68 4 67.1046 4 66C4 64.8954 3.10457 64 2 64C0.895429 64 0 64.8954 0 66C0 67.1046 0.895429 68 2 68Z" fill="white"/>
<path d="M18 68C19.1046 68 20 67.1046 20 66C20 64.8954 19.1046 64 18 64C16.8954 64 16 64.8954 16 66C16 67.1046 16.8954 68 18 68Z" fill="white"/>
<path d="M34 68C35.1046 68 36 67.1046 36 66C36 64.8954 35.1046 64 34 64C32.8954 64 32 64.8954 32 66C32 67.1046 32.8954 68 34 68Z" fill="white"/>
<path d="M50 68C51.1046 68 52 67.1046 52 66C52 64.8954 51.1046 64 50 64C48.8954 64 48 64.8954 48 66C48 67.1046 48.8954 68 50 68Z" fill="white"/>
<path d="M66 64C64.9057 64 64 64.9057 64 66C64 67.0943 64.9057 68 66 68C67.0943 68 68 67.0943 68 66C68 64.9057 67.1321 64 66 64Z" fill="white"/>
<path d="M82 68C83.1046 68 84 67.1046 84 66C84 64.8954 83.1046 64 82 64C80.8954 64 80 64.8954 80 66C80 67.1046 80.8954 68 82 68Z" fill="white"/>
<path d="M2 80C0.90566 80 0 80.9057 0 82C0 83.0943 0.90566 84 2 84C3.09434 84 4 83.0943 4 82C4 80.9057 3.13208 80 2 80Z" fill="white"/>
<path d="M18 84C19.1046 84 20 83.1046 20 82C20 80.8954 19.1046 80 18 80C16.8954 80 16 80.8954 16 82C16 83.1046 16.8954 84 18 84Z" fill="white"/>
<path d="M34 80C32.9057 80 32 80.9057 32 82C32 83.0943 32.9057 84 34 84C35.0943 84 36 83.0943 36 82C36 80.9057 35.1321 80 34 80Z" fill="white"/>
<path d="M50 84C51.1046 84 52 83.1046 52 82C52 80.8954 51.1046 80 50 80C48.8954 80 48 80.8954 48 82C48 83.1046 48.8954 84 50 84Z" fill="white"/>
<path d="M66 84C67.1046 84 68 83.1046 68 82C68 80.8954 67.1046 80 66 80C64.8954 80 64 80.8954 64 82C64 83.1046 64.8954 84 66 84Z" fill="white"/>
<path d="M82 84C83.1046 84 84 83.1046 84 82C84 80.8954 83.1046 80 82 80C80.8954 80 80 80.8954 80 82C80 83.1046 80.8954 84 82 84Z" fill="white"/>
</svg>
