<svg width="148" height="132" viewBox="0 0 148 132" fill="none" xmlns="http://www.w3.org/2000/svg">
    <path d="M2 0C0.90566 0 0 0.90566 0 2C0 3.09434 0.90566 4 2 4C3.09434 4 4 3.09434 4 2C4 0.90566 3.13208 0 2 0Z"
          fill="white"/>
    <path d="M18 4C19.1046 4 20 3.10457 20 2C20 0.895431 19.1046 0 18 0C16.8954 0 16 0.895431 16 2C16 3.10457 16.8954 4 18 4Z"
          fill="white"/>
    <path d="M34 0C32.9057 0 32 0.90566 32 2C32 3.09434 32.9057 4 34 4C35.0943 4 36 3.09434 36 2C36 0.90566 35.1321 0 34 0Z"
          fill="white"/>
    <path d="M50 4C51.1046 4 52 3.10457 52 2C52 0.895431 51.1046 0 50 0C48.8954 0 48 0.895431 48 2C48 3.10457 48.8954 4 50 4Z"
          fill="white"/>
    <path d="M66 4C67.1046 4 68 3.10457 68 2C68 0.895431 67.1046 0 66 0C64.8954 0 64 0.895431 64 2C64 3.10457 64.8954 4 66 4Z"
          fill="white"/>
    <path d="M82 4C83.1046 4 84 3.10457 84 2C84 0.895431 83.1046 0 82 0C80.8954 0 80 0.895431 80 2C80 3.10457 80.8954 4 82 4Z"
          fill="white"/>
    <path d="M98 4C99.1046 4 100 3.10457 100 2C100 0.895431 99.1046 0 98 0C96.8954 0 96 0.895431 96 2C96 3.10457 96.8954 4 98 4Z"
          fill="white"/>
    <path d="M114 4C115.105 4 116 3.10457 116 2C116 0.895431 115.105 0 114 0C112.895 0 112 0.895431 112 2C112 3.10457 112.895 4 114 4Z"
          fill="white"/>
    <path d="M130 0C128.906 0 128 0.90566 128 2C128 3.09434 128.906 4 130 4C131.094 4 132 3.09434 132 2C132 0.90566 131.132 0 130 0Z"
          fill="white"/>
    <path d="M146 4C147.105 4 148 3.10457 148 2C148 0.895431 147.105 0 146 0C144.895 0 144 0.895431 144 2C144 3.10457 144.895 4 146 4Z"
          fill="white"/>
    <path d="M2 16C0.90566 16 0 16.9057 0 18C0 19.0943 0.90566 20 2 20C3.09434 20 4 19.0943 4 18C4 16.9057 3.13208 16 2 16Z"
          fill="white"/>
    <path d="M18 20C19.1046 20 20 19.1046 20 18C20 16.8954 19.1046 16 18 16C16.8954 16 16 16.8954 16 18C16 19.1046 16.8954 20 18 20Z"
          fill="white"/>
    <path d="M34 16C32.9057 16 32 16.9057 32 18C32 19.0943 32.9057 20 34 20C35.0943 20 36 19.0943 36 18C36 16.9057 35.1321 16 34 16Z"
          fill="white"/>
    <path d="M50 20C51.1046 20 52 19.1046 52 18C52 16.8954 51.1046 16 50 16C48.8954 16 48 16.8954 48 18C48 19.1046 48.8954 20 50 20Z"
          fill="white"/>
    <path d="M66 20C67.1046 20 68 19.1046 68 18C68 16.8954 67.1046 16 66 16C64.8954 16 64 16.8954 64 18C64 19.1046 64.8954 20 66 20Z"
          fill="white"/>
    <path d="M82 20C83.1046 20 84 19.1046 84 18C84 16.8954 83.1046 16 82 16C80.8954 16 80 16.8954 80 18C80 19.1046 80.8954 20 82 20Z"
          fill="white"/>
    <path d="M98 20C99.1046 20 100 19.1046 100 18C100 16.8954 99.1046 16 98 16C96.8954 16 96 16.8954 96 18C96 19.1046 96.8954 20 98 20Z"
          fill="white"/>
    <path d="M114 20C115.105 20 116 19.1046 116 18C116 16.8954 115.105 16 114 16C112.895 16 112 16.8954 112 18C112 19.1046 112.895 20 114 20Z"
          fill="white"/>
    <path d="M130 16C128.906 16 128 16.9057 128 18C128 19.0943 128.906 20 130 20C131.094 20 132 19.0943 132 18C132 16.9057 131.132 16 130 16Z"
          fill="white"/>
    <path d="M146 20C147.105 20 148 19.1046 148 18C148 16.8954 147.105 16 146 16C144.895 16 144 16.8954 144 18C144 19.1046 144.895 20 146 20Z"
          fill="white"/>
    <path d="M2 32C0.90566 32 0 32.9057 0 34C0 35.0943 0.90566 36 2 36C3.09434 36 4 35.0943 4 34C4 32.9057 3.13208 32 2 32Z"
          fill="white"/>
    <path d="M18 36C19.1046 36 20 35.1046 20 34C20 32.8954 19.1046 32 18 32C16.8954 32 16 32.8954 16 34C16 35.1046 16.8954 36 18 36Z"
          fill="white"/>
    <path d="M34 32C32.9057 32 32 32.9057 32 34C32 35.0943 32.9057 36 34 36C35.0943 36 36 35.0943 36 34C36 32.9057 35.1321 32 34 32Z"
          fill="white"/>
    <path d="M50 36C51.1046 36 52 35.1046 52 34C52 32.8954 51.1046 32 50 32C48.8954 32 48 32.8954 48 34C48 35.1046 48.8954 36 50 36Z"
          fill="white"/>
    <path d="M66 36C67.1046 36 68 35.1046 68 34C68 32.8954 67.1046 32 66 32C64.8954 32 64 32.8954 64 34C64 35.1046 64.8954 36 66 36Z"
          fill="white"/>
    <path d="M82 36C83.1046 36 84 35.1046 84 34C84 32.8954 83.1046 32 82 32C80.8954 32 80 32.8954 80 34C80 35.1046 80.8954 36 82 36Z"
          fill="white"/>
    <path d="M98 36C99.1046 36 100 35.1046 100 34C100 32.8954 99.1046 32 98 32C96.8954 32 96 32.8954 96 34C96 35.1046 96.8954 36 98 36Z"
          fill="white"/>
    <path d="M114 36C115.105 36 116 35.1046 116 34C116 32.8954 115.105 32 114 32C112.895 32 112 32.8954 112 34C112 35.1046 112.895 36 114 36Z"
          fill="white"/>
    <path d="M130 32C128.906 32 128 32.9057 128 34C128 35.0943 128.906 36 130 36C131.094 36 132 35.0943 132 34C132 32.9057 131.132 32 130 32Z"
          fill="white"/>
    <path d="M146 36C147.105 36 148 35.1046 148 34C148 32.8954 147.105 32 146 32C144.895 32 144 32.8954 144 34C144 35.1046 144.895 36 146 36Z"
          fill="white"/>
    <path d="M2 48C0.90566 48 0 48.9057 0 50C0 51.0943 0.90566 52 2 52C3.09434 52 4 51.0943 4 50C4 48.9057 3.13208 48 2 48Z"
          fill="white"/>
    <path d="M18 52C19.1046 52 20 51.1046 20 50C20 48.8954 19.1046 48 18 48C16.8954 48 16 48.8954 16 50C16 51.1046 16.8954 52 18 52Z"
          fill="white"/>
    <path d="M34 48C32.9057 48 32 48.9057 32 50C32 51.0943 32.9057 52 34 52C35.0943 52 36 51.0943 36 50C36 48.9057 35.1321 48 34 48Z"
          fill="white"/>
    <path d="M50 52C51.1046 52 52 51.1046 52 50C52 48.8954 51.1046 48 50 48C48.8954 48 48 48.8954 48 50C48 51.1046 48.8954 52 50 52Z"
          fill="white"/>
    <path d="M66 52C67.1046 52 68 51.1046 68 50C68 48.8954 67.1046 48 66 48C64.8954 48 64 48.8954 64 50C64 51.1046 64.8954 52 66 52Z"
          fill="white"/>
    <path d="M82 52C83.1046 52 84 51.1046 84 50C84 48.8954 83.1046 48 82 48C80.8954 48 80 48.8954 80 50C80 51.1046 80.8954 52 82 52Z"
          fill="white"/>
    <path d="M98 52C99.1046 52 100 51.1046 100 50C100 48.8954 99.1046 48 98 48C96.8954 48 96 48.8954 96 50C96 51.1046 96.8954 52 98 52Z"
          fill="white"/>
    <path d="M114 52C115.105 52 116 51.1046 116 50C116 48.8954 115.105 48 114 48C112.895 48 112 48.8954 112 50C112 51.1046 112.895 52 114 52Z"
          fill="white"/>
    <path d="M130 48C128.906 48 128 48.9057 128 50C128 51.0943 128.906 52 130 52C131.094 52 132 51.0943 132 50C132 48.9057 131.132 48 130 48Z"
          fill="white"/>
    <path d="M146 52C147.105 52 148 51.1046 148 50C148 48.8954 147.105 48 146 48C144.895 48 144 48.8954 144 50C144 51.1046 144.895 52 146 52Z"
          fill="white"/>
    <path d="M2 64C0.90566 64 0 64.9057 0 66C0 67.0943 0.90566 68 2 68C3.09434 68 4 67.0943 4 66C4 64.8679 3.13208 64 2 64Z"
          fill="white"/>
    <path d="M18 68C19.1046 68 20 67.1046 20 66C20 64.8954 19.1046 64 18 64C16.8954 64 16 64.8954 16 66C16 67.1046 16.8954 68 18 68Z"
          fill="white"/>
    <path d="M34 64C32.9057 64 32 64.9057 32 66C32 67.0943 32.9057 68 34 68C35.0943 68 36 67.0943 36 66C36 64.8679 35.1321 64 34 64Z"
          fill="white"/>
    <path d="M50 68C51.1046 68 52 67.1046 52 66C52 64.8954 51.1046 64 50 64C48.8954 64 48 64.8954 48 66C48 67.1046 48.8954 68 50 68Z"
          fill="white"/>
    <path d="M66 68C67.1046 68 68 67.1046 68 66C68 64.8954 67.1046 64 66 64C64.8954 64 64 64.8954 64 66C64 67.1046 64.8954 68 66 68Z"
          fill="white"/>
    <path d="M82 68C83.1046 68 84 67.1046 84 66C84 64.8954 83.1046 64 82 64C80.8954 64 80 64.8954 80 66C80 67.1046 80.8954 68 82 68Z"
          fill="white"/>
    <path d="M98 68C99.1046 68 100 67.1046 100 66C100 64.8954 99.1046 64 98 64C96.8954 64 96 64.8954 96 66C96 67.1046 96.8954 68 98 68Z"
          fill="white"/>
    <path d="M114 68C115.105 68 116 67.1046 116 66C116 64.8954 115.105 64 114 64C112.895 64 112 64.8954 112 66C112 67.1046 112.895 68 114 68Z"
          fill="white"/>
    <path d="M130 64C128.906 64 128 64.9057 128 66C128 67.0943 128.906 68 130 68C131.094 68 132 67.0943 132 66C132 64.8679 131.132 64 130 64Z"
          fill="white"/>
    <path d="M146 68C147.105 68 148 67.1046 148 66C148 64.8954 147.105 64 146 64C144.895 64 144 64.8954 144 66C144 67.1046 144.895 68 146 68Z"
          fill="white"/>
    <path d="M2 80C0.90566 80 0 80.9057 0 82C0 83.0943 0.90566 84 2 84C3.09434 84 4 83.0943 4 82C4 80.8679 3.13208 80 2 80Z"
          fill="white"/>
    <path d="M18 84C19.1046 84 20 83.1046 20 82C20 80.8954 19.1046 80 18 80C16.8954 80 16 80.8954 16 82C16 83.1046 16.8954 84 18 84Z"
          fill="white"/>
    <path d="M34 80C32.9057 80 32 80.9057 32 82C32 83.0943 32.9057 84 34 84C35.0943 84 36 83.0943 36 82C36 80.8679 35.1321 80 34 80Z"
          fill="white"/>
    <path d="M50 84C51.1046 84 52 83.1046 52 82C52 80.8954 51.1046 80 50 80C48.8954 80 48 80.8954 48 82C48 83.1046 48.8954 84 50 84Z"
          fill="white"/>
    <path d="M66 84C67.1046 84 68 83.1046 68 82C68 80.8954 67.1046 80 66 80C64.8954 80 64 80.8954 64 82C64 83.1046 64.8954 84 66 84Z"
          fill="white"/>
    <path d="M82 84C83.1046 84 84 83.1046 84 82C84 80.8954 83.1046 80 82 80C80.8954 80 80 80.8954 80 82C80 83.1046 80.8954 84 82 84Z"
          fill="white"/>
    <path d="M98 84C99.1046 84 100 83.1046 100 82C100 80.8954 99.1046 80 98 80C96.8954 80 96 80.8954 96 82C96 83.1046 96.8954 84 98 84Z"
          fill="white"/>
    <path d="M114 84C115.105 84 116 83.1046 116 82C116 80.8954 115.105 80 114 80C112.895 80 112 80.8954 112 82C112 83.1046 112.895 84 114 84Z"
          fill="white"/>
    <path d="M130 80C128.906 80 128 80.9057 128 82C128 83.0943 128.906 84 130 84C131.094 84 132 83.0943 132 82C132 80.8679 131.132 80 130 80Z"
          fill="white"/>
    <path d="M146 84C147.105 84 148 83.1046 148 82C148 80.8954 147.105 80 146 80C144.895 80 144 80.8954 144 82C144 83.1046 144.895 84 146 84Z"
          fill="white"/>
    <path d="M2 96C0.90566 96 0 96.9057 0 98C0 99.0943 0.90566 100 2 100C3.09434 100 4 99.0943 4 98C4 96.9057 3.13208 96 2 96Z"
          fill="white"/>
    <path d="M18 100C19.1046 100 20 99.1046 20 98C20 96.8954 19.1046 96 18 96C16.8954 96 16 96.8954 16 98C16 99.1046 16.8954 100 18 100Z"
          fill="white"/>
    <path d="M34 96C32.9057 96 32 96.9057 32 98C32 99.0943 32.9057 100 34 100C35.0943 100 36 99.0943 36 98C36 96.9057 35.1321 96 34 96Z"
          fill="white"/>
    <path d="M50 100C51.1046 100 52 99.1046 52 98C52 96.8954 51.1046 96 50 96C48.8954 96 48 96.8954 48 98C48 99.1046 48.8954 100 50 100Z"
          fill="white"/>
    <path d="M66 100C67.1046 100 68 99.1046 68 98C68 96.8954 67.1046 96 66 96C64.8954 96 64 96.8954 64 98C64 99.1046 64.8954 100 66 100Z"
          fill="white"/>
    <path d="M82 100C83.1046 100 84 99.1046 84 98C84 96.8954 83.1046 96 82 96C80.8954 96 80 96.8954 80 98C80 99.1046 80.8954 100 82 100Z"
          fill="white"/>
    <path d="M98 100C99.1046 100 100 99.1046 100 98C100 96.8954 99.1046 96 98 96C96.8954 96 96 96.8954 96 98C96 99.1046 96.8954 100 98 100Z"
          fill="white"/>
    <path d="M114 100C115.105 100 116 99.1046 116 98C116 96.8954 115.105 96 114 96C112.895 96 112 96.8954 112 98C112 99.1046 112.895 100 114 100Z"
          fill="white"/>
    <path d="M130 96C128.906 96 128 96.9057 128 98C128 99.0943 128.906 100 130 100C131.094 100 132 99.0943 132 98C132 96.9057 131.132 96 130 96Z"
          fill="white"/>
    <path d="M146 100C147.105 100 148 99.1046 148 98C148 96.8954 147.105 96 146 96C144.895 96 144 96.8954 144 98C144 99.1046 144.895 100 146 100Z"
          fill="white"/>
    <path d="M2 112C0.90566 112 0 112.906 0 114C0 115.094 0.90566 116 2 116C3.09434 116 4 115.094 4 114C4 112.906 3.13208 112 2 112Z"
          fill="white"/>
    <path d="M18 116C19.1046 116 20 115.105 20 114C20 112.895 19.1046 112 18 112C16.8954 112 16 112.895 16 114C16 115.105 16.8954 116 18 116Z"
          fill="white"/>
    <path d="M34 112C32.9057 112 32 112.906 32 114C32 115.094 32.9057 116 34 116C35.0943 116 36 115.094 36 114C36 112.906 35.1321 112 34 112Z"
          fill="white"/>
    <path d="M50 116C51.1046 116 52 115.105 52 114C52 112.895 51.1046 112 50 112C48.8954 112 48 112.895 48 114C48 115.105 48.8954 116 50 116Z"
          fill="white"/>
    <path d="M66 116C67.1046 116 68 115.105 68 114C68 112.895 67.1046 112 66 112C64.8954 112 64 112.895 64 114C64 115.105 64.8954 116 66 116Z"
          fill="white"/>
    <path d="M82 116C83.1046 116 84 115.105 84 114C84 112.895 83.1046 112 82 112C80.8954 112 80 112.895 80 114C80 115.105 80.8954 116 82 116Z"
          fill="white"/>
    <path d="M98 116C99.1046 116 100 115.105 100 114C100 112.895 99.1046 112 98 112C96.8954 112 96 112.895 96 114C96 115.105 96.8954 116 98 116Z"
          fill="white"/>
    <path d="M114 116C115.105 116 116 115.105 116 114C116 112.895 115.105 112 114 112C112.895 112 112 112.895 112 114C112 115.105 112.895 116 114 116Z"
          fill="white"/>
    <path d="M130 112C128.906 112 128 112.906 128 114C128 115.094 128.906 116 130 116C131.094 116 132 115.094 132 114C132 112.906 131.132 112 130 112Z"
          fill="white"/>
    <path d="M146 116C147.105 116 148 115.105 148 114C148 112.895 147.105 112 146 112C144.895 112 144 112.895 144 114C144 115.105 144.895 116 146 116Z"
          fill="white"/>
    <path d="M2 128C0.90566 128 0 128.906 0 130C0 131.094 0.90566 132 2 132C3.09434 132 4 131.094 4 130C4 128.906 3.13208 128 2 128Z"
          fill="white"/>
    <path d="M18 132C19.1046 132 20 131.105 20 130C20 128.895 19.1046 128 18 128C16.8954 128 16 128.895 16 130C16 131.105 16.8954 132 18 132Z"
          fill="white"/>
    <path d="M34 128C32.9057 128 32 128.906 32 130C32 131.094 32.9057 132 34 132C35.0943 132 36 131.094 36 130C36 128.906 35.1321 128 34 128Z"
          fill="white"/>
    <path d="M50 132C51.1046 132 52 131.105 52 130C52 128.895 51.1046 128 50 128C48.8954 128 48 128.895 48 130C48 131.105 48.8954 132 50 132Z"
          fill="white"/>
    <path d="M66 132C67.1046 132 68 131.105 68 130C68 128.895 67.1046 128 66 128C64.8954 128 64 128.895 64 130C64 131.105 64.8954 132 66 132Z"
          fill="white"/>
    <path d="M82 132C83.1046 132 84 131.105 84 130C84 128.895 83.1046 128 82 128C80.8954 128 80 128.895 80 130C80 131.105 80.8954 132 82 132Z"
          fill="white"/>
    <path d="M98 132C99.1046 132 100 131.105 100 130C100 128.895 99.1046 128 98 128C96.8954 128 96 128.895 96 130C96 131.105 96.8954 132 98 132Z"
          fill="white"/>
    <path d="M114 132C115.105 132 116 131.105 116 130C116 128.895 115.105 128 114 128C112.895 128 112 128.895 112 130C112 131.105 112.895 132 114 132Z"
          fill="white"/>
    <path d="M130 128C128.906 128 128 128.906 128 130C128 131.094 128.906 132 130 132C131.094 132 132 131.094 132 130C132 128.906 131.132 128 130 128Z"
          fill="white"/>
    <path d="M146 132C147.105 132 148 131.105 148 130C148 128.895 147.105 128 146 128C144.895 128 144 128.895 144 130C144 131.105 144.895 132 146 132Z"
          fill="white"/>
</svg>
