<svg width="400" height="400" viewBox="0 0 400 400" fill="none" xmlns="http://www.w3.org/2000/svg">
    <g opacity="0.05">
        <g clip-path="url(#clip0_160_3288)">
            <g clip-path="url(#clip1_160_3288)">
                <path fill-rule="evenodd" clip-rule="evenodd"
                      d="M33 39.7959L0 7.29592V2.65306L33.6735 35.8163L67.3469 2.65306V7.29592L34.3469 39.7959H33ZM19.5306 39.7959L0 20.5612V15.9184L24.2449 39.7959H19.5306ZM47.8163 39.7959L67.3469 20.5612V15.9184L43.102 39.7959H47.8163ZM33 0L33.6735 0.663265L34.3469 0H33ZM19.5306 0L33.6735 13.9286L47.8163 0H43.102L33.6735 9.28571L24.2449 0H19.5306Z"
                      fill="#10152C"/>
            </g>
            <g clip-path="url(#clip2_160_3288)">
                <path fill-rule="evenodd" clip-rule="evenodd"
                      d="M99.8469 39.7959L67.3469 7.29592V2.65306L100.51 35.8163L133.673 2.65306V7.29592L101.173 39.7959H99.8469ZM86.5816 39.7959L67.3469 20.5612V15.9184L91.2245 39.7959H86.5816ZM114.439 39.7959L133.673 20.5612V15.9184L109.796 39.7959H114.439ZM99.8469 0L100.51 0.663265L101.173 0H99.8469ZM86.5816 0L100.51 13.9286L114.439 0H109.796L100.51 9.28571L91.2245 0H86.5816Z"
                      fill="#10152C"/>
            </g>
            <g clip-path="url(#clip3_160_3288)">
                <path fill-rule="evenodd" clip-rule="evenodd"
                      d="M166.173 39.7959L133.673 7.29592V2.65306L166.837 35.8163L200 2.65306V7.29592L167.5 39.7959H166.173ZM152.908 39.7959L133.673 20.5612V15.9184L157.551 39.7959H152.908ZM180.765 39.7959L200 20.5612V15.9184L176.122 39.7959H180.765ZM166.173 0L166.837 0.663265L167.5 0H166.173ZM152.908 0L166.837 13.9286L180.765 0H176.122L166.837 9.28571L157.551 0H152.908Z"
                      fill="#10152C"/>
            </g>
            <g clip-path="url(#clip4_160_3288)">
                <path fill-rule="evenodd" clip-rule="evenodd"
                      d="M232.5 39.7959L200 7.29592V2.65306L233.163 35.8163L266.327 2.65306V7.29592L233.827 39.7959H232.5ZM219.235 39.7959L200 20.5612V15.9184L223.878 39.7959H219.235ZM247.092 39.7959L266.327 20.5612V15.9184L242.449 39.7959H247.092ZM232.5 0L233.163 0.663265L233.827 0H232.5ZM219.235 0L233.163 13.9286L247.092 0H242.449L233.163 9.28571L223.878 0H219.235Z"
                      fill="#10152C"/>
            </g>
            <g clip-path="url(#clip5_160_3288)">
                <path fill-rule="evenodd" clip-rule="evenodd"
                      d="M299.327 39.7959L266.327 7.29592V2.65306L300 35.8163L333.673 2.65306V7.29592L300.673 39.7959H299.327ZM285.857 39.7959L266.327 20.5612V15.9184L290.571 39.7959H285.857ZM314.143 39.7959L333.673 20.5612V15.9184L309.429 39.7959H314.143ZM299.327 0L300 0.663265L300.673 0H299.327ZM285.857 0L300 13.9286L314.143 0H309.429L300 9.28571L290.571 0H285.857Z"
                      fill="#10152C"/>
            </g>
            <g clip-path="url(#clip6_160_3288)">
                <path fill-rule="evenodd" clip-rule="evenodd"
                      d="M366.173 39.7959L333.673 7.29592V2.65306L366.837 35.8163L400 2.65306V7.29592L367.5 39.7959H366.173ZM352.908 39.7959L333.673 20.5612V15.9184L357.551 39.7959H352.908ZM380.765 39.7959L400 20.5612V15.9184L376.122 39.7959H380.765ZM366.173 0L366.837 0.663265L367.5 0H366.173ZM352.908 0L366.837 13.9286L380.765 0H376.122L366.837 9.28571L357.551 0H352.908Z"
                      fill="#10152C"/>
            </g>
            <g clip-path="url(#clip7_160_3288)">
                <path fill-rule="evenodd" clip-rule="evenodd"
                      d="M33 80.6122L0 47.2789V42.517L33.6735 76.5306L67.3469 42.517V47.2789L34.3469 80.6122H33ZM19.5306 80.6122L0 60.8843V56.1224L24.2449 80.6122H19.5306ZM47.8163 80.6122L67.3469 60.8843V56.1224L43.102 80.6122H47.8163ZM33 39.7959L33.6735 40.4762L34.3469 39.7959H33ZM19.5306 39.7959L33.6735 54.0816L47.8163 39.7959H43.102L33.6735 49.3197L24.2449 39.7959H19.5306Z"
                      fill="#10152C"/>
            </g>
            <g clip-path="url(#clip8_160_3288)">
                <path fill-rule="evenodd" clip-rule="evenodd"
                      d="M99.8469 80.6122L67.3469 47.2789V42.517L100.51 76.5306L133.673 42.517V47.2789L101.173 80.6122H99.8469ZM86.5816 80.6122L67.3469 60.8843V56.1224L91.2245 80.6122H86.5816ZM114.439 80.6122L133.673 60.8843V56.1224L109.796 80.6122H114.439ZM99.8469 39.7959L100.51 40.4762L101.173 39.7959H99.8469ZM86.5816 39.7959L100.51 54.0816L114.439 39.7959H109.796L100.51 49.3197L91.2245 39.7959H86.5816Z"
                      fill="#10152C"/>
            </g>
            <g clip-path="url(#clip9_160_3288)">
                <path fill-rule="evenodd" clip-rule="evenodd"
                      d="M166.173 80.6122L133.673 47.2789V42.517L166.837 76.5306L200 42.517V47.2789L167.5 80.6122H166.173ZM152.908 80.6122L133.673 60.8843V56.1224L157.551 80.6122H152.908ZM180.765 80.6122L200 60.8843V56.1224L176.122 80.6122H180.765ZM166.173 39.7959L166.837 40.4762L167.5 39.7959H166.173ZM152.908 39.7959L166.837 54.0816L180.765 39.7959H176.122L166.837 49.3197L157.551 39.7959H152.908Z"
                      fill="#10152C"/>
            </g>
            <g clip-path="url(#clip10_160_3288)">
                <path fill-rule="evenodd" clip-rule="evenodd"
                      d="M232.5 80.6122L200 47.2789V42.517L233.163 76.5306L266.327 42.517V47.2789L233.827 80.6122H232.5ZM219.235 80.6122L200 60.8843V56.1224L223.878 80.6122H219.235ZM247.092 80.6122L266.327 60.8843V56.1224L242.449 80.6122H247.092ZM232.5 39.7959L233.163 40.4762L233.827 39.7959H232.5ZM219.235 39.7959L233.163 54.0816L247.092 39.7959H242.449L233.163 49.3197L223.878 39.7959H219.235Z"
                      fill="#10152C"/>
            </g>
            <g clip-path="url(#clip11_160_3288)">
                <path fill-rule="evenodd" clip-rule="evenodd"
                      d="M299.327 80.6122L266.327 47.2789V42.517L300 76.5306L333.673 42.517V47.2789L300.673 80.6122H299.327ZM285.857 80.6122L266.327 60.8843V56.1224L290.571 80.6122H285.857ZM314.143 80.6122L333.673 60.8843V56.1224L309.429 80.6122H314.143ZM299.327 39.7959L300 40.4762L300.673 39.7959H299.327ZM285.857 39.7959L300 54.0816L314.143 39.7959H309.429L300 49.3197L290.571 39.7959H285.857Z"
                      fill="#10152C"/>
            </g>
            <g clip-path="url(#clip12_160_3288)">
                <path fill-rule="evenodd" clip-rule="evenodd"
                      d="M366.173 80.6122L333.673 47.2789V42.517L366.837 76.5306L400 42.517V47.2789L367.5 80.6122H366.173ZM352.908 80.6122L333.673 60.8843V56.1224L357.551 80.6122H352.908ZM380.765 80.6122L400 60.8843V56.1224L376.122 80.6122H380.765ZM366.173 39.7959L366.837 40.4762L367.5 39.7959H366.173ZM352.908 39.7959L366.837 54.0816L380.765 39.7959H376.122L366.837 49.3197L357.551 39.7959H352.908Z"
                      fill="#10152C"/>
            </g>
            <g clip-path="url(#clip13_160_3288)">
                <path fill-rule="evenodd" clip-rule="evenodd"
                      d="M33 120.408L0 87.9082V83.2653L33.6735 116.429L67.3469 83.2653V87.9082L34.3469 120.408H33ZM19.5306 120.408L0 101.173V96.5306L24.2449 120.408H19.5306ZM47.8163 120.408L67.3469 101.173V96.5306L43.102 120.408H47.8163ZM33 80.6122L33.6735 81.2755L34.3469 80.6122H33ZM19.5306 80.6122L33.6735 94.5408L47.8163 80.6122H43.102L33.6735 89.898L24.2449 80.6122H19.5306Z"
                      fill="#10152C"/>
            </g>
            <g clip-path="url(#clip14_160_3288)">
                <path fill-rule="evenodd" clip-rule="evenodd"
                      d="M99.8469 120.408L67.3469 87.9082V83.2653L100.51 116.429L133.673 83.2653V87.9082L101.173 120.408H99.8469ZM86.5816 120.408L67.3469 101.173V96.5306L91.2245 120.408H86.5816ZM114.439 120.408L133.673 101.173V96.5306L109.796 120.408H114.439ZM99.8469 80.6122L100.51 81.2755L101.173 80.6122H99.8469ZM86.5816 80.6122L100.51 94.5408L114.439 80.6122H109.796L100.51 89.898L91.2245 80.6122H86.5816Z"
                      fill="#10152C"/>
            </g>
            <g clip-path="url(#clip15_160_3288)">
                <path fill-rule="evenodd" clip-rule="evenodd"
                      d="M166.173 120.408L133.673 87.9082V83.2653L166.837 116.429L200 83.2653V87.9082L167.5 120.408H166.173ZM152.908 120.408L133.673 101.173V96.5306L157.551 120.408H152.908ZM180.765 120.408L200 101.173V96.5306L176.122 120.408H180.765ZM166.173 80.6122L166.837 81.2755L167.5 80.6122H166.173ZM152.908 80.6122L166.837 94.5408L180.765 80.6122H176.122L166.837 89.898L157.551 80.6122H152.908Z"
                      fill="#10152C"/>
            </g>
            <g clip-path="url(#clip16_160_3288)">
                <path fill-rule="evenodd" clip-rule="evenodd"
                      d="M232.5 120.408L200 87.9082V83.2653L233.163 116.429L266.327 83.2653V87.9082L233.827 120.408H232.5ZM219.235 120.408L200 101.173V96.5306L223.878 120.408H219.235ZM247.092 120.408L266.327 101.173V96.5306L242.449 120.408H247.092ZM232.5 80.6122L233.163 81.2755L233.827 80.6122H232.5ZM219.235 80.6122L233.163 94.5408L247.092 80.6122H242.449L233.163 89.898L223.878 80.6122H219.235Z"
                      fill="#10152C"/>
            </g>
            <g clip-path="url(#clip17_160_3288)">
                <path fill-rule="evenodd" clip-rule="evenodd"
                      d="M299.327 120.408L266.327 87.9082V83.2653L300 116.429L333.673 83.2653V87.9082L300.673 120.408H299.327ZM285.857 120.408L266.327 101.173V96.5306L290.571 120.408H285.857ZM314.143 120.408L333.673 101.173V96.5306L309.429 120.408H314.143ZM299.327 80.6122L300 81.2755L300.673 80.6122H299.327ZM285.857 80.6122L300 94.5408L314.143 80.6122H309.429L300 89.898L290.571 80.6122H285.857Z"
                      fill="#10152C"/>
            </g>
            <g clip-path="url(#clip18_160_3288)">
                <path fill-rule="evenodd" clip-rule="evenodd"
                      d="M366.173 120.408L333.673 87.9082V83.2653L366.837 116.429L400 83.2653V87.9082L367.5 120.408H366.173ZM352.908 120.408L333.673 101.173V96.5306L357.551 120.408H352.908ZM380.765 120.408L400 101.173V96.5306L376.122 120.408H380.765ZM366.173 80.6122L366.837 81.2755L367.5 80.6122H366.173ZM352.908 80.6122L366.837 94.5408L380.765 80.6122H376.122L366.837 89.898L357.551 80.6122H352.908Z"
                      fill="#10152C"/>
            </g>
            <g clip-path="url(#clip19_160_3288)">
                <path fill-rule="evenodd" clip-rule="evenodd"
                      d="M33 160.204L0 127.704V123.061L33.6735 156.224L67.3469 123.061V127.704L34.3469 160.204H33ZM19.5306 160.204L0 140.969V136.327L24.2449 160.204H19.5306ZM47.8163 160.204L67.3469 140.969V136.327L43.102 160.204H47.8163ZM33 120.408L33.6735 121.071L34.3469 120.408H33ZM19.5306 120.408L33.6735 134.337L47.8163 120.408H43.102L33.6735 129.694L24.2449 120.408H19.5306Z"
                      fill="#10152C"/>
            </g>
            <g clip-path="url(#clip20_160_3288)">
                <path fill-rule="evenodd" clip-rule="evenodd"
                      d="M99.8469 160.204L67.3469 127.704V123.061L100.51 156.224L133.673 123.061V127.704L101.173 160.204H99.8469ZM86.5816 160.204L67.3469 140.969V136.327L91.2245 160.204H86.5816ZM114.439 160.204L133.673 140.969V136.327L109.796 160.204H114.439ZM99.8469 120.408L100.51 121.071L101.173 120.408H99.8469ZM86.5816 120.408L100.51 134.337L114.439 120.408H109.796L100.51 129.694L91.2245 120.408H86.5816Z"
                      fill="#10152C"/>
            </g>
            <g clip-path="url(#clip21_160_3288)">
                <path fill-rule="evenodd" clip-rule="evenodd"
                      d="M166.173 160.204L133.673 127.704V123.061L166.837 156.224L200 123.061V127.704L167.5 160.204H166.173ZM152.908 160.204L133.673 140.969V136.327L157.551 160.204H152.908ZM180.765 160.204L200 140.969V136.327L176.122 160.204H180.765ZM166.173 120.408L166.837 121.071L167.5 120.408H166.173ZM152.908 120.408L166.837 134.337L180.765 120.408H176.122L166.837 129.694L157.551 120.408H152.908Z"
                      fill="#10152C"/>
            </g>
            <g clip-path="url(#clip22_160_3288)">
                <path fill-rule="evenodd" clip-rule="evenodd"
                      d="M232.5 160.204L200 127.704V123.061L233.163 156.224L266.327 123.061V127.704L233.827 160.204H232.5ZM219.235 160.204L200 140.969V136.327L223.878 160.204H219.235ZM247.092 160.204L266.327 140.969V136.327L242.449 160.204H247.092ZM232.5 120.408L233.163 121.071L233.827 120.408H232.5ZM219.235 120.408L233.163 134.337L247.092 120.408H242.449L233.163 129.694L223.878 120.408H219.235Z"
                      fill="#10152C"/>
            </g>
            <g clip-path="url(#clip23_160_3288)">
                <path fill-rule="evenodd" clip-rule="evenodd"
                      d="M299.327 160.204L266.327 127.704V123.061L300 156.224L333.673 123.061V127.704L300.673 160.204H299.327ZM285.857 160.204L266.327 140.969V136.327L290.571 160.204H285.857ZM314.143 160.204L333.673 140.969V136.327L309.429 160.204H314.143ZM299.327 120.408L300 121.071L300.673 120.408H299.327ZM285.857 120.408L300 134.337L314.143 120.408H309.429L300 129.694L290.571 120.408H285.857Z"
                      fill="#10152C"/>
            </g>
            <g clip-path="url(#clip24_160_3288)">
                <path fill-rule="evenodd" clip-rule="evenodd"
                      d="M366.173 160.204L333.673 127.704V123.061L366.837 156.224L400 123.061V127.704L367.5 160.204H366.173ZM352.908 160.204L333.673 140.969V136.327L357.551 160.204H352.908ZM380.765 160.204L400 140.969V136.327L376.122 160.204H380.765ZM366.173 120.408L366.837 121.071L367.5 120.408H366.173ZM352.908 120.408L366.837 134.337L380.765 120.408H376.122L366.837 129.694L357.551 120.408H352.908Z"
                      fill="#10152C"/>
            </g>
            <g clip-path="url(#clip25_160_3288)">
                <path fill-rule="evenodd" clip-rule="evenodd"
                      d="M33 200L0 167.5V162.857L33.6735 196.02L67.3469 162.857V167.5L34.3469 200H33ZM19.5306 200L0 180.765V176.122L24.2449 200H19.5306ZM47.8163 200L67.3469 180.765V176.122L43.102 200H47.8163ZM33 160.204L33.6735 160.867L34.3469 160.204H33ZM19.5306 160.204L33.6735 174.133L47.8163 160.204H43.102L33.6735 169.49L24.2449 160.204H19.5306Z"
                      fill="#10152C"/>
            </g>
            <g clip-path="url(#clip26_160_3288)">
                <path fill-rule="evenodd" clip-rule="evenodd"
                      d="M99.8469 200L67.3469 167.5V162.857L100.51 196.02L133.673 162.857V167.5L101.173 200H99.8469ZM86.5816 200L67.3469 180.765V176.122L91.2245 200H86.5816ZM114.439 200L133.673 180.765V176.122L109.796 200H114.439ZM99.8469 160.204L100.51 160.867L101.173 160.204H99.8469ZM86.5816 160.204L100.51 174.133L114.439 160.204H109.796L100.51 169.49L91.2245 160.204H86.5816Z"
                      fill="#10152C"/>
            </g>
            <g clip-path="url(#clip27_160_3288)">
                <path fill-rule="evenodd" clip-rule="evenodd"
                      d="M166.173 200L133.673 167.5V162.857L166.837 196.02L200 162.857V167.5L167.5 200H166.173ZM152.908 200L133.673 180.765V176.122L157.551 200H152.908ZM180.765 200L200 180.765V176.122L176.122 200H180.765ZM166.173 160.204L166.837 160.867L167.5 160.204H166.173ZM152.908 160.204L166.837 174.133L180.765 160.204H176.122L166.837 169.49L157.551 160.204H152.908Z"
                      fill="#10152C"/>
            </g>
            <g clip-path="url(#clip28_160_3288)">
                <path fill-rule="evenodd" clip-rule="evenodd"
                      d="M232.5 200L200 167.5V162.857L233.163 196.02L266.327 162.857V167.5L233.827 200H232.5ZM219.235 200L200 180.765V176.122L223.878 200H219.235ZM247.092 200L266.327 180.765V176.122L242.449 200H247.092ZM232.5 160.204L233.163 160.867L233.827 160.204H232.5ZM219.235 160.204L233.163 174.133L247.092 160.204H242.449L233.163 169.49L223.878 160.204H219.235Z"
                      fill="#10152C"/>
            </g>
            <g clip-path="url(#clip29_160_3288)">
                <path fill-rule="evenodd" clip-rule="evenodd"
                      d="M299.327 200L266.327 167.5V162.857L300 196.02L333.673 162.857V167.5L300.673 200H299.327ZM285.857 200L266.327 180.765V176.122L290.571 200H285.857ZM314.143 200L333.673 180.765V176.122L309.429 200H314.143ZM299.327 160.204L300 160.867L300.673 160.204H299.327ZM285.857 160.204L300 174.133L314.143 160.204H309.429L300 169.49L290.571 160.204H285.857Z"
                      fill="#10152C"/>
            </g>
            <g clip-path="url(#clip30_160_3288)">
                <path fill-rule="evenodd" clip-rule="evenodd"
                      d="M366.173 200L333.673 167.5V162.857L366.837 196.02L400 162.857V167.5L367.5 200H366.173ZM352.908 200L333.673 180.765V176.122L357.551 200H352.908ZM380.765 200L400 180.765V176.122L376.122 200H380.765ZM366.173 160.204L366.837 160.867L367.5 160.204H366.173ZM352.908 160.204L366.837 174.133L380.765 160.204H376.122L366.837 169.49L357.551 160.204H352.908Z"
                      fill="#10152C"/>
            </g>
            <g clip-path="url(#clip31_160_3288)">
                <path fill-rule="evenodd" clip-rule="evenodd"
                      d="M33 239.796L0 207.296V202.653L33.6735 235.816L67.3469 202.653V207.296L34.3469 239.796H33ZM19.5306 239.796L0 220.561V215.918L24.2449 239.796H19.5306ZM47.8163 239.796L67.3469 220.561V215.918L43.102 239.796H47.8163ZM33 200L33.6735 200.663L34.3469 200H33ZM19.5306 200L33.6735 213.929L47.8163 200H43.102L33.6735 209.286L24.2449 200H19.5306Z"
                      fill="#10152C"/>
            </g>
            <g clip-path="url(#clip32_160_3288)">
                <path fill-rule="evenodd" clip-rule="evenodd"
                      d="M99.8469 239.796L67.3469 207.296V202.653L100.51 235.816L133.673 202.653V207.296L101.173 239.796H99.8469ZM86.5816 239.796L67.3469 220.561V215.918L91.2245 239.796H86.5816ZM114.439 239.796L133.673 220.561V215.918L109.796 239.796H114.439ZM99.8469 200L100.51 200.663L101.173 200H99.8469ZM86.5816 200L100.51 213.929L114.439 200H109.796L100.51 209.286L91.2245 200H86.5816Z"
                      fill="#10152C"/>
            </g>
            <g clip-path="url(#clip33_160_3288)">
                <path fill-rule="evenodd" clip-rule="evenodd"
                      d="M166.173 239.796L133.673 207.296V202.653L166.837 235.816L200 202.653V207.296L167.5 239.796H166.173ZM152.908 239.796L133.673 220.561V215.918L157.551 239.796H152.908ZM180.765 239.796L200 220.561V215.918L176.122 239.796H180.765ZM166.173 200L166.837 200.663L167.5 200H166.173ZM152.908 200L166.837 213.929L180.765 200H176.122L166.837 209.286L157.551 200H152.908Z"
                      fill="#10152C"/>
            </g>
            <g clip-path="url(#clip34_160_3288)">
                <path fill-rule="evenodd" clip-rule="evenodd"
                      d="M232.5 239.796L200 207.296V202.653L233.163 235.816L266.327 202.653V207.296L233.827 239.796H232.5ZM219.235 239.796L200 220.561V215.918L223.878 239.796H219.235ZM247.092 239.796L266.327 220.561V215.918L242.449 239.796H247.092ZM232.5 200L233.163 200.663L233.827 200H232.5ZM219.235 200L233.163 213.929L247.092 200H242.449L233.163 209.286L223.878 200H219.235Z"
                      fill="#10152C"/>
            </g>
            <g clip-path="url(#clip35_160_3288)">
                <path fill-rule="evenodd" clip-rule="evenodd"
                      d="M299.327 239.796L266.327 207.296V202.653L300 235.816L333.673 202.653V207.296L300.673 239.796H299.327ZM285.857 239.796L266.327 220.561V215.918L290.571 239.796H285.857ZM314.143 239.796L333.673 220.561V215.918L309.429 239.796H314.143ZM299.327 200L300 200.663L300.673 200H299.327ZM285.857 200L300 213.929L314.143 200H309.429L300 209.286L290.571 200H285.857Z"
                      fill="#10152C"/>
            </g>
            <g clip-path="url(#clip36_160_3288)">
                <path fill-rule="evenodd" clip-rule="evenodd"
                      d="M366.173 239.796L333.673 207.296V202.653L366.837 235.816L400 202.653V207.296L367.5 239.796H366.173ZM352.908 239.796L333.673 220.561V215.918L357.551 239.796H352.908ZM380.765 239.796L400 220.561V215.918L376.122 239.796H380.765ZM366.173 200L366.837 200.663L367.5 200H366.173ZM352.908 200L366.837 213.929L380.765 200H376.122L366.837 209.286L357.551 200H352.908Z"
                      fill="#10152C"/>
            </g>
            <g clip-path="url(#clip37_160_3288)">
                <path fill-rule="evenodd" clip-rule="evenodd"
                      d="M33 279.592L0 247.092V242.449L33.6735 275.612L67.3469 242.449V247.092L34.3469 279.592H33ZM19.5306 279.592L0 260.357V255.714L24.2449 279.592H19.5306ZM47.8163 279.592L67.3469 260.357V255.714L43.102 279.592H47.8163ZM33 239.796L33.6735 240.459L34.3469 239.796H33ZM19.5306 239.796L33.6735 253.724L47.8163 239.796H43.102L33.6735 249.082L24.2449 239.796H19.5306Z"
                      fill="#10152C"/>
            </g>
            <g clip-path="url(#clip38_160_3288)">
                <path fill-rule="evenodd" clip-rule="evenodd"
                      d="M99.8469 279.592L67.3469 247.092V242.449L100.51 275.612L133.673 242.449V247.092L101.173 279.592H99.8469ZM86.5816 279.592L67.3469 260.357V255.714L91.2245 279.592H86.5816ZM114.439 279.592L133.673 260.357V255.714L109.796 279.592H114.439ZM99.8469 239.796L100.51 240.459L101.173 239.796H99.8469ZM86.5816 239.796L100.51 253.724L114.439 239.796H109.796L100.51 249.082L91.2245 239.796H86.5816Z"
                      fill="#10152C"/>
            </g>
            <g clip-path="url(#clip39_160_3288)">
                <path fill-rule="evenodd" clip-rule="evenodd"
                      d="M166.173 279.592L133.673 247.092V242.449L166.837 275.612L200 242.449V247.092L167.5 279.592H166.173ZM152.908 279.592L133.673 260.357V255.714L157.551 279.592H152.908ZM180.765 279.592L200 260.357V255.714L176.122 279.592H180.765ZM166.173 239.796L166.837 240.459L167.5 239.796H166.173ZM152.908 239.796L166.837 253.724L180.765 239.796H176.122L166.837 249.082L157.551 239.796H152.908Z"
                      fill="#10152C"/>
            </g>
            <g clip-path="url(#clip40_160_3288)">
                <path fill-rule="evenodd" clip-rule="evenodd"
                      d="M232.5 279.592L200 247.092V242.449L233.163 275.612L266.327 242.449V247.092L233.827 279.592H232.5ZM219.235 279.592L200 260.357V255.714L223.878 279.592H219.235ZM247.092 279.592L266.327 260.357V255.714L242.449 279.592H247.092ZM232.5 239.796L233.163 240.459L233.827 239.796H232.5ZM219.235 239.796L233.163 253.724L247.092 239.796H242.449L233.163 249.082L223.878 239.796H219.235Z"
                      fill="#10152C"/>
            </g>
            <g clip-path="url(#clip41_160_3288)">
                <path fill-rule="evenodd" clip-rule="evenodd"
                      d="M299.327 279.592L266.327 247.092V242.449L300 275.612L333.673 242.449V247.092L300.673 279.592H299.327ZM285.857 279.592L266.327 260.357V255.714L290.571 279.592H285.857ZM314.143 279.592L333.673 260.357V255.714L309.429 279.592H314.143ZM299.327 239.796L300 240.459L300.673 239.796H299.327ZM285.857 239.796L300 253.724L314.143 239.796H309.429L300 249.082L290.571 239.796H285.857Z"
                      fill="#10152C"/>
            </g>
            <g clip-path="url(#clip42_160_3288)">
                <path fill-rule="evenodd" clip-rule="evenodd"
                      d="M366.173 279.592L333.673 247.092V242.449L366.837 275.612L400 242.449V247.092L367.5 279.592H366.173ZM352.908 279.592L333.673 260.357V255.714L357.551 279.592H352.908ZM380.765 279.592L400 260.357V255.714L376.122 279.592H380.765ZM366.173 239.796L366.837 240.459L367.5 239.796H366.173ZM352.908 239.796L366.837 253.724L380.765 239.796H376.122L366.837 249.082L357.551 239.796H352.908Z"
                      fill="#10152C"/>
            </g>
            <g clip-path="url(#clip43_160_3288)">
                <path fill-rule="evenodd" clip-rule="evenodd"
                      d="M33 319.388L0 286.888V282.245L33.6735 315.408L67.3469 282.245V286.888L34.3469 319.388H33ZM19.5306 319.388L0 300.153V295.51L24.2449 319.388H19.5306ZM47.8163 319.388L67.3469 300.153V295.51L43.102 319.388H47.8163ZM33 279.592L33.6735 280.255L34.3469 279.592H33ZM19.5306 279.592L33.6735 293.52L47.8163 279.592H43.102L33.6735 288.878L24.2449 279.592H19.5306Z"
                      fill="#10152C"/>
            </g>
            <g clip-path="url(#clip44_160_3288)">
                <path fill-rule="evenodd" clip-rule="evenodd"
                      d="M99.8469 319.388L67.3469 286.888V282.245L100.51 315.408L133.673 282.245V286.888L101.173 319.388H99.8469ZM86.5816 319.388L67.3469 300.153V295.51L91.2245 319.388H86.5816ZM114.439 319.388L133.673 300.153V295.51L109.796 319.388H114.439ZM99.8469 279.592L100.51 280.255L101.173 279.592H99.8469ZM86.5816 279.592L100.51 293.52L114.439 279.592H109.796L100.51 288.878L91.2245 279.592H86.5816Z"
                      fill="#10152C"/>
            </g>
            <g clip-path="url(#clip45_160_3288)">
                <path fill-rule="evenodd" clip-rule="evenodd"
                      d="M166.173 319.388L133.673 286.888V282.245L166.837 315.408L200 282.245V286.888L167.5 319.388H166.173ZM152.908 319.388L133.673 300.153V295.51L157.551 319.388H152.908ZM180.765 319.388L200 300.153V295.51L176.122 319.388H180.765ZM166.173 279.592L166.837 280.255L167.5 279.592H166.173ZM152.908 279.592L166.837 293.52L180.765 279.592H176.122L166.837 288.878L157.551 279.592H152.908Z"
                      fill="#10152C"/>
            </g>
            <g clip-path="url(#clip46_160_3288)">
                <path fill-rule="evenodd" clip-rule="evenodd"
                      d="M232.5 319.388L200 286.888V282.245L233.163 315.408L266.327 282.245V286.888L233.827 319.388H232.5ZM219.235 319.388L200 300.153V295.51L223.878 319.388H219.235ZM247.092 319.388L266.327 300.153V295.51L242.449 319.388H247.092ZM232.5 279.592L233.163 280.255L233.827 279.592H232.5ZM219.235 279.592L233.163 293.52L247.092 279.592H242.449L233.163 288.878L223.878 279.592H219.235Z"
                      fill="#10152C"/>
            </g>
            <g clip-path="url(#clip47_160_3288)">
                <path fill-rule="evenodd" clip-rule="evenodd"
                      d="M299.327 319.388L266.327 286.888V282.245L300 315.408L333.673 282.245V286.888L300.673 319.388H299.327ZM285.857 319.388L266.327 300.153V295.51L290.571 319.388H285.857ZM314.143 319.388L333.673 300.153V295.51L309.429 319.388H314.143ZM299.327 279.592L300 280.255L300.673 279.592H299.327ZM285.857 279.592L300 293.52L314.143 279.592H309.429L300 288.878L290.571 279.592H285.857Z"
                      fill="#10152C"/>
            </g>
            <g clip-path="url(#clip48_160_3288)">
                <path fill-rule="evenodd" clip-rule="evenodd"
                      d="M366.173 319.388L333.673 286.888V282.245L366.837 315.408L400 282.245V286.888L367.5 319.388H366.173ZM352.908 319.388L333.673 300.153V295.51L357.551 319.388H352.908ZM380.765 319.388L400 300.153V295.51L376.122 319.388H380.765ZM366.173 279.592L366.837 280.255L367.5 279.592H366.173ZM352.908 279.592L366.837 293.52L380.765 279.592H376.122L366.837 288.878L357.551 279.592H352.908Z"
                      fill="#10152C"/>
            </g>
            <g clip-path="url(#clip49_160_3288)">
                <path fill-rule="evenodd" clip-rule="evenodd"
                      d="M33 360.204L0 326.871V322.109L33.6735 356.122L67.3469 322.109V326.871L34.3469 360.204H33ZM19.5306 360.204L0 340.476V335.714L24.2449 360.204H19.5306ZM47.8163 360.204L67.3469 340.476V335.714L43.102 360.204H47.8163ZM33 319.388L33.6735 320.068L34.3469 319.388H33ZM19.5306 319.388L33.6735 333.673L47.8163 319.388H43.102L33.6735 328.912L24.2449 319.388H19.5306Z"
                      fill="#10152C"/>
            </g>
            <g clip-path="url(#clip50_160_3288)">
                <path fill-rule="evenodd" clip-rule="evenodd"
                      d="M99.8469 360.204L67.3469 326.871V322.109L100.51 356.122L133.673 322.109V326.871L101.173 360.204H99.8469ZM86.5816 360.204L67.3469 340.476V335.714L91.2245 360.204H86.5816ZM114.439 360.204L133.673 340.476V335.714L109.796 360.204H114.439ZM99.8469 319.388L100.51 320.068L101.173 319.388H99.8469ZM86.5816 319.388L100.51 333.673L114.439 319.388H109.796L100.51 328.912L91.2245 319.388H86.5816Z"
                      fill="#10152C"/>
            </g>
            <g clip-path="url(#clip51_160_3288)">
                <path fill-rule="evenodd" clip-rule="evenodd"
                      d="M166.173 360.204L133.673 326.871V322.109L166.837 356.122L200 322.109V326.871L167.5 360.204H166.173ZM152.908 360.204L133.673 340.476V335.714L157.551 360.204H152.908ZM180.765 360.204L200 340.476V335.714L176.122 360.204H180.765ZM166.173 319.388L166.837 320.068L167.5 319.388H166.173ZM152.908 319.388L166.837 333.673L180.765 319.388H176.122L166.837 328.912L157.551 319.388H152.908Z"
                      fill="#10152C"/>
            </g>
            <g clip-path="url(#clip52_160_3288)">
                <path fill-rule="evenodd" clip-rule="evenodd"
                      d="M232.5 360.204L200 326.871V322.109L233.163 356.122L266.327 322.109V326.871L233.827 360.204H232.5ZM219.235 360.204L200 340.476V335.714L223.878 360.204H219.235ZM247.092 360.204L266.327 340.476V335.714L242.449 360.204H247.092ZM232.5 319.388L233.163 320.068L233.827 319.388H232.5ZM219.235 319.388L233.163 333.673L247.092 319.388H242.449L233.163 328.912L223.878 319.388H219.235Z"
                      fill="#10152C"/>
            </g>
            <g clip-path="url(#clip53_160_3288)">
                <path fill-rule="evenodd" clip-rule="evenodd"
                      d="M299.327 360.204L266.327 326.871V322.109L300 356.122L333.673 322.109V326.871L300.673 360.204H299.327ZM285.857 360.204L266.327 340.476V335.714L290.571 360.204H285.857ZM314.143 360.204L333.673 340.476V335.714L309.429 360.204H314.143ZM299.327 319.388L300 320.068L300.673 319.388H299.327ZM285.857 319.388L300 333.673L314.143 319.388H309.429L300 328.912L290.571 319.388H285.857Z"
                      fill="#10152C"/>
            </g>
            <g clip-path="url(#clip54_160_3288)">
                <path fill-rule="evenodd" clip-rule="evenodd"
                      d="M366.173 360.204L333.673 326.871V322.109L366.837 356.122L400 322.109V326.871L367.5 360.204H366.173ZM352.908 360.204L333.673 340.476V335.714L357.551 360.204H352.908ZM380.765 360.204L400 340.476V335.714L376.122 360.204H380.765ZM366.173 319.388L366.837 320.068L367.5 319.388H366.173ZM352.908 319.388L366.837 333.673L380.765 319.388H376.122L366.837 328.912L357.551 319.388H352.908Z"
                      fill="#10152C"/>
            </g>
            <g clip-path="url(#clip55_160_3288)">
                <path fill-rule="evenodd" clip-rule="evenodd"
                      d="M33 400L0 367.5V362.857L33.6735 396.02L67.3469 362.857V367.5L34.3469 400H33ZM19.5306 400L0 380.765V376.122L24.2449 400H19.5306ZM47.8163 400L67.3469 380.765V376.122L43.102 400H47.8163ZM33 360.204L33.6735 360.867L34.3469 360.204H33ZM19.5306 360.204L33.6735 374.133L47.8163 360.204H43.102L33.6735 369.49L24.2449 360.204H19.5306Z"
                      fill="#10152C"/>
            </g>
            <g clip-path="url(#clip56_160_3288)">
                <path fill-rule="evenodd" clip-rule="evenodd"
                      d="M99.8469 400L67.3469 367.5V362.857L100.51 396.02L133.673 362.857V367.5L101.173 400H99.8469ZM86.5816 400L67.3469 380.765V376.122L91.2245 400H86.5816ZM114.439 400L133.673 380.765V376.122L109.796 400H114.439ZM99.8469 360.204L100.51 360.867L101.173 360.204H99.8469ZM86.5816 360.204L100.51 374.133L114.439 360.204H109.796L100.51 369.49L91.2245 360.204H86.5816Z"
                      fill="#10152C"/>
            </g>
            <g clip-path="url(#clip57_160_3288)">
                <path fill-rule="evenodd" clip-rule="evenodd"
                      d="M166.173 400L133.673 367.5V362.857L166.837 396.02L200 362.857V367.5L167.5 400H166.173ZM152.908 400L133.673 380.765V376.122L157.551 400H152.908ZM180.765 400L200 380.765V376.122L176.122 400H180.765ZM166.173 360.204L166.837 360.867L167.5 360.204H166.173ZM152.908 360.204L166.837 374.133L180.765 360.204H176.122L166.837 369.49L157.551 360.204H152.908Z"
                      fill="#10152C"/>
            </g>
            <g clip-path="url(#clip58_160_3288)">
                <path fill-rule="evenodd" clip-rule="evenodd"
                      d="M232.5 400L200 367.5V362.857L233.163 396.02L266.327 362.857V367.5L233.827 400H232.5ZM219.235 400L200 380.765V376.122L223.878 400H219.235ZM247.092 400L266.327 380.765V376.122L242.449 400H247.092ZM232.5 360.204L233.163 360.867L233.827 360.204H232.5ZM219.235 360.204L233.163 374.133L247.092 360.204H242.449L233.163 369.49L223.878 360.204H219.235Z"
                      fill="#10152C"/>
            </g>
            <g clip-path="url(#clip59_160_3288)">
                <path fill-rule="evenodd" clip-rule="evenodd"
                      d="M299.327 400L266.327 367.5V362.857L300 396.02L333.673 362.857V367.5L300.673 400H299.327ZM285.857 400L266.327 380.765V376.122L290.571 400H285.857ZM314.143 400L333.673 380.765V376.122L309.429 400H314.143ZM299.327 360.204L300 360.867L300.673 360.204H299.327ZM285.857 360.204L300 374.133L314.143 360.204H309.429L300 369.49L290.571 360.204H285.857Z"
                      fill="#10152C"/>
            </g>
            <g clip-path="url(#clip60_160_3288)">
                <path fill-rule="evenodd" clip-rule="evenodd"
                      d="M366.173 400L333.673 367.5V362.857L366.837 396.02L400 362.857V367.5L367.5 400H366.173ZM352.908 400L333.673 380.765V376.122L357.551 400H352.908ZM380.765 400L400 380.765V376.122L376.122 400H380.765ZM366.173 360.204L366.837 360.867L367.5 360.204H366.173ZM352.908 360.204L366.837 374.133L380.765 360.204H376.122L366.837 369.49L357.551 360.204H352.908Z"
                      fill="#10152C"/>
            </g>
        </g>
    </g>
    <defs>
        <clipPath id="clip0_160_3288">
            <rect width="400" height="400" rx="200" fill="white"/>
        </clipPath>
        <clipPath id="clip1_160_3288">
            <rect width="67.3469" height="39.7959" fill="white"/>
        </clipPath>
        <clipPath id="clip2_160_3288">
            <rect width="66.3265" height="39.7959" fill="white" transform="translate(67.3469)"/>
        </clipPath>
        <clipPath id="clip3_160_3288">
            <rect width="66.3265" height="39.7959" fill="white" transform="translate(133.673)"/>
        </clipPath>
        <clipPath id="clip4_160_3288">
            <rect width="66.3265" height="39.7959" fill="white" transform="translate(200)"/>
        </clipPath>
        <clipPath id="clip5_160_3288">
            <rect width="67.3469" height="39.7959" fill="white" transform="translate(266.327)"/>
        </clipPath>
        <clipPath id="clip6_160_3288">
            <rect width="66.3265" height="39.7959" fill="white" transform="translate(333.673)"/>
        </clipPath>
        <clipPath id="clip7_160_3288">
            <rect width="67.3469" height="40.8163" fill="white" transform="translate(0 39.7959)"/>
        </clipPath>
        <clipPath id="clip8_160_3288">
            <rect width="66.3265" height="40.8163" fill="white" transform="translate(67.3469 39.7959)"/>
        </clipPath>
        <clipPath id="clip9_160_3288">
            <rect width="66.3265" height="40.8163" fill="white" transform="translate(133.673 39.7959)"/>
        </clipPath>
        <clipPath id="clip10_160_3288">
            <rect width="66.3265" height="40.8163" fill="white" transform="translate(200 39.7959)"/>
        </clipPath>
        <clipPath id="clip11_160_3288">
            <rect width="67.3469" height="40.8163" fill="white" transform="translate(266.327 39.7959)"/>
        </clipPath>
        <clipPath id="clip12_160_3288">
            <rect width="66.3265" height="40.8163" fill="white" transform="translate(333.673 39.7959)"/>
        </clipPath>
        <clipPath id="clip13_160_3288">
            <rect width="67.3469" height="39.7959" fill="white" transform="translate(0 80.6122)"/>
        </clipPath>
        <clipPath id="clip14_160_3288">
            <rect width="66.3265" height="39.7959" fill="white" transform="translate(67.3469 80.6122)"/>
        </clipPath>
        <clipPath id="clip15_160_3288">
            <rect width="66.3265" height="39.7959" fill="white" transform="translate(133.673 80.6122)"/>
        </clipPath>
        <clipPath id="clip16_160_3288">
            <rect width="66.3265" height="39.7959" fill="white" transform="translate(200 80.6122)"/>
        </clipPath>
        <clipPath id="clip17_160_3288">
            <rect width="67.3469" height="39.7959" fill="white" transform="translate(266.327 80.6122)"/>
        </clipPath>
        <clipPath id="clip18_160_3288">
            <rect width="66.3265" height="39.7959" fill="white" transform="translate(333.673 80.6122)"/>
        </clipPath>
        <clipPath id="clip19_160_3288">
            <rect width="67.3469" height="39.7959" fill="white" transform="translate(0 120.408)"/>
        </clipPath>
        <clipPath id="clip20_160_3288">
            <rect width="66.3265" height="39.7959" fill="white" transform="translate(67.3469 120.408)"/>
        </clipPath>
        <clipPath id="clip21_160_3288">
            <rect width="66.3265" height="39.7959" fill="white" transform="translate(133.673 120.408)"/>
        </clipPath>
        <clipPath id="clip22_160_3288">
            <rect width="66.3265" height="39.7959" fill="white" transform="translate(200 120.408)"/>
        </clipPath>
        <clipPath id="clip23_160_3288">
            <rect width="67.3469" height="39.7959" fill="white" transform="translate(266.327 120.408)"/>
        </clipPath>
        <clipPath id="clip24_160_3288">
            <rect width="66.3265" height="39.7959" fill="white" transform="translate(333.673 120.408)"/>
        </clipPath>
        <clipPath id="clip25_160_3288">
            <rect width="67.3469" height="39.7959" fill="white" transform="translate(0 160.204)"/>
        </clipPath>
        <clipPath id="clip26_160_3288">
            <rect width="66.3265" height="39.7959" fill="white" transform="translate(67.3469 160.204)"/>
        </clipPath>
        <clipPath id="clip27_160_3288">
            <rect width="66.3265" height="39.7959" fill="white" transform="translate(133.673 160.204)"/>
        </clipPath>
        <clipPath id="clip28_160_3288">
            <rect width="66.3265" height="39.7959" fill="white" transform="translate(200 160.204)"/>
        </clipPath>
        <clipPath id="clip29_160_3288">
            <rect width="67.3469" height="39.7959" fill="white" transform="translate(266.327 160.204)"/>
        </clipPath>
        <clipPath id="clip30_160_3288">
            <rect width="66.3265" height="39.7959" fill="white" transform="translate(333.673 160.204)"/>
        </clipPath>
        <clipPath id="clip31_160_3288">
            <rect width="67.3469" height="39.7959" fill="white" transform="translate(0 200)"/>
        </clipPath>
        <clipPath id="clip32_160_3288">
            <rect width="66.3265" height="39.7959" fill="white" transform="translate(67.3469 200)"/>
        </clipPath>
        <clipPath id="clip33_160_3288">
            <rect width="66.3265" height="39.7959" fill="white" transform="translate(133.673 200)"/>
        </clipPath>
        <clipPath id="clip34_160_3288">
            <rect width="66.3265" height="39.7959" fill="white" transform="translate(200 200)"/>
        </clipPath>
        <clipPath id="clip35_160_3288">
            <rect width="67.3469" height="39.7959" fill="white" transform="translate(266.327 200)"/>
        </clipPath>
        <clipPath id="clip36_160_3288">
            <rect width="66.3265" height="39.7959" fill="white" transform="translate(333.673 200)"/>
        </clipPath>
        <clipPath id="clip37_160_3288">
            <rect width="67.3469" height="39.7959" fill="white" transform="translate(0 239.796)"/>
        </clipPath>
        <clipPath id="clip38_160_3288">
            <rect width="66.3265" height="39.7959" fill="white" transform="translate(67.3469 239.796)"/>
        </clipPath>
        <clipPath id="clip39_160_3288">
            <rect width="66.3265" height="39.7959" fill="white" transform="translate(133.673 239.796)"/>
        </clipPath>
        <clipPath id="clip40_160_3288">
            <rect width="66.3265" height="39.7959" fill="white" transform="translate(200 239.796)"/>
        </clipPath>
        <clipPath id="clip41_160_3288">
            <rect width="67.3469" height="39.7959" fill="white" transform="translate(266.327 239.796)"/>
        </clipPath>
        <clipPath id="clip42_160_3288">
            <rect width="66.3265" height="39.7959" fill="white" transform="translate(333.673 239.796)"/>
        </clipPath>
        <clipPath id="clip43_160_3288">
            <rect width="67.3469" height="39.7959" fill="white" transform="translate(0 279.592)"/>
        </clipPath>
        <clipPath id="clip44_160_3288">
            <rect width="66.3265" height="39.7959" fill="white" transform="translate(67.3469 279.592)"/>
        </clipPath>
        <clipPath id="clip45_160_3288">
            <rect width="66.3265" height="39.7959" fill="white" transform="translate(133.673 279.592)"/>
        </clipPath>
        <clipPath id="clip46_160_3288">
            <rect width="66.3265" height="39.7959" fill="white" transform="translate(200 279.592)"/>
        </clipPath>
        <clipPath id="clip47_160_3288">
            <rect width="67.3469" height="39.7959" fill="white" transform="translate(266.327 279.592)"/>
        </clipPath>
        <clipPath id="clip48_160_3288">
            <rect width="66.3265" height="39.7959" fill="white" transform="translate(333.673 279.592)"/>
        </clipPath>
        <clipPath id="clip49_160_3288">
            <rect width="67.3469" height="40.8163" fill="white" transform="translate(0 319.388)"/>
        </clipPath>
        <clipPath id="clip50_160_3288">
            <rect width="66.3265" height="40.8163" fill="white" transform="translate(67.3469 319.388)"/>
        </clipPath>
        <clipPath id="clip51_160_3288">
            <rect width="66.3265" height="40.8163" fill="white" transform="translate(133.673 319.388)"/>
        </clipPath>
        <clipPath id="clip52_160_3288">
            <rect width="66.3265" height="40.8163" fill="white" transform="translate(200 319.388)"/>
        </clipPath>
        <clipPath id="clip53_160_3288">
            <rect width="67.3469" height="40.8163" fill="white" transform="translate(266.327 319.388)"/>
        </clipPath>
        <clipPath id="clip54_160_3288">
            <rect width="66.3265" height="40.8163" fill="white" transform="translate(333.673 319.388)"/>
        </clipPath>
        <clipPath id="clip55_160_3288">
            <rect width="67.3469" height="39.7959" fill="white" transform="translate(0 360.204)"/>
        </clipPath>
        <clipPath id="clip56_160_3288">
            <rect width="66.3265" height="39.7959" fill="white" transform="translate(67.3469 360.204)"/>
        </clipPath>
        <clipPath id="clip57_160_3288">
            <rect width="66.3265" height="39.7959" fill="white" transform="translate(133.673 360.204)"/>
        </clipPath>
        <clipPath id="clip58_160_3288">
            <rect width="66.3265" height="39.7959" fill="white" transform="translate(200 360.204)"/>
        </clipPath>
        <clipPath id="clip59_160_3288">
            <rect width="67.3469" height="39.7959" fill="white" transform="translate(266.327 360.204)"/>
        </clipPath>
        <clipPath id="clip60_160_3288">
            <rect width="66.3265" height="39.7959" fill="white" transform="translate(333.673 360.204)"/>
        </clipPath>
    </defs>
</svg>
